<?xml version="1.0" encoding="utf-8" standalone="no"?>
<!DOCTYPE svg PUBLIC "-//W3C//DTD SVG 1.1//EN"
  "http://www.w3.org/Graphics/SVG/1.1/DTD/svg11.dtd">
<svg xmlns:xlink="http://www.w3.org/1999/xlink" width="1886.4pt" height="878.4pt" viewBox="0 0 1886.4 878.4" xmlns="http://www.w3.org/2000/svg" version="1.1">
 <metadata>
  <rdf:RDF xmlns:dc="http://purl.org/dc/elements/1.1/" xmlns:cc="http://creativecommons.org/ns#" xmlns:rdf="http://www.w3.org/1999/02/22-rdf-syntax-ns#">
   <cc:Work>
    <dc:type rdf:resource="http://purl.org/dc/dcmitype/StillImage"/>
    <dc:date>2026-01-10T10:29:05.187380</dc:date>
    <dc:format>image/svg+xml</dc:format>
    <dc:creator>
     <cc:Agent>
      <dc:title>Matplotlib v3.10.3, https://matplotlib.org/</dc:title>
     </cc:Agent>
    </dc:creator>
   </cc:Work>
  </rdf:RDF>
 </metadata>
 <defs>
  <style type="text/css">*{stroke-linejoin: round; stroke-linecap: butt}</style>
 </defs>
 <g id="figure_1">
  <g id="patch_1">
   <path d="M 0 878.4 
L 1886.4 878.4 
L 1886.4 0 
L 0 0 
z
" style="fill: #ffffff"/>
  </g>
  <g id="axes_1">
   <g id="line2d_1">
    <path d="M 79.2 79.2 
L 1807.2 79.2 
" clip-path="url(#p48325d455b)" style="fill: none; stroke: #000000; stroke-width: 1.5; stroke-linecap: square"/>
   </g>
   <g id="line2d_2">
    <path d="M 79.2 151.2 
L 1807.2 151.2 
" clip-path="url(#p48325d455b)" style="fill: none; stroke: #000000; stroke-width: 1.5; stroke-linecap: square"/>
   </g>
   <g id="line2d_3">
    <path d="M 79.2 223.2 
L 1807.2 223.2 
" clip-path="url(#p48325d455b)" style="fill: none; stroke: #000000; stroke-width: 1.5; stroke-linecap: square"/>
   </g>
   <g id="line2d_4">
    <path d="M 79.2 295.2 
L 1807.2 295.2 
" clip-path="url(#p48325d455b)" style="fill: none; stroke: #000000; stroke-width: 1.5; stroke-linecap: square"/>
   </g>
   <g id="line2d_5">
    <path d="M 79.2 367.2 
L 1807.2 367.2 
" clip-path="url(#p48325d455b)" style="fill: none; stroke: #000000; stroke-width: 1.5; stroke-linecap: square"/>
   </g>
   <g id="line2d_6">
    <path d="M 79.2 439.2 
L 1807.2 439.2 
" clip-path="url(#p48325d455b)" style="fill: none; stroke: #000000; stroke-width: 1.5; stroke-linecap: square"/>
   </g>
   <g id="line2d_7">
    <path d="M 79.2 511.2 
L 1807.2 511.2 
" clip-path="url(#p48325d455b)" style="fill: none; stroke: #000000; stroke-width: 1.5; stroke-linecap: square"/>
   </g>
   <g id="line2d_8">
    <path d="M 79.2 583.2 
L 1807.2 583.2 
" clip-path="url(#p48325d455b)" style="fill: none; stroke: #000000; stroke-width: 1.5; stroke-linecap: square"/>
   </g>
   <g id="line2d_9">
    <path d="M 79.2 655.2 
L 1807.2 655.2 
" clip-path="url(#p48325d455b)" style="fill: none; stroke: #000000; stroke-width: 1.5; stroke-linecap: square"/>
   </g>
   <g id="line2d_10">
    <path d="M 79.2 727.2 
L 1807.2 727.2 
" clip-path="url(#p48325d455b)" style="fill: none; stroke: #000000; stroke-width: 1.5; stroke-linecap: square"/>
   </g>
   <g id="line2d_11">
    <path d="M 79.2 799.2 
L 1807.2 799.2 
" clip-path="url(#p48325d455b)" style="fill: none; stroke: #000000; stroke-width: 1.5; stroke-linecap: square"/>
   </g>
   <g id="LineCollection_1">
    <path d="M 219.6 43.2 
L 219.6 835.2 
" clip-path="url(#p48325d455b)" style="fill: none; stroke: #000000; stroke-width: 1.5"/>
   </g>
   <g id="LineCollection_2">
    <path d="M 226.8 43.2 
L 226.8 835.2 
" clip-path="url(#p48325d455b)" style="fill: none; stroke: #000000; stroke-width: 1.5"/>
   </g>
   <g id="LineCollection_3">
    <path d="M 363.6 43.2 
L 363.6 835.2 
" clip-path="url(#p48325d455b)" style="fill: none; stroke: #000000; stroke-width: 1.5"/>
   </g>
   <g id="LineCollection_4">
    <path d="M 370.8 43.2 
L 370.8 835.2 
" clip-path="url(#p48325d455b)" style="fill: none; stroke: #000000; stroke-width: 1.5"/>
   </g>
   <g id="line2d_12">
    <path d="M 439.2 79.2 
L 439.2 295.2 
" clip-path="url(#p48325d455b)" style="fill: none; stroke: #000000; stroke-width: 1.5; stroke-linecap: square"/>
   </g>
   <g id="line2d_13">
    <path d="M 511.2 79.2 
L 511.2 367.2 
" clip-path="url(#p48325d455b)" style="fill: none; stroke: #000000; stroke-width: 1.5; stroke-linecap: square"/>
   </g>
   <g id="line2d_14">
    <path d="M 583.2 79.2 
L 583.2 439.2 
" clip-path="url(#p48325d455b)" style="fill: none; stroke: #000000; stroke-width: 1.5; stroke-linecap: square"/>
   </g>
   <g id="line2d_15">
    <path d="M 655.2 79.2 
L 655.2 511.2 
" clip-path="url(#p48325d455b)" style="fill: none; stroke: #000000; stroke-width: 1.5; stroke-linecap: square"/>
   </g>
   <g id="line2d_16">
    <path d="M 727.2 79.2 
L 727.2 583.2 
" clip-path="url(#p48325d455b)" style="fill: none; stroke: #000000; stroke-width: 1.5; stroke-linecap: square"/>
   </g>
   <g id="line2d_17">
    <path d="M 799.2 151.2 
L 799.2 295.2 
" clip-path="url(#p48325d455b)" style="fill: none; stroke: #000000; stroke-width: 1.5; stroke-linecap: square"/>
   </g>
   <g id="line2d_18">
    <path d="M 871.2 151.2 
L 871.2 367.2 
" clip-path="url(#p48325d455b)" style="fill: none; stroke: #000000; stroke-width: 1.5; stroke-linecap: square"/>
   </g>
   <g id="line2d_19">
    <path d="M 943.2 151.2 
L 943.2 439.2 
" clip-path="url(#p48325d455b)" style="fill: none; stroke: #000000; stroke-width: 1.5; stroke-linecap: square"/>
   </g>
   <g id="line2d_20">
    <path d="M 1015.2 151.2 
L 1015.2 511.2 
" clip-path="url(#p48325d455b)" style="fill: none; stroke: #000000; stroke-width: 1.5; stroke-linecap: square"/>
   </g>
   <g id="line2d_21">
    <path d="M 1087.2 151.2 
L 1087.2 583.2 
" clip-path="url(#p48325d455b)" style="fill: none; stroke: #000000; stroke-width: 1.5; stroke-linecap: square"/>
   </g>
   <g id="line2d_22">
    <path d="M 1159.2 223.2 
L 1159.2 295.2 
" clip-path="url(#p48325d455b)" style="fill: none; stroke: #000000; stroke-width: 1.5; stroke-linecap: square"/>
   </g>
   <g id="line2d_23">
    <path d="M 1231.2 223.2 
L 1231.2 367.2 
" clip-path="url(#p48325d455b)" style="fill: none; stroke: #000000; stroke-width: 1.5; stroke-linecap: square"/>
   </g>
   <g id="line2d_24">
    <path d="M 1303.2 223.2 
L 1303.2 439.2 
" clip-path="url(#p48325d455b)" style="fill: none; stroke: #000000; stroke-width: 1.5; stroke-linecap: square"/>
   </g>
   <g id="line2d_25">
    <path d="M 1375.2 223.2 
L 1375.2 511.2 
" clip-path="url(#p48325d455b)" style="fill: none; stroke: #000000; stroke-width: 1.5; stroke-linecap: square"/>
   </g>
   <g id="line2d_26">
    <path d="M 1447.2 223.2 
L 1447.2 583.2 
" clip-path="url(#p48325d455b)" style="fill: none; stroke: #000000; stroke-width: 1.5; stroke-linecap: square"/>
   </g>
   <g id="LineCollection_5">
    <path d="M 1515.6 43.2 
L 1515.6 835.2 
" clip-path="url(#p48325d455b)" style="fill: none; stroke: #000000; stroke-width: 1.5"/>
   </g>
   <g id="LineCollection_6">
    <path d="M 1522.8 43.2 
L 1522.8 835.2 
" clip-path="url(#p48325d455b)" style="fill: none; stroke: #000000; stroke-width: 1.5"/>
   </g>
   <g id="LineCollection_7">
    <path d="M 1659.6 43.2 
L 1659.6 835.2 
" clip-path="url(#p48325d455b)" style="fill: none; stroke: #000000; stroke-width: 1.5"/>
   </g>
   <g id="LineCollection_8">
    <path d="M 1666.8 43.2 
L 1666.8 835.2 
" clip-path="url(#p48325d455b)" style="fill: none; stroke: #000000; stroke-width: 1.5"/>
   </g>
   <g id="patch_2">
    <path d="M 1794.6 268.2 
L 1819.8 268.2 
Q 1834.2 268.2 1834.2 282.6 
L 1834.2 307.8 
Q 1834.2 322.2 1819.8 322.2 
L 1794.6 322.2 
Q 1780.2 322.2 1780.2 307.8 
L 1780.2 282.6 
Q 1780.2 268.2 1794.6 268.2 
z
" clip-path="url(#p48325d455b)" style="fill: #ffffff; stroke: #000000; stroke-width: 3; stroke-linejoin: miter"/>
   </g>
   <g id="patch_3">
    <path d="M 1794.6 340.2 
L 1819.8 340.2 
Q 1834.2 340.2 1834.2 354.6 
L 1834.2 379.8 
Q 1834.2 394.2 1819.8 394.2 
L 1794.6 394.2 
Q 1780.2 394.2 1780.2 379.8 
L 1780.2 354.6 
Q 1780.2 340.2 1794.6 340.2 
z
" clip-path="url(#p48325d455b)" style="fill: #ffffff; stroke: #000000; stroke-width: 3; stroke-linejoin: miter"/>
   </g>
   <g id="patch_4">
    <path d="M 1794.6 412.2 
L 1819.8 412.2 
Q 1834.2 412.2 1834.2 426.6 
L 1834.2 451.8 
Q 1834.2 466.2 1819.8 466.2 
L 1794.6 466.2 
Q 1780.2 466.2 1780.2 451.8 
L 1780.2 426.6 
Q 1780.2 412.2 1794.6 412.2 
z
" clip-path="url(#p48325d455b)" style="fill: #ffffff; stroke: #000000; stroke-width: 3; stroke-linejoin: miter"/>
   </g>
   <g id="patch_5">
    <path d="M 1794.6 484.2 
L 1819.8 484.2 
Q 1834.2 484.2 1834.2 498.6 
L 1834.2 523.8 
Q 1834.2 538.2 1819.8 538.2 
L 1794.6 538.2 
Q 1780.2 538.2 1780.2 523.8 
L 1780.2 498.6 
Q 1780.2 484.2 1794.6 484.2 
z
" clip-path="url(#p48325d455b)" style="fill: #ffffff; stroke: #000000; stroke-width: 3; stroke-linejoin: miter"/>
   </g>
   <g id="patch_6">
    <path d="M 1794.6 556.2 
L 1819.8 556.2 
Q 1834.2 556.2 1834.2 570.6 
L 1834.2 595.8 
Q 1834.2 610.2 1819.8 610.2 
L 1794.6 610.2 
Q 1780.2 610.2 1780.2 595.8 
L 1780.2 570.6 
Q 1780.2 556.2 1794.6 556.2 
z
" clip-path="url(#p48325d455b)" style="fill: #ffffff; stroke: #000000; stroke-width: 3; stroke-linejoin: miter"/>
   </g>
   <g id="text_1">
    <!-- $Q_{P0}$ -->
    <g transform="translate(29.68 83.615) scale(0.16 -0.16)">
     <defs>
      <path id="DejaVuSans-Oblique-51" d="M 2309 -84 
Q 2275 -88 2237 -89 
Q 2200 -91 2125 -91 
Q 1250 -91 756 411 
Q 263 913 263 1797 
Q 263 2319 452 2844 
Q 641 3369 978 3788 
Q 1369 4269 1858 4509 
Q 2347 4750 2938 4750 
Q 3794 4750 4287 4245 
Q 4781 3741 4781 2869 
Q 4781 1928 4265 1147 
Q 3750 366 2919 44 
L 3553 -825 
L 2847 -825 
L 2309 -84 
z
M 2919 4238 
Q 2400 4238 2003 3986 
Q 1606 3734 1313 3219 
Q 1125 2891 1026 2522 
Q 928 2153 928 1778 
Q 928 1128 1239 775 
Q 1550 422 2119 422 
Q 2631 422 3032 676 
Q 3434 931 3719 1434 
Q 3909 1772 4009 2142 
Q 4109 2513 4109 2881 
Q 4109 3528 3796 3883 
Q 3484 4238 2919 4238 
z
" transform="scale(0.015625)"/>
      <path id="DejaVuSans-Oblique-50" d="M 1081 4666 
L 2541 4666 
Q 3178 4666 3512 4369 
Q 3847 4072 3847 3500 
Q 3847 2731 3353 2303 
Q 2859 1875 1966 1875 
L 1172 1875 
L 806 0 
L 172 0 
L 1081 4666 
z
M 1613 4147 
L 1275 2394 
L 2069 2394 
Q 2606 2394 2893 2669 
Q 3181 2944 3181 3456 
Q 3181 3784 2986 3965 
Q 2791 4147 2438 4147 
L 1613 4147 
z
" transform="scale(0.015625)"/>
      <path id="DejaVuSans-30" d="M 2034 4250 
Q 1547 4250 1301 3770 
Q 1056 3291 1056 2328 
Q 1056 1369 1301 889 
Q 1547 409 2034 409 
Q 2525 409 2770 889 
Q 3016 1369 3016 2328 
Q 3016 3291 2770 3770 
Q 2525 4250 2034 4250 
z
M 2034 4750 
Q 2819 4750 3233 4129 
Q 3647 3509 3647 2328 
Q 3647 1150 3233 529 
Q 2819 -91 2034 -91 
Q 1250 -91 836 529 
Q 422 1150 422 2328 
Q 422 3509 836 4129 
Q 1250 4750 2034 4750 
z
" transform="scale(0.015625)"/>
     </defs>
     <use xlink:href="#DejaVuSans-Oblique-51" transform="translate(0 0.78125)"/>
     <use xlink:href="#DejaVuSans-Oblique-50" transform="translate(78.710938 -15.625) scale(0.7)"/>
     <use xlink:href="#DejaVuSans-30" transform="translate(120.922852 -15.625) scale(0.7)"/>
    </g>
   </g>
   <g id="text_2">
    <!-- $Q_{P1}$ -->
    <g transform="translate(29.68 155.615) scale(0.16 -0.16)">
     <defs>
      <path id="DejaVuSans-31" d="M 794 531 
L 1825 531 
L 1825 4091 
L 703 3866 
L 703 4441 
L 1819 4666 
L 2450 4666 
L 2450 531 
L 3481 531 
L 3481 0 
L 794 0 
L 794 531 
z
" transform="scale(0.015625)"/>
     </defs>
     <use xlink:href="#DejaVuSans-Oblique-51" transform="translate(0 0.78125)"/>
     <use xlink:href="#DejaVuSans-Oblique-50" transform="translate(78.710938 -15.625) scale(0.7)"/>
     <use xlink:href="#DejaVuSans-31" transform="translate(120.922852 -15.625) scale(0.7)"/>
    </g>
   </g>
   <g id="text_3">
    <!-- $Q_{P2}$ -->
    <g transform="translate(29.68 227.615) scale(0.16 -0.16)">
     <defs>
      <path id="DejaVuSans-32" d="M 1228 531 
L 3431 531 
L 3431 0 
L 469 0 
L 469 531 
Q 828 903 1448 1529 
Q 2069 2156 2228 2338 
Q 2531 2678 2651 2914 
Q 2772 3150 2772 3378 
Q 2772 3750 2511 3984 
Q 2250 4219 1831 4219 
Q 1534 4219 1204 4116 
Q 875 4013 500 3803 
L 500 4441 
Q 881 4594 1212 4672 
Q 1544 4750 1819 4750 
Q 2544 4750 2975 4387 
Q 3406 4025 3406 3419 
Q 3406 3131 3298 2873 
Q 3191 2616 2906 2266 
Q 2828 2175 2409 1742 
Q 1991 1309 1228 531 
z
" transform="scale(0.015625)"/>
     </defs>
     <use xlink:href="#DejaVuSans-Oblique-51" transform="translate(0 0.78125)"/>
     <use xlink:href="#DejaVuSans-Oblique-50" transform="translate(78.710938 -15.625) scale(0.7)"/>
     <use xlink:href="#DejaVuSans-32" transform="translate(120.922852 -15.625) scale(0.7)"/>
    </g>
   </g>
   <g id="text_4">
    <!-- $Q_{T0}$ -->
    <g transform="translate(29.68 299.615) scale(0.16 -0.16)">
     <defs>
      <path id="DejaVuSans-Oblique-54" d="M 378 4666 
L 4325 4666 
L 4225 4134 
L 2559 4134 
L 1759 0 
L 1125 0 
L 1925 4134 
L 275 4134 
L 378 4666 
z
" transform="scale(0.015625)"/>
     </defs>
     <use xlink:href="#DejaVuSans-Oblique-51" transform="translate(0 0.78125)"/>
     <use xlink:href="#DejaVuSans-Oblique-54" transform="translate(78.710938 -15.625) scale(0.7)"/>
     <use xlink:href="#DejaVuSans-30" transform="translate(121.469727 -15.625) scale(0.7)"/>
    </g>
   </g>
   <g id="text_5">
    <!-- $Q_{T1}$ -->
    <g transform="translate(29.68 371.615) scale(0.16 -0.16)">
     <use xlink:href="#DejaVuSans-Oblique-51" transform="translate(0 0.78125)"/>
     <use xlink:href="#DejaVuSans-Oblique-54" transform="translate(78.710938 -15.625) scale(0.7)"/>
     <use xlink:href="#DejaVuSans-31" transform="translate(121.469727 -15.625) scale(0.7)"/>
    </g>
   </g>
   <g id="text_6">
    <!-- $Q_{T2}$ -->
    <g transform="translate(29.68 443.615) scale(0.16 -0.16)">
     <use xlink:href="#DejaVuSans-Oblique-51" transform="translate(0 0.78125)"/>
     <use xlink:href="#DejaVuSans-Oblique-54" transform="translate(78.710938 -15.625) scale(0.7)"/>
     <use xlink:href="#DejaVuSans-32" transform="translate(121.469727 -15.625) scale(0.7)"/>
    </g>
   </g>
   <g id="text_7">
    <!-- $Q_{T3}$ -->
    <g transform="translate(29.68 515.615) scale(0.16 -0.16)">
     <defs>
      <path id="DejaVuSans-33" d="M 2597 2516 
Q 3050 2419 3304 2112 
Q 3559 1806 3559 1356 
Q 3559 666 3084 287 
Q 2609 -91 1734 -91 
Q 1441 -91 1130 -33 
Q 819 25 488 141 
L 488 750 
Q 750 597 1062 519 
Q 1375 441 1716 441 
Q 2309 441 2620 675 
Q 2931 909 2931 1356 
Q 2931 1769 2642 2001 
Q 2353 2234 1838 2234 
L 1294 2234 
L 1294 2753 
L 1863 2753 
Q 2328 2753 2575 2939 
Q 2822 3125 2822 3475 
Q 2822 3834 2567 4026 
Q 2313 4219 1838 4219 
Q 1578 4219 1281 4162 
Q 984 4106 628 3988 
L 628 4550 
Q 988 4650 1302 4700 
Q 1616 4750 1894 4750 
Q 2613 4750 3031 4423 
Q 3450 4097 3450 3541 
Q 3450 3153 3228 2886 
Q 3006 2619 2597 2516 
z
" transform="scale(0.015625)"/>
     </defs>
     <use xlink:href="#DejaVuSans-Oblique-51" transform="translate(0 0.78125)"/>
     <use xlink:href="#DejaVuSans-Oblique-54" transform="translate(78.710938 -15.625) scale(0.7)"/>
     <use xlink:href="#DejaVuSans-33" transform="translate(121.469727 -15.625) scale(0.7)"/>
    </g>
   </g>
   <g id="text_8">
    <!-- $Q_{T4}$ -->
    <g transform="translate(29.68 587.615) scale(0.16 -0.16)">
     <defs>
      <path id="DejaVuSans-34" d="M 2419 4116 
L 825 1625 
L 2419 1625 
L 2419 4116 
z
M 2253 4666 
L 3047 4666 
L 3047 1625 
L 3713 1625 
L 3713 1100 
L 3047 1100 
L 3047 0 
L 2419 0 
L 2419 1100 
L 313 1100 
L 313 1709 
L 2253 4666 
z
" transform="scale(0.015625)"/>
     </defs>
     <use xlink:href="#DejaVuSans-Oblique-51" transform="translate(0 0.78125)"/>
     <use xlink:href="#DejaVuSans-Oblique-54" transform="translate(78.710938 -15.625) scale(0.7)"/>
     <use xlink:href="#DejaVuSans-34" transform="translate(121.469727 -15.625) scale(0.7)"/>
    </g>
   </g>
   <g id="text_9">
    <!-- $Q_{E0}$ -->
    <g transform="translate(29.52 659.615) scale(0.16 -0.16)">
     <defs>
      <path id="DejaVuSans-Oblique-45" d="M 1081 4666 
L 4031 4666 
L 3928 4134 
L 1606 4134 
L 1338 2753 
L 3566 2753 
L 3463 2222 
L 1234 2222 
L 909 531 
L 3284 531 
L 3181 0 
L 172 0 
L 1081 4666 
z
" transform="scale(0.015625)"/>
     </defs>
     <use xlink:href="#DejaVuSans-Oblique-51" transform="translate(0 0.78125)"/>
     <use xlink:href="#DejaVuSans-Oblique-45" transform="translate(78.710938 -15.625) scale(0.7)"/>
     <use xlink:href="#DejaVuSans-30" transform="translate(122.939453 -15.625) scale(0.7)"/>
    </g>
   </g>
   <g id="text_10">
    <!-- $Q_{E1}$ -->
    <g transform="translate(29.52 731.615) scale(0.16 -0.16)">
     <use xlink:href="#DejaVuSans-Oblique-51" transform="translate(0 0.78125)"/>
     <use xlink:href="#DejaVuSans-Oblique-45" transform="translate(78.710938 -15.625) scale(0.7)"/>
     <use xlink:href="#DejaVuSans-31" transform="translate(122.939453 -15.625) scale(0.7)"/>
    </g>
   </g>
   <g id="text_11">
    <!-- $Q_{E2}$ -->
    <g transform="translate(29.52 803.615) scale(0.16 -0.16)">
     <use xlink:href="#DejaVuSans-Oblique-51" transform="translate(0 0.78125)"/>
     <use xlink:href="#DejaVuSans-Oblique-45" transform="translate(78.710938 -15.625) scale(0.7)"/>
     <use xlink:href="#DejaVuSans-32" transform="translate(122.939453 -15.625) scale(0.7)"/>
    </g>
   </g>
   <g id="patch_7">
    <path d="M 439.2 72 
C 441.109462 72 442.940975 72.758637 444.291169 74.108831 
C 445.641363 75.459025 446.4 77.290538 446.4 79.2 
C 446.4 81.109462 445.641363 82.940975 444.291169 84.291169 
C 442.940975 85.641363 441.109462 86.4 439.2 86.4 
C 437.290538 86.4 435.459025 85.641363 434.108831 84.291169 
C 432.758637 82.940975 432 81.109462 432 79.2 
C 432 77.290538 432.758637 75.459025 434.108831 74.108831 
C 435.459025 72.758637 437.290538 72 439.2 72 
z
" clip-path="url(#p48325d455b)" style="stroke: #000000; stroke-width: 3; stroke-linejoin: miter"/>
   </g>
   <g id="patch_8">
    <path d="M 511.2 72 
C 513.109462 72 514.940975 72.758637 516.291169 74.108831 
C 517.641363 75.459025 518.4 77.290538 518.4 79.2 
C 518.4 81.109462 517.641363 82.940975 516.291169 84.291169 
C 514.940975 85.641363 513.109462 86.4 511.2 86.4 
C 509.290538 86.4 507.459025 85.641363 506.108831 84.291169 
C 504.758637 82.940975 504 81.109462 504 79.2 
C 504 77.290538 504.758637 75.459025 506.108831 74.108831 
C 507.459025 72.758637 509.290538 72 511.2 72 
z
" clip-path="url(#p48325d455b)" style="stroke: #000000; stroke-width: 3; stroke-linejoin: miter"/>
   </g>
   <g id="patch_9">
    <path d="M 583.2 72 
C 585.109462 72 586.940975 72.758637 588.291169 74.108831 
C 589.641363 75.459025 590.4 77.290538 590.4 79.2 
C 590.4 81.109462 589.641363 82.940975 588.291169 84.291169 
C 586.940975 85.641363 585.109462 86.4 583.2 86.4 
C 581.290538 86.4 579.459025 85.641363 578.108831 84.291169 
C 576.758637 82.940975 576 81.109462 576 79.2 
C 576 77.290538 576.758637 75.459025 578.108831 74.108831 
C 579.459025 72.758637 581.290538 72 583.2 72 
z
" clip-path="url(#p48325d455b)" style="stroke: #000000; stroke-width: 3; stroke-linejoin: miter"/>
   </g>
   <g id="patch_10">
    <path d="M 655.2 72 
C 657.109462 72 658.940975 72.758637 660.291169 74.108831 
C 661.641363 75.459025 662.4 77.290538 662.4 79.2 
C 662.4 81.109462 661.641363 82.940975 660.291169 84.291169 
C 658.940975 85.641363 657.109462 86.4 655.2 86.4 
C 653.290538 86.4 651.459025 85.641363 650.108831 84.291169 
C 648.758637 82.940975 648 81.109462 648 79.2 
C 648 77.290538 648.758637 75.459025 650.108831 74.108831 
C 651.459025 72.758637 653.290538 72 655.2 72 
z
" clip-path="url(#p48325d455b)" style="stroke: #000000; stroke-width: 3; stroke-linejoin: miter"/>
   </g>
   <g id="patch_11">
    <path d="M 727.2 72 
C 729.109462 72 730.940975 72.758637 732.291169 74.108831 
C 733.641363 75.459025 734.4 77.290538 734.4 79.2 
C 734.4 81.109462 733.641363 82.940975 732.291169 84.291169 
C 730.940975 85.641363 729.109462 86.4 727.2 86.4 
C 725.290538 86.4 723.459025 85.641363 722.108831 84.291169 
C 720.758637 82.940975 720 81.109462 720 79.2 
C 720 77.290538 720.758637 75.459025 722.108831 74.108831 
C 723.459025 72.758637 725.290538 72 727.2 72 
z
" clip-path="url(#p48325d455b)" style="stroke: #000000; stroke-width: 3; stroke-linejoin: miter"/>
   </g>
   <g id="patch_12">
    <path d="M 799.2 144 
C 801.109462 144 802.940975 144.758637 804.291169 146.108831 
C 805.641363 147.459025 806.4 149.290538 806.4 151.2 
C 806.4 153.109462 805.641363 154.940975 804.291169 156.291169 
C 802.940975 157.641363 801.109462 158.4 799.2 158.4 
C 797.290538 158.4 795.459025 157.641363 794.108831 156.291169 
C 792.758637 154.940975 792 153.109462 792 151.2 
C 792 149.290538 792.758637 147.459025 794.108831 146.108831 
C 795.459025 144.758637 797.290538 144 799.2 144 
z
" clip-path="url(#p48325d455b)" style="stroke: #000000; stroke-width: 3; stroke-linejoin: miter"/>
   </g>
   <g id="patch_13">
    <path d="M 871.2 144 
C 873.109462 144 874.940975 144.758637 876.291169 146.108831 
C 877.641363 147.459025 878.4 149.290538 878.4 151.2 
C 878.4 153.109462 877.641363 154.940975 876.291169 156.291169 
C 874.940975 157.641363 873.109462 158.4 871.2 158.4 
C 869.290538 158.4 867.459025 157.641363 866.108831 156.291169 
C 864.758637 154.940975 864 153.109462 864 151.2 
C 864 149.290538 864.758637 147.459025 866.108831 146.108831 
C 867.459025 144.758637 869.290538 144 871.2 144 
z
" clip-path="url(#p48325d455b)" style="stroke: #000000; stroke-width: 3; stroke-linejoin: miter"/>
   </g>
   <g id="patch_14">
    <path d="M 943.2 144 
C 945.109462 144 946.940975 144.758637 948.291169 146.108831 
C 949.641363 147.459025 950.4 149.290538 950.4 151.2 
C 950.4 153.109462 949.641363 154.940975 948.291169 156.291169 
C 946.940975 157.641363 945.109462 158.4 943.2 158.4 
C 941.290538 158.4 939.459025 157.641363 938.108831 156.291169 
C 936.758637 154.940975 936 153.109462 936 151.2 
C 936 149.290538 936.758637 147.459025 938.108831 146.108831 
C 939.459025 144.758637 941.290538 144 943.2 144 
z
" clip-path="url(#p48325d455b)" style="stroke: #000000; stroke-width: 3; stroke-linejoin: miter"/>
   </g>
   <g id="patch_15">
    <path d="M 1015.2 144 
C 1017.109462 144 1018.940975 144.758637 1020.291169 146.108831 
C 1021.641363 147.459025 1022.4 149.290538 1022.4 151.2 
C 1022.4 153.109462 1021.641363 154.940975 1020.291169 156.291169 
C 1018.940975 157.641363 1017.109462 158.4 1015.2 158.4 
C 1013.290538 158.4 1011.459025 157.641363 1010.108831 156.291169 
C 1008.758637 154.940975 1008 153.109462 1008 151.2 
C 1008 149.290538 1008.758637 147.459025 1010.108831 146.108831 
C 1011.459025 144.758637 1013.290538 144 1015.2 144 
z
" clip-path="url(#p48325d455b)" style="stroke: #000000; stroke-width: 3; stroke-linejoin: miter"/>
   </g>
   <g id="patch_16">
    <path d="M 1087.2 144 
C 1089.109462 144 1090.940975 144.758637 1092.291169 146.108831 
C 1093.641363 147.459025 1094.4 149.290538 1094.4 151.2 
C 1094.4 153.109462 1093.641363 154.940975 1092.291169 156.291169 
C 1090.940975 157.641363 1089.109462 158.4 1087.2 158.4 
C 1085.290538 158.4 1083.459025 157.641363 1082.108831 156.291169 
C 1080.758637 154.940975 1080 153.109462 1080 151.2 
C 1080 149.290538 1080.758637 147.459025 1082.108831 146.108831 
C 1083.459025 144.758637 1085.290538 144 1087.2 144 
z
" clip-path="url(#p48325d455b)" style="stroke: #000000; stroke-width: 3; stroke-linejoin: miter"/>
   </g>
   <g id="patch_17">
    <path d="M 1159.2 216 
C 1161.109462 216 1162.940975 216.758637 1164.291169 218.108831 
C 1165.641363 219.459025 1166.4 221.290538 1166.4 223.2 
C 1166.4 225.109462 1165.641363 226.940975 1164.291169 228.291169 
C 1162.940975 229.641363 1161.109462 230.4 1159.2 230.4 
C 1157.290538 230.4 1155.459025 229.641363 1154.108831 228.291169 
C 1152.758637 226.940975 1152 225.109462 1152 223.2 
C 1152 221.290538 1152.758637 219.459025 1154.108831 218.108831 
C 1155.459025 216.758637 1157.290538 216 1159.2 216 
z
" clip-path="url(#p48325d455b)" style="stroke: #000000; stroke-width: 3; stroke-linejoin: miter"/>
   </g>
   <g id="patch_18">
    <path d="M 1231.2 216 
C 1233.109462 216 1234.940975 216.758637 1236.291169 218.108831 
C 1237.641363 219.459025 1238.4 221.290538 1238.4 223.2 
C 1238.4 225.109462 1237.641363 226.940975 1236.291169 228.291169 
C 1234.940975 229.641363 1233.109462 230.4 1231.2 230.4 
C 1229.290538 230.4 1227.459025 229.641363 1226.108831 228.291169 
C 1224.758637 226.940975 1224 225.109462 1224 223.2 
C 1224 221.290538 1224.758637 219.459025 1226.108831 218.108831 
C 1227.459025 216.758637 1229.290538 216 1231.2 216 
z
" clip-path="url(#p48325d455b)" style="stroke: #000000; stroke-width: 3; stroke-linejoin: miter"/>
   </g>
   <g id="patch_19">
    <path d="M 1303.2 216 
C 1305.109462 216 1306.940975 216.758637 1308.291169 218.108831 
C 1309.641363 219.459025 1310.4 221.290538 1310.4 223.2 
C 1310.4 225.109462 1309.641363 226.940975 1308.291169 228.291169 
C 1306.940975 229.641363 1305.109462 230.4 1303.2 230.4 
C 1301.290538 230.4 1299.459025 229.641363 1298.108831 228.291169 
C 1296.758637 226.940975 1296 225.109462 1296 223.2 
C 1296 221.290538 1296.758637 219.459025 1298.108831 218.108831 
C 1299.459025 216.758637 1301.290538 216 1303.2 216 
z
" clip-path="url(#p48325d455b)" style="stroke: #000000; stroke-width: 3; stroke-linejoin: miter"/>
   </g>
   <g id="patch_20">
    <path d="M 1375.2 216 
C 1377.109462 216 1378.940975 216.758637 1380.291169 218.108831 
C 1381.641363 219.459025 1382.4 221.290538 1382.4 223.2 
C 1382.4 225.109462 1381.641363 226.940975 1380.291169 228.291169 
C 1378.940975 229.641363 1377.109462 230.4 1375.2 230.4 
C 1373.290538 230.4 1371.459025 229.641363 1370.108831 228.291169 
C 1368.758637 226.940975 1368 225.109462 1368 223.2 
C 1368 221.290538 1368.758637 219.459025 1370.108831 218.108831 
C 1371.459025 216.758637 1373.290538 216 1375.2 216 
z
" clip-path="url(#p48325d455b)" style="stroke: #000000; stroke-width: 3; stroke-linejoin: miter"/>
   </g>
   <g id="patch_21">
    <path d="M 1447.2 216 
C 1449.109462 216 1450.940975 216.758637 1452.291169 218.108831 
C 1453.641363 219.459025 1454.4 221.290538 1454.4 223.2 
C 1454.4 225.109462 1453.641363 226.940975 1452.291169 228.291169 
C 1450.940975 229.641363 1449.109462 230.4 1447.2 230.4 
C 1445.290538 230.4 1443.459025 229.641363 1442.108831 228.291169 
C 1440.758637 226.940975 1440 225.109462 1440 223.2 
C 1440 221.290538 1440.758637 219.459025 1442.108831 218.108831 
C 1443.459025 216.758637 1445.290538 216 1447.2 216 
z
" clip-path="url(#p48325d455b)" style="stroke: #000000; stroke-width: 3; stroke-linejoin: miter"/>
   </g>
   <g id="patch_22">
    <path d="M 1791 303.3 
C 1791 299.363046 1792.707946 295.583311 1795.74487 292.799464 
C 1798.781794 290.015617 1802.905141 288.45 1807.2 288.45 
C 1811.494859 288.45 1815.618206 290.015617 1818.65513 292.799464 
C 1821.692054 295.583311 1823.4 299.363046 1823.4 303.3 
" clip-path="url(#p48325d455b)" style="fill: none; stroke: #000000; stroke-width: 3; stroke-linejoin: miter"/>
   </g>
   <g id="patch_23">
    <path d="M 1791 375.3 
C 1791 371.363046 1792.707946 367.583311 1795.74487 364.799464 
C 1798.781794 362.015617 1802.905141 360.45 1807.2 360.45 
C 1811.494859 360.45 1815.618206 362.015617 1818.65513 364.799464 
C 1821.692054 367.583311 1823.4 371.363046 1823.4 375.3 
" clip-path="url(#p48325d455b)" style="fill: none; stroke: #000000; stroke-width: 3; stroke-linejoin: miter"/>
   </g>
   <g id="patch_24">
    <path d="M 1791 447.3 
C 1791 443.363046 1792.707946 439.583311 1795.74487 436.799464 
C 1798.781794 434.015617 1802.905141 432.45 1807.2 432.45 
C 1811.494859 432.45 1815.618206 434.015617 1818.65513 436.799464 
C 1821.692054 439.583311 1823.4 443.363046 1823.4 447.3 
" clip-path="url(#p48325d455b)" style="fill: none; stroke: #000000; stroke-width: 3; stroke-linejoin: miter"/>
   </g>
   <g id="patch_25">
    <path d="M 1791 519.3 
C 1791 515.363046 1792.707946 511.583311 1795.74487 508.799464 
C 1798.781794 506.015617 1802.905141 504.45 1807.2 504.45 
C 1811.494859 504.45 1815.618206 506.015617 1818.65513 508.799464 
C 1821.692054 511.583311 1823.4 515.363046 1823.4 519.3 
" clip-path="url(#p48325d455b)" style="fill: none; stroke: #000000; stroke-width: 3; stroke-linejoin: miter"/>
   </g>
   <g id="patch_26">
    <path d="M 1791 591.3 
C 1791 587.363046 1792.707946 583.583311 1795.74487 580.799464 
C 1798.781794 578.015617 1802.905141 576.45 1807.2 576.45 
C 1811.494859 576.45 1815.618206 578.015617 1818.65513 580.799464 
C 1821.692054 583.583311 1823.4 587.363046 1823.4 591.3 
" clip-path="url(#p48325d455b)" style="fill: none; stroke: #000000; stroke-width: 3; stroke-linejoin: miter"/>
   </g>
   <g id="patch_27">
    <path d="M 138.6 268.2 
L 163.8 268.2 
Q 178.2 268.2 178.2 282.6 
L 178.2 307.8 
Q 178.2 322.2 163.8 322.2 
L 138.6 322.2 
Q 124.2 322.2 124.2 307.8 
L 124.2 282.6 
Q 124.2 268.2 138.6 268.2 
z
" clip-path="url(#p48325d455b)" style="fill: #ffffff; stroke: #000000; stroke-width: 3; stroke-linejoin: miter"/>
   </g>
   <g id="patch_28">
    <path d="M 138.6 340.2 
L 163.8 340.2 
Q 178.2 340.2 178.2 354.6 
L 178.2 379.8 
Q 178.2 394.2 163.8 394.2 
L 138.6 394.2 
Q 124.2 394.2 124.2 379.8 
L 124.2 354.6 
Q 124.2 340.2 138.6 340.2 
z
" clip-path="url(#p48325d455b)" style="fill: #ffffff; stroke: #000000; stroke-width: 3; stroke-linejoin: miter"/>
   </g>
   <g id="patch_29">
    <path d="M 138.6 412.2 
L 163.8 412.2 
Q 178.2 412.2 178.2 426.6 
L 178.2 451.8 
Q 178.2 466.2 163.8 466.2 
L 138.6 466.2 
Q 124.2 466.2 124.2 451.8 
L 124.2 426.6 
Q 124.2 412.2 138.6 412.2 
z
" clip-path="url(#p48325d455b)" style="fill: #ffffff; stroke: #000000; stroke-width: 3; stroke-linejoin: miter"/>
   </g>
   <g id="patch_30">
    <path d="M 138.6 484.2 
L 163.8 484.2 
Q 178.2 484.2 178.2 498.6 
L 178.2 523.8 
Q 178.2 538.2 163.8 538.2 
L 138.6 538.2 
Q 124.2 538.2 124.2 523.8 
L 124.2 498.6 
Q 124.2 484.2 138.6 484.2 
z
" clip-path="url(#p48325d455b)" style="fill: #ffffff; stroke: #000000; stroke-width: 3; stroke-linejoin: miter"/>
   </g>
   <g id="patch_31">
    <path d="M 138.6 556.2 
L 163.8 556.2 
Q 178.2 556.2 178.2 570.6 
L 178.2 595.8 
Q 178.2 610.2 163.8 610.2 
L 138.6 610.2 
Q 124.2 610.2 124.2 595.8 
L 124.2 570.6 
Q 124.2 556.2 138.6 556.2 
z
" clip-path="url(#p48325d455b)" style="fill: #ffffff; stroke: #000000; stroke-width: 3; stroke-linejoin: miter"/>
   </g>
   <g id="patch_32">
    <path d="M 138.6 52.2 
L 163.8 52.2 
Q 178.2 52.2 178.2 66.6 
L 178.2 91.8 
Q 178.2 106.2 163.8 106.2 
L 138.6 106.2 
Q 124.2 106.2 124.2 91.8 
L 124.2 66.6 
Q 124.2 52.2 138.6 52.2 
z
" clip-path="url(#p48325d455b)" style="fill: #ffffff; stroke: #000000; stroke-width: 3; stroke-linejoin: miter"/>
   </g>
   <g id="patch_33">
    <path d="M 138.6 124.2 
L 163.8 124.2 
Q 178.2 124.2 178.2 138.6 
L 178.2 163.8 
Q 178.2 178.2 163.8 178.2 
L 138.6 178.2 
Q 124.2 178.2 124.2 163.8 
L 124.2 138.6 
Q 124.2 124.2 138.6 124.2 
z
" clip-path="url(#p48325d455b)" style="fill: #ffffff; stroke: #000000; stroke-width: 3; stroke-linejoin: miter"/>
   </g>
   <g id="patch_34">
    <path d="M 138.6 196.2 
L 163.8 196.2 
Q 178.2 196.2 178.2 210.6 
L 178.2 235.8 
Q 178.2 250.2 163.8 250.2 
L 138.6 250.2 
Q 124.2 250.2 124.2 235.8 
L 124.2 210.6 
Q 124.2 196.2 138.6 196.2 
z
" clip-path="url(#p48325d455b)" style="fill: #ffffff; stroke: #000000; stroke-width: 3; stroke-linejoin: miter"/>
   </g>
   <g id="patch_35">
    <path d="M 282.6 268.2 
L 307.8 268.2 
Q 322.2 268.2 322.2 282.6 
L 322.2 307.8 
Q 322.2 322.2 307.8 322.2 
L 282.6 322.2 
Q 268.2 322.2 268.2 307.8 
L 268.2 282.6 
Q 268.2 268.2 282.6 268.2 
z
" clip-path="url(#p48325d455b)" style="fill: #ffffff; stroke: #000000; stroke-width: 3; stroke-linejoin: miter"/>
   </g>
   <g id="patch_36">
    <path d="M 282.6 340.2 
L 307.8 340.2 
Q 322.2 340.2 322.2 354.6 
L 322.2 379.8 
Q 322.2 394.2 307.8 394.2 
L 282.6 394.2 
Q 268.2 394.2 268.2 379.8 
L 268.2 354.6 
Q 268.2 340.2 282.6 340.2 
z
" clip-path="url(#p48325d455b)" style="fill: #ffffff; stroke: #000000; stroke-width: 3; stroke-linejoin: miter"/>
   </g>
   <g id="patch_37">
    <path d="M 282.6 412.2 
L 307.8 412.2 
Q 322.2 412.2 322.2 426.6 
L 322.2 451.8 
Q 322.2 466.2 307.8 466.2 
L 282.6 466.2 
Q 268.2 466.2 268.2 451.8 
L 268.2 426.6 
Q 268.2 412.2 282.6 412.2 
z
" clip-path="url(#p48325d455b)" style="fill: #ffffff; stroke: #000000; stroke-width: 3; stroke-linejoin: miter"/>
   </g>
   <g id="patch_38">
    <path d="M 282.6 484.2 
L 307.8 484.2 
Q 322.2 484.2 322.2 498.6 
L 322.2 523.8 
Q 322.2 538.2 307.8 538.2 
L 282.6 538.2 
Q 268.2 538.2 268.2 523.8 
L 268.2 498.6 
Q 268.2 484.2 282.6 484.2 
z
" clip-path="url(#p48325d455b)" style="fill: #ffffff; stroke: #000000; stroke-width: 3; stroke-linejoin: miter"/>
   </g>
   <g id="patch_39">
    <path d="M 282.6 556.2 
L 307.8 556.2 
Q 322.2 556.2 322.2 570.6 
L 322.2 595.8 
Q 322.2 610.2 307.8 610.2 
L 282.6 610.2 
Q 268.2 610.2 268.2 595.8 
L 268.2 570.6 
Q 268.2 556.2 282.6 556.2 
z
" clip-path="url(#p48325d455b)" style="fill: #ffffff; stroke: #000000; stroke-width: 3; stroke-linejoin: miter"/>
   </g>
   <g id="patch_40">
    <path d="M 426.6 268.2 
L 451.8 268.2 
Q 466.2 268.2 466.2 282.6 
L 466.2 307.8 
Q 466.2 322.2 451.8 322.2 
L 426.6 322.2 
Q 412.2 322.2 412.2 307.8 
L 412.2 282.6 
Q 412.2 268.2 426.6 268.2 
z
" clip-path="url(#p48325d455b)" style="fill: #ffffff; stroke: #000000; stroke-width: 3; stroke-linejoin: miter"/>
   </g>
   <g id="patch_41">
    <path d="M 498.6 340.2 
L 523.8 340.2 
Q 538.2 340.2 538.2 354.6 
L 538.2 379.8 
Q 538.2 394.2 523.8 394.2 
L 498.6 394.2 
Q 484.2 394.2 484.2 379.8 
L 484.2 354.6 
Q 484.2 340.2 498.6 340.2 
z
" clip-path="url(#p48325d455b)" style="fill: #ffffff; stroke: #000000; stroke-width: 3; stroke-linejoin: miter"/>
   </g>
   <g id="patch_42">
    <path d="M 570.6 412.2 
L 595.8 412.2 
Q 610.2 412.2 610.2 426.6 
L 610.2 451.8 
Q 610.2 466.2 595.8 466.2 
L 570.6 466.2 
Q 556.2 466.2 556.2 451.8 
L 556.2 426.6 
Q 556.2 412.2 570.6 412.2 
z
" clip-path="url(#p48325d455b)" style="fill: #ffffff; stroke: #000000; stroke-width: 3; stroke-linejoin: miter"/>
   </g>
   <g id="patch_43">
    <path d="M 642.6 484.2 
L 667.8 484.2 
Q 682.2 484.2 682.2 498.6 
L 682.2 523.8 
Q 682.2 538.2 667.8 538.2 
L 642.6 538.2 
Q 628.2 538.2 628.2 523.8 
L 628.2 498.6 
Q 628.2 484.2 642.6 484.2 
z
" clip-path="url(#p48325d455b)" style="fill: #ffffff; stroke: #000000; stroke-width: 3; stroke-linejoin: miter"/>
   </g>
   <g id="patch_44">
    <path d="M 714.6 556.2 
L 739.8 556.2 
Q 754.2 556.2 754.2 570.6 
L 754.2 595.8 
Q 754.2 610.2 739.8 610.2 
L 714.6 610.2 
Q 700.2 610.2 700.2 595.8 
L 700.2 570.6 
Q 700.2 556.2 714.6 556.2 
z
" clip-path="url(#p48325d455b)" style="fill: #ffffff; stroke: #000000; stroke-width: 3; stroke-linejoin: miter"/>
   </g>
   <g id="patch_45">
    <path d="M 786.6 268.2 
L 811.8 268.2 
Q 826.2 268.2 826.2 282.6 
L 826.2 307.8 
Q 826.2 322.2 811.8 322.2 
L 786.6 322.2 
Q 772.2 322.2 772.2 307.8 
L 772.2 282.6 
Q 772.2 268.2 786.6 268.2 
z
" clip-path="url(#p48325d455b)" style="fill: #ffffff; stroke: #000000; stroke-width: 3; stroke-linejoin: miter"/>
   </g>
   <g id="patch_46">
    <path d="M 858.6 340.2 
L 883.8 340.2 
Q 898.2 340.2 898.2 354.6 
L 898.2 379.8 
Q 898.2 394.2 883.8 394.2 
L 858.6 394.2 
Q 844.2 394.2 844.2 379.8 
L 844.2 354.6 
Q 844.2 340.2 858.6 340.2 
z
" clip-path="url(#p48325d455b)" style="fill: #ffffff; stroke: #000000; stroke-width: 3; stroke-linejoin: miter"/>
   </g>
   <g id="patch_47">
    <path d="M 930.6 412.2 
L 955.8 412.2 
Q 970.2 412.2 970.2 426.6 
L 970.2 451.8 
Q 970.2 466.2 955.8 466.2 
L 930.6 466.2 
Q 916.2 466.2 916.2 451.8 
L 916.2 426.6 
Q 916.2 412.2 930.6 412.2 
z
" clip-path="url(#p48325d455b)" style="fill: #ffffff; stroke: #000000; stroke-width: 3; stroke-linejoin: miter"/>
   </g>
   <g id="patch_48">
    <path d="M 1002.6 484.2 
L 1027.8 484.2 
Q 1042.2 484.2 1042.2 498.6 
L 1042.2 523.8 
Q 1042.2 538.2 1027.8 538.2 
L 1002.6 538.2 
Q 988.2 538.2 988.2 523.8 
L 988.2 498.6 
Q 988.2 484.2 1002.6 484.2 
z
" clip-path="url(#p48325d455b)" style="fill: #ffffff; stroke: #000000; stroke-width: 3; stroke-linejoin: miter"/>
   </g>
   <g id="patch_49">
    <path d="M 1074.6 556.2 
L 1099.8 556.2 
Q 1114.2 556.2 1114.2 570.6 
L 1114.2 595.8 
Q 1114.2 610.2 1099.8 610.2 
L 1074.6 610.2 
Q 1060.2 610.2 1060.2 595.8 
L 1060.2 570.6 
Q 1060.2 556.2 1074.6 556.2 
z
" clip-path="url(#p48325d455b)" style="fill: #ffffff; stroke: #000000; stroke-width: 3; stroke-linejoin: miter"/>
   </g>
   <g id="patch_50">
    <path d="M 1146.6 268.2 
L 1171.8 268.2 
Q 1186.2 268.2 1186.2 282.6 
L 1186.2 307.8 
Q 1186.2 322.2 1171.8 322.2 
L 1146.6 322.2 
Q 1132.2 322.2 1132.2 307.8 
L 1132.2 282.6 
Q 1132.2 268.2 1146.6 268.2 
z
" clip-path="url(#p48325d455b)" style="fill: #ffffff; stroke: #000000; stroke-width: 3; stroke-linejoin: miter"/>
   </g>
   <g id="patch_51">
    <path d="M 1218.6 340.2 
L 1243.8 340.2 
Q 1258.2 340.2 1258.2 354.6 
L 1258.2 379.8 
Q 1258.2 394.2 1243.8 394.2 
L 1218.6 394.2 
Q 1204.2 394.2 1204.2 379.8 
L 1204.2 354.6 
Q 1204.2 340.2 1218.6 340.2 
z
" clip-path="url(#p48325d455b)" style="fill: #ffffff; stroke: #000000; stroke-width: 3; stroke-linejoin: miter"/>
   </g>
   <g id="patch_52">
    <path d="M 1290.6 412.2 
L 1315.8 412.2 
Q 1330.2 412.2 1330.2 426.6 
L 1330.2 451.8 
Q 1330.2 466.2 1315.8 466.2 
L 1290.6 466.2 
Q 1276.2 466.2 1276.2 451.8 
L 1276.2 426.6 
Q 1276.2 412.2 1290.6 412.2 
z
" clip-path="url(#p48325d455b)" style="fill: #ffffff; stroke: #000000; stroke-width: 3; stroke-linejoin: miter"/>
   </g>
   <g id="patch_53">
    <path d="M 1362.6 484.2 
L 1387.8 484.2 
Q 1402.2 484.2 1402.2 498.6 
L 1402.2 523.8 
Q 1402.2 538.2 1387.8 538.2 
L 1362.6 538.2 
Q 1348.2 538.2 1348.2 523.8 
L 1348.2 498.6 
Q 1348.2 484.2 1362.6 484.2 
z
" clip-path="url(#p48325d455b)" style="fill: #ffffff; stroke: #000000; stroke-width: 3; stroke-linejoin: miter"/>
   </g>
   <g id="patch_54">
    <path d="M 1434.6 556.2 
L 1459.8 556.2 
Q 1474.2 556.2 1474.2 570.6 
L 1474.2 595.8 
Q 1474.2 610.2 1459.8 610.2 
L 1434.6 610.2 
Q 1420.2 610.2 1420.2 595.8 
L 1420.2 570.6 
Q 1420.2 556.2 1434.6 556.2 
z
" clip-path="url(#p48325d455b)" style="fill: #ffffff; stroke: #000000; stroke-width: 3; stroke-linejoin: miter"/>
   </g>
   <g id="patch_55">
    <path d="M 1578.6 268.2 
L 1603.8 268.2 
Q 1618.2 268.2 1618.2 282.6 
L 1618.2 811.8 
Q 1618.2 826.2 1603.8 826.2 
L 1578.6 826.2 
Q 1564.2 826.2 1564.2 811.8 
L 1564.2 282.6 
Q 1564.2 268.2 1578.6 268.2 
z
" clip-path="url(#p48325d455b)" style="fill: #ffffff; stroke: #000000; stroke-width: 3; stroke-linejoin: miter"/>
   </g>
   <g id="patch_56">
    <path d="M 1722.6 268.2 
L 1747.8 268.2 
Q 1762.2 268.2 1762.2 282.6 
L 1762.2 811.8 
Q 1762.2 826.2 1747.8 826.2 
L 1722.6 826.2 
Q 1708.2 826.2 1708.2 811.8 
L 1708.2 282.6 
Q 1708.2 268.2 1722.6 268.2 
z
" clip-path="url(#p48325d455b)" style="fill: #ffffff; stroke: #000000; stroke-width: 3; stroke-linejoin: miter"/>
   </g>
   <g id="patch_57">
    <path d="M 1820.50927 275.717884 
L 1812.405961 282.663577 
L 1815.26913 284.381478 
L 1799.06913 311.381478 
L 1799.13087 311.418522 
L 1815.33087 284.418522 
L 1818.194039 286.136423 
z
" clip-path="url(#p48325d455b)" style="fill: #ffffff; stroke: #000000; stroke-width: 3; stroke-linejoin: miter"/>
   </g>
   <g id="patch_58">
    <path d="M 1820.50927 347.717884 
L 1812.405961 354.663577 
L 1815.26913 356.381478 
L 1799.06913 383.381478 
L 1799.13087 383.418522 
L 1815.33087 356.418522 
L 1818.194039 358.136423 
z
" clip-path="url(#p48325d455b)" style="fill: #ffffff; stroke: #000000; stroke-width: 3; stroke-linejoin: miter"/>
   </g>
   <g id="patch_59">
    <path d="M 1820.50927 419.717884 
L 1812.405961 426.663577 
L 1815.26913 428.381478 
L 1799.06913 455.381478 
L 1799.13087 455.418522 
L 1815.33087 428.418522 
L 1818.194039 430.136423 
z
" clip-path="url(#p48325d455b)" style="fill: #ffffff; stroke: #000000; stroke-width: 3; stroke-linejoin: miter"/>
   </g>
   <g id="patch_60">
    <path d="M 1820.50927 491.717884 
L 1812.405961 498.663577 
L 1815.26913 500.381478 
L 1799.06913 527.381478 
L 1799.13087 527.418522 
L 1815.33087 500.418522 
L 1818.194039 502.136423 
z
" clip-path="url(#p48325d455b)" style="fill: #ffffff; stroke: #000000; stroke-width: 3; stroke-linejoin: miter"/>
   </g>
   <g id="patch_61">
    <path d="M 1820.50927 563.717884 
L 1812.405961 570.663577 
L 1815.26913 572.381478 
L 1799.06913 599.381478 
L 1799.13087 599.418522 
L 1815.33087 572.418522 
L 1818.194039 574.136423 
z
" clip-path="url(#p48325d455b)" style="fill: #ffffff; stroke: #000000; stroke-width: 3; stroke-linejoin: miter"/>
   </g>
   <g id="text_12">
    <!-- RX -->
    <g transform="translate(140.16125 290.65675) scale(0.16 -0.16)">
     <defs>
      <path id="DejaVuSans-52" d="M 2841 2188 
Q 3044 2119 3236 1894 
Q 3428 1669 3622 1275 
L 4263 0 
L 3584 0 
L 2988 1197 
Q 2756 1666 2539 1819 
Q 2322 1972 1947 1972 
L 1259 1972 
L 1259 0 
L 628 0 
L 628 4666 
L 2053 4666 
Q 2853 4666 3247 4331 
Q 3641 3997 3641 3322 
Q 3641 2881 3436 2590 
Q 3231 2300 2841 2188 
z
M 1259 4147 
L 1259 2491 
L 2053 2491 
Q 2509 2491 2742 2702 
Q 2975 2913 2975 3322 
Q 2975 3731 2742 3939 
Q 2509 4147 2053 4147 
L 1259 4147 
z
" transform="scale(0.015625)"/>
      <path id="DejaVuSans-58" d="M 403 4666 
L 1081 4666 
L 2241 2931 
L 3406 4666 
L 4084 4666 
L 2584 2425 
L 4184 0 
L 3506 0 
L 2194 1984 
L 872 0 
L 191 0 
L 1856 2491 
L 403 4666 
z
" transform="scale(0.015625)"/>
     </defs>
     <use xlink:href="#DejaVuSans-52"/>
     <use xlink:href="#DejaVuSans-58" transform="translate(69.482422 0)"/>
    </g>
    <!-- ($\pi$) -->
    <g transform="translate(140.08 308.57325) scale(0.16 -0.16)">
     <defs>
      <path id="DejaVuSans-28" d="M 1984 4856 
Q 1566 4138 1362 3434 
Q 1159 2731 1159 2009 
Q 1159 1288 1364 580 
Q 1569 -128 1984 -844 
L 1484 -844 
Q 1016 -109 783 600 
Q 550 1309 550 2009 
Q 550 2706 781 3412 
Q 1013 4119 1484 4856 
L 1984 4856 
z
" transform="scale(0.015625)"/>
      <path id="DejaVuSans-Oblique-3c0" d="M 584 3500 
L 3938 3500 
L 3825 2925 
L 3384 2925 
L 2966 775 
Q 2922 550 2981 450 
Q 3038 353 3209 353 
Q 3256 353 3325 363 
Q 3397 369 3419 372 
L 3338 -44 
Q 3222 -84 3103 -103 
Q 2981 -122 2866 -122 
Q 2491 -122 2388 81 
Q 2284 288 2391 838 
L 2797 2925 
L 1506 2925 
L 938 0 
L 350 0 
L 919 2925 
L 472 2925 
L 584 3500 
z
" transform="scale(0.015625)"/>
      <path id="DejaVuSans-29" d="M 513 4856 
L 1013 4856 
Q 1481 4119 1714 3412 
Q 1947 2706 1947 2009 
Q 1947 1309 1714 600 
Q 1481 -109 1013 -844 
L 513 -844 
Q 928 -128 1133 580 
Q 1338 1288 1338 2009 
Q 1338 2731 1133 3434 
Q 928 4138 513 4856 
z
" transform="scale(0.015625)"/>
     </defs>
     <use xlink:href="#DejaVuSans-28" transform="translate(0 0.125)"/>
     <use xlink:href="#DejaVuSans-Oblique-3c0" transform="translate(39.013672 0.125)"/>
     <use xlink:href="#DejaVuSans-29" transform="translate(99.21875 0.125)"/>
    </g>
   </g>
   <g id="text_13">
    <!-- RX -->
    <g transform="translate(140.16125 362.65675) scale(0.16 -0.16)">
     <use xlink:href="#DejaVuSans-52"/>
     <use xlink:href="#DejaVuSans-58" transform="translate(69.482422 0)"/>
    </g>
    <!-- (0) -->
    <g transform="translate(139.8675 380.57325) scale(0.16 -0.16)">
     <use xlink:href="#DejaVuSans-28"/>
     <use xlink:href="#DejaVuSans-30" transform="translate(39.013672 0)"/>
     <use xlink:href="#DejaVuSans-29" transform="translate(102.636719 0)"/>
    </g>
   </g>
   <g id="text_14">
    <!-- RX -->
    <g transform="translate(140.16125 434.65675) scale(0.16 -0.16)">
     <use xlink:href="#DejaVuSans-52"/>
     <use xlink:href="#DejaVuSans-58" transform="translate(69.482422 0)"/>
    </g>
    <!-- ($\pi$) -->
    <g transform="translate(140.08 452.57325) scale(0.16 -0.16)">
     <use xlink:href="#DejaVuSans-28" transform="translate(0 0.125)"/>
     <use xlink:href="#DejaVuSans-Oblique-3c0" transform="translate(39.013672 0.125)"/>
     <use xlink:href="#DejaVuSans-29" transform="translate(99.21875 0.125)"/>
    </g>
   </g>
   <g id="text_15">
    <!-- RX -->
    <g transform="translate(140.16125 506.65675) scale(0.16 -0.16)">
     <use xlink:href="#DejaVuSans-52"/>
     <use xlink:href="#DejaVuSans-58" transform="translate(69.482422 0)"/>
    </g>
    <!-- (0) -->
    <g transform="translate(139.8675 524.57325) scale(0.16 -0.16)">
     <use xlink:href="#DejaVuSans-28"/>
     <use xlink:href="#DejaVuSans-30" transform="translate(39.013672 0)"/>
     <use xlink:href="#DejaVuSans-29" transform="translate(102.636719 0)"/>
    </g>
   </g>
   <g id="text_16">
    <!-- RX -->
    <g transform="translate(140.16125 578.65675) scale(0.16 -0.16)">
     <use xlink:href="#DejaVuSans-52"/>
     <use xlink:href="#DejaVuSans-58" transform="translate(69.482422 0)"/>
    </g>
    <!-- ($\pi$) -->
    <g transform="translate(140.08 596.57325) scale(0.16 -0.16)">
     <use xlink:href="#DejaVuSans-28" transform="translate(0 0.125)"/>
     <use xlink:href="#DejaVuSans-Oblique-3c0" transform="translate(39.013672 0.125)"/>
     <use xlink:href="#DejaVuSans-29" transform="translate(99.21875 0.125)"/>
    </g>
   </g>
   <g id="text_17">
    <!-- RY -->
    <g transform="translate(141.265 74.639) scale(0.16 -0.16)">
     <defs>
      <path id="DejaVuSans-59" d="M -13 4666 
L 666 4666 
L 1959 2747 
L 3244 4666 
L 3922 4666 
L 2272 2222 
L 2272 0 
L 1638 0 
L 1638 2222 
L -13 4666 
z
" transform="scale(0.015625)"/>
     </defs>
     <use xlink:href="#DejaVuSans-52"/>
     <use xlink:href="#DejaVuSans-59" transform="translate(63.107422 0)"/>
    </g>
    <!-- ($\phi(v_1)$) -->
    <g transform="translate(124.88 92.5585) scale(0.16 -0.16)">
     <defs>
      <path id="DejaVuSans-Oblique-3d5" d="M 2991 4863 
L 2738 3572 
Q 3363 3572 3684 3094 
Q 4016 2606 3850 1747 
Q 3681 888 3159 400 
Q 2653 -78 2028 -78 
L 1784 -1331 
L 1213 -1331 
L 1456 -78 
Q 834 -78 509 400 
Q 178 888 347 1747 
Q 513 2606 1034 3094 
Q 1544 3572 2166 3572 
L 2419 4863 
L 2991 4863 
z
M 2128 434 
Q 2481 434 2784 756 
Q 3116 1116 3244 1747 
Q 3369 2372 3169 2738 
Q 2991 3059 2638 3059 
L 2128 434 
z
M 1556 434 
L 2066 3059 
Q 1716 3059 1413 2738 
Q 1072 2372 953 1747 
Q 834 1116 1028 756 
Q 1203 434 1556 434 
z
" transform="scale(0.015625)"/>
      <path id="DejaVuSans-Oblique-76" d="M 459 3500 
L 1069 3500 
L 1581 525 
L 3256 3500 
L 3866 3500 
L 1875 0 
L 1100 0 
L 459 3500 
z
" transform="scale(0.015625)"/>
     </defs>
     <use xlink:href="#DejaVuSans-28" transform="translate(0 0.015625)"/>
     <use xlink:href="#DejaVuSans-Oblique-3d5" transform="translate(39.013672 0.015625)"/>
     <use xlink:href="#DejaVuSans-28" transform="translate(104.980469 0.015625)"/>
     <use xlink:href="#DejaVuSans-Oblique-76" transform="translate(143.994141 0.015625)"/>
     <use xlink:href="#DejaVuSans-31" transform="translate(203.173828 -16.390625) scale(0.7)"/>
     <use xlink:href="#DejaVuSans-29" transform="translate(250.444336 0.015625)"/>
     <use xlink:href="#DejaVuSans-29" transform="translate(289.458008 0.015625)"/>
    </g>
   </g>
   <g id="text_18">
    <!-- RY -->
    <g transform="translate(141.265 146.639) scale(0.16 -0.16)">
     <use xlink:href="#DejaVuSans-52"/>
     <use xlink:href="#DejaVuSans-59" transform="translate(63.107422 0)"/>
    </g>
    <!-- ($\phi(v_2)$) -->
    <g transform="translate(124.88 164.5585) scale(0.16 -0.16)">
     <use xlink:href="#DejaVuSans-28" transform="translate(0 0.015625)"/>
     <use xlink:href="#DejaVuSans-Oblique-3d5" transform="translate(39.013672 0.015625)"/>
     <use xlink:href="#DejaVuSans-28" transform="translate(104.980469 0.015625)"/>
     <use xlink:href="#DejaVuSans-Oblique-76" transform="translate(143.994141 0.015625)"/>
     <use xlink:href="#DejaVuSans-32" transform="translate(203.173828 -16.390625) scale(0.7)"/>
     <use xlink:href="#DejaVuSans-29" transform="translate(250.444336 0.015625)"/>
     <use xlink:href="#DejaVuSans-29" transform="translate(289.458008 0.015625)"/>
    </g>
   </g>
   <g id="text_19">
    <!-- RY -->
    <g transform="translate(141.265 218.639) scale(0.16 -0.16)">
     <use xlink:href="#DejaVuSans-52"/>
     <use xlink:href="#DejaVuSans-59" transform="translate(63.107422 0)"/>
    </g>
    <!-- ($\phi(v_3)$) -->
    <g transform="translate(124.88 236.5585) scale(0.16 -0.16)">
     <use xlink:href="#DejaVuSans-28" transform="translate(0 0.015625)"/>
     <use xlink:href="#DejaVuSans-Oblique-3d5" transform="translate(39.013672 0.015625)"/>
     <use xlink:href="#DejaVuSans-28" transform="translate(104.980469 0.015625)"/>
     <use xlink:href="#DejaVuSans-Oblique-76" transform="translate(143.994141 0.015625)"/>
     <use xlink:href="#DejaVuSans-33" transform="translate(203.173828 -16.390625) scale(0.7)"/>
     <use xlink:href="#DejaVuSans-29" transform="translate(250.444336 0.015625)"/>
     <use xlink:href="#DejaVuSans-29" transform="translate(289.458008 0.015625)"/>
    </g>
   </g>
   <g id="text_20">
    <!-- RY -->
    <g transform="translate(285.265 290.65675) scale(0.16 -0.16)">
     <use xlink:href="#DejaVuSans-52"/>
     <use xlink:href="#DejaVuSans-59" transform="translate(63.107422 0)"/>
    </g>
    <!-- ($h_{0}$) -->
    <g transform="translate(280.08 308.57325) scale(0.16 -0.16)">
     <defs>
      <path id="DejaVuSans-Oblique-68" d="M 3566 2113 
L 3156 0 
L 2578 0 
L 2988 2091 
Q 3016 2238 3031 2350 
Q 3047 2463 3047 2528 
Q 3047 2791 2881 2937 
Q 2716 3084 2419 3084 
Q 1956 3084 1617 2771 
Q 1278 2459 1178 1941 
L 800 0 
L 225 0 
L 1172 4863 
L 1747 4863 
L 1375 2950 
Q 1594 3244 1934 3414 
Q 2275 3584 2650 3584 
Q 3113 3584 3367 3334 
Q 3622 3084 3622 2631 
Q 3622 2519 3608 2391 
Q 3594 2263 3566 2113 
z
" transform="scale(0.015625)"/>
     </defs>
     <use xlink:href="#DejaVuSans-28" transform="translate(0 0.015625)"/>
     <use xlink:href="#DejaVuSans-Oblique-68" transform="translate(39.013672 0.015625)"/>
     <use xlink:href="#DejaVuSans-30" transform="translate(102.392578 -16.390625) scale(0.7)"/>
     <use xlink:href="#DejaVuSans-29" transform="translate(149.663086 0.015625)"/>
    </g>
   </g>
   <g id="text_21">
    <!-- RY -->
    <g transform="translate(285.265 362.65675) scale(0.16 -0.16)">
     <use xlink:href="#DejaVuSans-52"/>
     <use xlink:href="#DejaVuSans-59" transform="translate(63.107422 0)"/>
    </g>
    <!-- ($h_{1}$) -->
    <g transform="translate(280.08 380.57325) scale(0.16 -0.16)">
     <use xlink:href="#DejaVuSans-28" transform="translate(0 0.015625)"/>
     <use xlink:href="#DejaVuSans-Oblique-68" transform="translate(39.013672 0.015625)"/>
     <use xlink:href="#DejaVuSans-31" transform="translate(102.392578 -16.390625) scale(0.7)"/>
     <use xlink:href="#DejaVuSans-29" transform="translate(149.663086 0.015625)"/>
    </g>
   </g>
   <g id="text_22">
    <!-- RY -->
    <g transform="translate(285.265 434.65675) scale(0.16 -0.16)">
     <use xlink:href="#DejaVuSans-52"/>
     <use xlink:href="#DejaVuSans-59" transform="translate(63.107422 0)"/>
    </g>
    <!-- ($h_{2}$) -->
    <g transform="translate(280.08 452.57325) scale(0.16 -0.16)">
     <use xlink:href="#DejaVuSans-28" transform="translate(0 0.015625)"/>
     <use xlink:href="#DejaVuSans-Oblique-68" transform="translate(39.013672 0.015625)"/>
     <use xlink:href="#DejaVuSans-32" transform="translate(102.392578 -16.390625) scale(0.7)"/>
     <use xlink:href="#DejaVuSans-29" transform="translate(149.663086 0.015625)"/>
    </g>
   </g>
   <g id="text_23">
    <!-- RY -->
    <g transform="translate(285.265 506.65675) scale(0.16 -0.16)">
     <use xlink:href="#DejaVuSans-52"/>
     <use xlink:href="#DejaVuSans-59" transform="translate(63.107422 0)"/>
    </g>
    <!-- ($h_{3}$) -->
    <g transform="translate(280.08 524.57325) scale(0.16 -0.16)">
     <use xlink:href="#DejaVuSans-28" transform="translate(0 0.015625)"/>
     <use xlink:href="#DejaVuSans-Oblique-68" transform="translate(39.013672 0.015625)"/>
     <use xlink:href="#DejaVuSans-33" transform="translate(102.392578 -16.390625) scale(0.7)"/>
     <use xlink:href="#DejaVuSans-29" transform="translate(149.663086 0.015625)"/>
    </g>
   </g>
   <g id="text_24">
    <!-- RY -->
    <g transform="translate(285.265 578.65675) scale(0.16 -0.16)">
     <use xlink:href="#DejaVuSans-52"/>
     <use xlink:href="#DejaVuSans-59" transform="translate(63.107422 0)"/>
    </g>
    <!-- ($h_{4}$) -->
    <g transform="translate(280.08 596.57325) scale(0.16 -0.16)">
     <use xlink:href="#DejaVuSans-28" transform="translate(0 0.015625)"/>
     <use xlink:href="#DejaVuSans-Oblique-68" transform="translate(39.013672 0.015625)"/>
     <use xlink:href="#DejaVuSans-34" transform="translate(102.392578 -16.390625) scale(0.7)"/>
     <use xlink:href="#DejaVuSans-29" transform="translate(149.663086 0.015625)"/>
    </g>
   </g>
   <g id="text_25">
    <!-- RX -->
    <g transform="translate(428.16125 290.239) scale(0.16 -0.16)">
     <use xlink:href="#DejaVuSans-52"/>
     <use xlink:href="#DejaVuSans-58" transform="translate(69.482422 0)"/>
    </g>
    <!-- ($\gamma_{(0, 0)}$) -->
    <g transform="translate(413.6 308.1585) scale(0.16 -0.16)">
     <defs>
      <path id="DejaVuSans-Oblique-3b3" d="M 1491 2950 
L 1838 788 
L 3456 3500 
L 4066 3500 
L 1972 0 
L 1713 -1331 
L 1138 -1331 
L 1397 0 
L 988 2613 
Q 925 3006 628 3006 
L 475 3006 
L 569 3500 
L 788 3500 
Q 1403 3500 1491 2950 
z
" transform="scale(0.015625)"/>
      <path id="DejaVuSans-2c" d="M 750 794 
L 1409 794 
L 1409 256 
L 897 -744 
L 494 -744 
L 750 256 
L 750 794 
z
" transform="scale(0.015625)"/>
     </defs>
     <use xlink:href="#DejaVuSans-28" transform="translate(0 0.125)"/>
     <use xlink:href="#DejaVuSans-Oblique-3b3" transform="translate(39.013672 0.125)"/>
     <use xlink:href="#DejaVuSans-28" transform="translate(98.193359 -16.28125) scale(0.7)"/>
     <use xlink:href="#DejaVuSans-30" transform="translate(125.50293 -16.28125) scale(0.7)"/>
     <use xlink:href="#DejaVuSans-2c" transform="translate(170.039062 -16.28125) scale(0.7)"/>
     <use xlink:href="#DejaVuSans-30" transform="translate(205.927734 -16.28125) scale(0.7)"/>
     <use xlink:href="#DejaVuSans-29" transform="translate(250.463867 -16.28125) scale(0.7)"/>
     <use xlink:href="#DejaVuSans-29" transform="translate(280.507812 0.125)"/>
    </g>
   </g>
   <g id="text_26">
    <!-- RX -->
    <g transform="translate(500.16125 362.239) scale(0.16 -0.16)">
     <use xlink:href="#DejaVuSans-52"/>
     <use xlink:href="#DejaVuSans-58" transform="translate(69.482422 0)"/>
    </g>
    <!-- ($\gamma_{(0, 1)}$) -->
    <g transform="translate(485.6 380.1585) scale(0.16 -0.16)">
     <use xlink:href="#DejaVuSans-28" transform="translate(0 0.125)"/>
     <use xlink:href="#DejaVuSans-Oblique-3b3" transform="translate(39.013672 0.125)"/>
     <use xlink:href="#DejaVuSans-28" transform="translate(98.193359 -16.28125) scale(0.7)"/>
     <use xlink:href="#DejaVuSans-30" transform="translate(125.50293 -16.28125) scale(0.7)"/>
     <use xlink:href="#DejaVuSans-2c" transform="translate(170.039062 -16.28125) scale(0.7)"/>
     <use xlink:href="#DejaVuSans-31" transform="translate(205.927734 -16.28125) scale(0.7)"/>
     <use xlink:href="#DejaVuSans-29" transform="translate(250.463867 -16.28125) scale(0.7)"/>
     <use xlink:href="#DejaVuSans-29" transform="translate(280.507812 0.125)"/>
    </g>
   </g>
   <g id="text_27">
    <!-- RX -->
    <g transform="translate(572.16125 434.239) scale(0.16 -0.16)">
     <use xlink:href="#DejaVuSans-52"/>
     <use xlink:href="#DejaVuSans-58" transform="translate(69.482422 0)"/>
    </g>
    <!-- ($\gamma_{(0, 2)}$) -->
    <g transform="translate(557.6 452.1585) scale(0.16 -0.16)">
     <use xlink:href="#DejaVuSans-28" transform="translate(0 0.125)"/>
     <use xlink:href="#DejaVuSans-Oblique-3b3" transform="translate(39.013672 0.125)"/>
     <use xlink:href="#DejaVuSans-28" transform="translate(98.193359 -16.28125) scale(0.7)"/>
     <use xlink:href="#DejaVuSans-30" transform="translate(125.50293 -16.28125) scale(0.7)"/>
     <use xlink:href="#DejaVuSans-2c" transform="translate(170.039062 -16.28125) scale(0.7)"/>
     <use xlink:href="#DejaVuSans-32" transform="translate(205.927734 -16.28125) scale(0.7)"/>
     <use xlink:href="#DejaVuSans-29" transform="translate(250.463867 -16.28125) scale(0.7)"/>
     <use xlink:href="#DejaVuSans-29" transform="translate(280.507812 0.125)"/>
    </g>
   </g>
   <g id="text_28">
    <!-- RX -->
    <g transform="translate(644.16125 506.239) scale(0.16 -0.16)">
     <use xlink:href="#DejaVuSans-52"/>
     <use xlink:href="#DejaVuSans-58" transform="translate(69.482422 0)"/>
    </g>
    <!-- ($\gamma_{(0, 3)}$) -->
    <g transform="translate(629.6 524.1585) scale(0.16 -0.16)">
     <use xlink:href="#DejaVuSans-28" transform="translate(0 0.125)"/>
     <use xlink:href="#DejaVuSans-Oblique-3b3" transform="translate(39.013672 0.125)"/>
     <use xlink:href="#DejaVuSans-28" transform="translate(98.193359 -16.28125) scale(0.7)"/>
     <use xlink:href="#DejaVuSans-30" transform="translate(125.50293 -16.28125) scale(0.7)"/>
     <use xlink:href="#DejaVuSans-2c" transform="translate(170.039062 -16.28125) scale(0.7)"/>
     <use xlink:href="#DejaVuSans-33" transform="translate(205.927734 -16.28125) scale(0.7)"/>
     <use xlink:href="#DejaVuSans-29" transform="translate(250.463867 -16.28125) scale(0.7)"/>
     <use xlink:href="#DejaVuSans-29" transform="translate(280.507812 0.125)"/>
    </g>
   </g>
   <g id="text_29">
    <!-- RX -->
    <g transform="translate(716.16125 578.239) scale(0.16 -0.16)">
     <use xlink:href="#DejaVuSans-52"/>
     <use xlink:href="#DejaVuSans-58" transform="translate(69.482422 0)"/>
    </g>
    <!-- ($\gamma_{(0, 4)}$) -->
    <g transform="translate(701.6 596.1585) scale(0.16 -0.16)">
     <use xlink:href="#DejaVuSans-28" transform="translate(0 0.125)"/>
     <use xlink:href="#DejaVuSans-Oblique-3b3" transform="translate(39.013672 0.125)"/>
     <use xlink:href="#DejaVuSans-28" transform="translate(98.193359 -16.28125) scale(0.7)"/>
     <use xlink:href="#DejaVuSans-30" transform="translate(125.50293 -16.28125) scale(0.7)"/>
     <use xlink:href="#DejaVuSans-2c" transform="translate(170.039062 -16.28125) scale(0.7)"/>
     <use xlink:href="#DejaVuSans-34" transform="translate(205.927734 -16.28125) scale(0.7)"/>
     <use xlink:href="#DejaVuSans-29" transform="translate(250.463867 -16.28125) scale(0.7)"/>
     <use xlink:href="#DejaVuSans-29" transform="translate(280.507812 0.125)"/>
    </g>
   </g>
   <g id="text_30">
    <!-- RX -->
    <g transform="translate(788.16125 290.239) scale(0.16 -0.16)">
     <use xlink:href="#DejaVuSans-52"/>
     <use xlink:href="#DejaVuSans-58" transform="translate(69.482422 0)"/>
    </g>
    <!-- ($\gamma_{(1, 0)}$) -->
    <g transform="translate(773.6 308.1585) scale(0.16 -0.16)">
     <use xlink:href="#DejaVuSans-28" transform="translate(0 0.125)"/>
     <use xlink:href="#DejaVuSans-Oblique-3b3" transform="translate(39.013672 0.125)"/>
     <use xlink:href="#DejaVuSans-28" transform="translate(98.193359 -16.28125) scale(0.7)"/>
     <use xlink:href="#DejaVuSans-31" transform="translate(125.50293 -16.28125) scale(0.7)"/>
     <use xlink:href="#DejaVuSans-2c" transform="translate(170.039062 -16.28125) scale(0.7)"/>
     <use xlink:href="#DejaVuSans-30" transform="translate(205.927734 -16.28125) scale(0.7)"/>
     <use xlink:href="#DejaVuSans-29" transform="translate(250.463867 -16.28125) scale(0.7)"/>
     <use xlink:href="#DejaVuSans-29" transform="translate(280.507812 0.125)"/>
    </g>
   </g>
   <g id="text_31">
    <!-- RX -->
    <g transform="translate(860.16125 362.239) scale(0.16 -0.16)">
     <use xlink:href="#DejaVuSans-52"/>
     <use xlink:href="#DejaVuSans-58" transform="translate(69.482422 0)"/>
    </g>
    <!-- ($\gamma_{(1, 1)}$) -->
    <g transform="translate(845.6 380.1585) scale(0.16 -0.16)">
     <use xlink:href="#DejaVuSans-28" transform="translate(0 0.125)"/>
     <use xlink:href="#DejaVuSans-Oblique-3b3" transform="translate(39.013672 0.125)"/>
     <use xlink:href="#DejaVuSans-28" transform="translate(98.193359 -16.28125) scale(0.7)"/>
     <use xlink:href="#DejaVuSans-31" transform="translate(125.50293 -16.28125) scale(0.7)"/>
     <use xlink:href="#DejaVuSans-2c" transform="translate(170.039062 -16.28125) scale(0.7)"/>
     <use xlink:href="#DejaVuSans-31" transform="translate(205.927734 -16.28125) scale(0.7)"/>
     <use xlink:href="#DejaVuSans-29" transform="translate(250.463867 -16.28125) scale(0.7)"/>
     <use xlink:href="#DejaVuSans-29" transform="translate(280.507812 0.125)"/>
    </g>
   </g>
   <g id="text_32">
    <!-- RX -->
    <g transform="translate(932.16125 434.239) scale(0.16 -0.16)">
     <use xlink:href="#DejaVuSans-52"/>
     <use xlink:href="#DejaVuSans-58" transform="translate(69.482422 0)"/>
    </g>
    <!-- ($\gamma_{(1, 2)}$) -->
    <g transform="translate(917.6 452.1585) scale(0.16 -0.16)">
     <use xlink:href="#DejaVuSans-28" transform="translate(0 0.125)"/>
     <use xlink:href="#DejaVuSans-Oblique-3b3" transform="translate(39.013672 0.125)"/>
     <use xlink:href="#DejaVuSans-28" transform="translate(98.193359 -16.28125) scale(0.7)"/>
     <use xlink:href="#DejaVuSans-31" transform="translate(125.50293 -16.28125) scale(0.7)"/>
     <use xlink:href="#DejaVuSans-2c" transform="translate(170.039062 -16.28125) scale(0.7)"/>
     <use xlink:href="#DejaVuSans-32" transform="translate(205.927734 -16.28125) scale(0.7)"/>
     <use xlink:href="#DejaVuSans-29" transform="translate(250.463867 -16.28125) scale(0.7)"/>
     <use xlink:href="#DejaVuSans-29" transform="translate(280.507812 0.125)"/>
    </g>
   </g>
   <g id="text_33">
    <!-- RX -->
    <g transform="translate(1004.16125 506.239) scale(0.16 -0.16)">
     <use xlink:href="#DejaVuSans-52"/>
     <use xlink:href="#DejaVuSans-58" transform="translate(69.482422 0)"/>
    </g>
    <!-- ($\gamma_{(1, 3)}$) -->
    <g transform="translate(989.6 524.1585) scale(0.16 -0.16)">
     <use xlink:href="#DejaVuSans-28" transform="translate(0 0.125)"/>
     <use xlink:href="#DejaVuSans-Oblique-3b3" transform="translate(39.013672 0.125)"/>
     <use xlink:href="#DejaVuSans-28" transform="translate(98.193359 -16.28125) scale(0.7)"/>
     <use xlink:href="#DejaVuSans-31" transform="translate(125.50293 -16.28125) scale(0.7)"/>
     <use xlink:href="#DejaVuSans-2c" transform="translate(170.039062 -16.28125) scale(0.7)"/>
     <use xlink:href="#DejaVuSans-33" transform="translate(205.927734 -16.28125) scale(0.7)"/>
     <use xlink:href="#DejaVuSans-29" transform="translate(250.463867 -16.28125) scale(0.7)"/>
     <use xlink:href="#DejaVuSans-29" transform="translate(280.507812 0.125)"/>
    </g>
   </g>
   <g id="text_34">
    <!-- RX -->
    <g transform="translate(1076.16125 578.239) scale(0.16 -0.16)">
     <use xlink:href="#DejaVuSans-52"/>
     <use xlink:href="#DejaVuSans-58" transform="translate(69.482422 0)"/>
    </g>
    <!-- ($\gamma_{(1, 4)}$) -->
    <g transform="translate(1061.6 596.1585) scale(0.16 -0.16)">
     <use xlink:href="#DejaVuSans-28" transform="translate(0 0.125)"/>
     <use xlink:href="#DejaVuSans-Oblique-3b3" transform="translate(39.013672 0.125)"/>
     <use xlink:href="#DejaVuSans-28" transform="translate(98.193359 -16.28125) scale(0.7)"/>
     <use xlink:href="#DejaVuSans-31" transform="translate(125.50293 -16.28125) scale(0.7)"/>
     <use xlink:href="#DejaVuSans-2c" transform="translate(170.039062 -16.28125) scale(0.7)"/>
     <use xlink:href="#DejaVuSans-34" transform="translate(205.927734 -16.28125) scale(0.7)"/>
     <use xlink:href="#DejaVuSans-29" transform="translate(250.463867 -16.28125) scale(0.7)"/>
     <use xlink:href="#DejaVuSans-29" transform="translate(280.507812 0.125)"/>
    </g>
   </g>
   <g id="text_35">
    <!-- RX -->
    <g transform="translate(1148.16125 290.239) scale(0.16 -0.16)">
     <use xlink:href="#DejaVuSans-52"/>
     <use xlink:href="#DejaVuSans-58" transform="translate(69.482422 0)"/>
    </g>
    <!-- ($\gamma_{(2, 0)}$) -->
    <g transform="translate(1133.6 308.1585) scale(0.16 -0.16)">
     <use xlink:href="#DejaVuSans-28" transform="translate(0 0.125)"/>
     <use xlink:href="#DejaVuSans-Oblique-3b3" transform="translate(39.013672 0.125)"/>
     <use xlink:href="#DejaVuSans-28" transform="translate(98.193359 -16.28125) scale(0.7)"/>
     <use xlink:href="#DejaVuSans-32" transform="translate(125.50293 -16.28125) scale(0.7)"/>
     <use xlink:href="#DejaVuSans-2c" transform="translate(170.039062 -16.28125) scale(0.7)"/>
     <use xlink:href="#DejaVuSans-30" transform="translate(205.927734 -16.28125) scale(0.7)"/>
     <use xlink:href="#DejaVuSans-29" transform="translate(250.463867 -16.28125) scale(0.7)"/>
     <use xlink:href="#DejaVuSans-29" transform="translate(280.507812 0.125)"/>
    </g>
   </g>
   <g id="text_36">
    <!-- RX -->
    <g transform="translate(1220.16125 362.239) scale(0.16 -0.16)">
     <use xlink:href="#DejaVuSans-52"/>
     <use xlink:href="#DejaVuSans-58" transform="translate(69.482422 0)"/>
    </g>
    <!-- ($\gamma_{(2, 1)}$) -->
    <g transform="translate(1205.6 380.1585) scale(0.16 -0.16)">
     <use xlink:href="#DejaVuSans-28" transform="translate(0 0.125)"/>
     <use xlink:href="#DejaVuSans-Oblique-3b3" transform="translate(39.013672 0.125)"/>
     <use xlink:href="#DejaVuSans-28" transform="translate(98.193359 -16.28125) scale(0.7)"/>
     <use xlink:href="#DejaVuSans-32" transform="translate(125.50293 -16.28125) scale(0.7)"/>
     <use xlink:href="#DejaVuSans-2c" transform="translate(170.039062 -16.28125) scale(0.7)"/>
     <use xlink:href="#DejaVuSans-31" transform="translate(205.927734 -16.28125) scale(0.7)"/>
     <use xlink:href="#DejaVuSans-29" transform="translate(250.463867 -16.28125) scale(0.7)"/>
     <use xlink:href="#DejaVuSans-29" transform="translate(280.507812 0.125)"/>
    </g>
   </g>
   <g id="text_37">
    <!-- RX -->
    <g transform="translate(1292.16125 434.239) scale(0.16 -0.16)">
     <use xlink:href="#DejaVuSans-52"/>
     <use xlink:href="#DejaVuSans-58" transform="translate(69.482422 0)"/>
    </g>
    <!-- ($\gamma_{(2, 2)}$) -->
    <g transform="translate(1277.6 452.1585) scale(0.16 -0.16)">
     <use xlink:href="#DejaVuSans-28" transform="translate(0 0.125)"/>
     <use xlink:href="#DejaVuSans-Oblique-3b3" transform="translate(39.013672 0.125)"/>
     <use xlink:href="#DejaVuSans-28" transform="translate(98.193359 -16.28125) scale(0.7)"/>
     <use xlink:href="#DejaVuSans-32" transform="translate(125.50293 -16.28125) scale(0.7)"/>
     <use xlink:href="#DejaVuSans-2c" transform="translate(170.039062 -16.28125) scale(0.7)"/>
     <use xlink:href="#DejaVuSans-32" transform="translate(205.927734 -16.28125) scale(0.7)"/>
     <use xlink:href="#DejaVuSans-29" transform="translate(250.463867 -16.28125) scale(0.7)"/>
     <use xlink:href="#DejaVuSans-29" transform="translate(280.507812 0.125)"/>
    </g>
   </g>
   <g id="text_38">
    <!-- RX -->
    <g transform="translate(1364.16125 506.239) scale(0.16 -0.16)">
     <use xlink:href="#DejaVuSans-52"/>
     <use xlink:href="#DejaVuSans-58" transform="translate(69.482422 0)"/>
    </g>
    <!-- ($\gamma_{(2, 3)}$) -->
    <g transform="translate(1349.6 524.1585) scale(0.16 -0.16)">
     <use xlink:href="#DejaVuSans-28" transform="translate(0 0.125)"/>
     <use xlink:href="#DejaVuSans-Oblique-3b3" transform="translate(39.013672 0.125)"/>
     <use xlink:href="#DejaVuSans-28" transform="translate(98.193359 -16.28125) scale(0.7)"/>
     <use xlink:href="#DejaVuSans-32" transform="translate(125.50293 -16.28125) scale(0.7)"/>
     <use xlink:href="#DejaVuSans-2c" transform="translate(170.039062 -16.28125) scale(0.7)"/>
     <use xlink:href="#DejaVuSans-33" transform="translate(205.927734 -16.28125) scale(0.7)"/>
     <use xlink:href="#DejaVuSans-29" transform="translate(250.463867 -16.28125) scale(0.7)"/>
     <use xlink:href="#DejaVuSans-29" transform="translate(280.507812 0.125)"/>
    </g>
   </g>
   <g id="text_39">
    <!-- RX -->
    <g transform="translate(1436.16125 578.239) scale(0.16 -0.16)">
     <use xlink:href="#DejaVuSans-52"/>
     <use xlink:href="#DejaVuSans-58" transform="translate(69.482422 0)"/>
    </g>
    <!-- ($\gamma_{(2, 4)}$) -->
    <g transform="translate(1421.6 596.1585) scale(0.16 -0.16)">
     <use xlink:href="#DejaVuSans-28" transform="translate(0 0.125)"/>
     <use xlink:href="#DejaVuSans-Oblique-3b3" transform="translate(39.013672 0.125)"/>
     <use xlink:href="#DejaVuSans-28" transform="translate(98.193359 -16.28125) scale(0.7)"/>
     <use xlink:href="#DejaVuSans-32" transform="translate(125.50293 -16.28125) scale(0.7)"/>
     <use xlink:href="#DejaVuSans-2c" transform="translate(170.039062 -16.28125) scale(0.7)"/>
     <use xlink:href="#DejaVuSans-34" transform="translate(205.927734 -16.28125) scale(0.7)"/>
     <use xlink:href="#DejaVuSans-29" transform="translate(250.463867 -16.28125) scale(0.7)"/>
     <use xlink:href="#DejaVuSans-29" transform="translate(280.507812 0.125)"/>
    </g>
   </g>
   <g id="text_40">
    <!-- StronglyEntanglingLayers -->
    <g transform="translate(1595.615 649.905) rotate(-90) scale(0.16 -0.16)">
     <defs>
      <path id="DejaVuSans-53" d="M 3425 4513 
L 3425 3897 
Q 3066 4069 2747 4153 
Q 2428 4238 2131 4238 
Q 1616 4238 1336 4038 
Q 1056 3838 1056 3469 
Q 1056 3159 1242 3001 
Q 1428 2844 1947 2747 
L 2328 2669 
Q 3034 2534 3370 2195 
Q 3706 1856 3706 1288 
Q 3706 609 3251 259 
Q 2797 -91 1919 -91 
Q 1588 -91 1214 -16 
Q 841 59 441 206 
L 441 856 
Q 825 641 1194 531 
Q 1563 422 1919 422 
Q 2459 422 2753 634 
Q 3047 847 3047 1241 
Q 3047 1584 2836 1778 
Q 2625 1972 2144 2069 
L 1759 2144 
Q 1053 2284 737 2584 
Q 422 2884 422 3419 
Q 422 4038 858 4394 
Q 1294 4750 2059 4750 
Q 2388 4750 2728 4690 
Q 3069 4631 3425 4513 
z
" transform="scale(0.015625)"/>
      <path id="DejaVuSans-74" d="M 1172 4494 
L 1172 3500 
L 2356 3500 
L 2356 3053 
L 1172 3053 
L 1172 1153 
Q 1172 725 1289 603 
Q 1406 481 1766 481 
L 2356 481 
L 2356 0 
L 1766 0 
Q 1100 0 847 248 
Q 594 497 594 1153 
L 594 3053 
L 172 3053 
L 172 3500 
L 594 3500 
L 594 4494 
L 1172 4494 
z
" transform="scale(0.015625)"/>
      <path id="DejaVuSans-72" d="M 2631 2963 
Q 2534 3019 2420 3045 
Q 2306 3072 2169 3072 
Q 1681 3072 1420 2755 
Q 1159 2438 1159 1844 
L 1159 0 
L 581 0 
L 581 3500 
L 1159 3500 
L 1159 2956 
Q 1341 3275 1631 3429 
Q 1922 3584 2338 3584 
Q 2397 3584 2469 3576 
Q 2541 3569 2628 3553 
L 2631 2963 
z
" transform="scale(0.015625)"/>
      <path id="DejaVuSans-6f" d="M 1959 3097 
Q 1497 3097 1228 2736 
Q 959 2375 959 1747 
Q 959 1119 1226 758 
Q 1494 397 1959 397 
Q 2419 397 2687 759 
Q 2956 1122 2956 1747 
Q 2956 2369 2687 2733 
Q 2419 3097 1959 3097 
z
M 1959 3584 
Q 2709 3584 3137 3096 
Q 3566 2609 3566 1747 
Q 3566 888 3137 398 
Q 2709 -91 1959 -91 
Q 1206 -91 779 398 
Q 353 888 353 1747 
Q 353 2609 779 3096 
Q 1206 3584 1959 3584 
z
" transform="scale(0.015625)"/>
      <path id="DejaVuSans-6e" d="M 3513 2113 
L 3513 0 
L 2938 0 
L 2938 2094 
Q 2938 2591 2744 2837 
Q 2550 3084 2163 3084 
Q 1697 3084 1428 2787 
Q 1159 2491 1159 1978 
L 1159 0 
L 581 0 
L 581 3500 
L 1159 3500 
L 1159 2956 
Q 1366 3272 1645 3428 
Q 1925 3584 2291 3584 
Q 2894 3584 3203 3211 
Q 3513 2838 3513 2113 
z
" transform="scale(0.015625)"/>
      <path id="DejaVuSans-67" d="M 2906 1791 
Q 2906 2416 2648 2759 
Q 2391 3103 1925 3103 
Q 1463 3103 1205 2759 
Q 947 2416 947 1791 
Q 947 1169 1205 825 
Q 1463 481 1925 481 
Q 2391 481 2648 825 
Q 2906 1169 2906 1791 
z
M 3481 434 
Q 3481 -459 3084 -895 
Q 2688 -1331 1869 -1331 
Q 1566 -1331 1297 -1286 
Q 1028 -1241 775 -1147 
L 775 -588 
Q 1028 -725 1275 -790 
Q 1522 -856 1778 -856 
Q 2344 -856 2625 -561 
Q 2906 -266 2906 331 
L 2906 616 
Q 2728 306 2450 153 
Q 2172 0 1784 0 
Q 1141 0 747 490 
Q 353 981 353 1791 
Q 353 2603 747 3093 
Q 1141 3584 1784 3584 
Q 2172 3584 2450 3431 
Q 2728 3278 2906 2969 
L 2906 3500 
L 3481 3500 
L 3481 434 
z
" transform="scale(0.015625)"/>
      <path id="DejaVuSans-6c" d="M 603 4863 
L 1178 4863 
L 1178 0 
L 603 0 
L 603 4863 
z
" transform="scale(0.015625)"/>
      <path id="DejaVuSans-79" d="M 2059 -325 
Q 1816 -950 1584 -1140 
Q 1353 -1331 966 -1331 
L 506 -1331 
L 506 -850 
L 844 -850 
Q 1081 -850 1212 -737 
Q 1344 -625 1503 -206 
L 1606 56 
L 191 3500 
L 800 3500 
L 1894 763 
L 2988 3500 
L 3597 3500 
L 2059 -325 
z
" transform="scale(0.015625)"/>
      <path id="DejaVuSans-45" d="M 628 4666 
L 3578 4666 
L 3578 4134 
L 1259 4134 
L 1259 2753 
L 3481 2753 
L 3481 2222 
L 1259 2222 
L 1259 531 
L 3634 531 
L 3634 0 
L 628 0 
L 628 4666 
z
" transform="scale(0.015625)"/>
      <path id="DejaVuSans-61" d="M 2194 1759 
Q 1497 1759 1228 1600 
Q 959 1441 959 1056 
Q 959 750 1161 570 
Q 1363 391 1709 391 
Q 2188 391 2477 730 
Q 2766 1069 2766 1631 
L 2766 1759 
L 2194 1759 
z
M 3341 1997 
L 3341 0 
L 2766 0 
L 2766 531 
Q 2569 213 2275 61 
Q 1981 -91 1556 -91 
Q 1019 -91 701 211 
Q 384 513 384 1019 
Q 384 1609 779 1909 
Q 1175 2209 1959 2209 
L 2766 2209 
L 2766 2266 
Q 2766 2663 2505 2880 
Q 2244 3097 1772 3097 
Q 1472 3097 1187 3025 
Q 903 2953 641 2809 
L 641 3341 
Q 956 3463 1253 3523 
Q 1550 3584 1831 3584 
Q 2591 3584 2966 3190 
Q 3341 2797 3341 1997 
z
" transform="scale(0.015625)"/>
      <path id="DejaVuSans-69" d="M 603 3500 
L 1178 3500 
L 1178 0 
L 603 0 
L 603 3500 
z
M 603 4863 
L 1178 4863 
L 1178 4134 
L 603 4134 
L 603 4863 
z
" transform="scale(0.015625)"/>
      <path id="DejaVuSans-4c" d="M 628 4666 
L 1259 4666 
L 1259 531 
L 3531 531 
L 3531 0 
L 628 0 
L 628 4666 
z
" transform="scale(0.015625)"/>
      <path id="DejaVuSans-65" d="M 3597 1894 
L 3597 1613 
L 953 1613 
Q 991 1019 1311 708 
Q 1631 397 2203 397 
Q 2534 397 2845 478 
Q 3156 559 3463 722 
L 3463 178 
Q 3153 47 2828 -22 
Q 2503 -91 2169 -91 
Q 1331 -91 842 396 
Q 353 884 353 1716 
Q 353 2575 817 3079 
Q 1281 3584 2069 3584 
Q 2775 3584 3186 3129 
Q 3597 2675 3597 1894 
z
M 3022 2063 
Q 3016 2534 2758 2815 
Q 2500 3097 2075 3097 
Q 1594 3097 1305 2825 
Q 1016 2553 972 2059 
L 3022 2063 
z
" transform="scale(0.015625)"/>
      <path id="DejaVuSans-73" d="M 2834 3397 
L 2834 2853 
Q 2591 2978 2328 3040 
Q 2066 3103 1784 3103 
Q 1356 3103 1142 2972 
Q 928 2841 928 2578 
Q 928 2378 1081 2264 
Q 1234 2150 1697 2047 
L 1894 2003 
Q 2506 1872 2764 1633 
Q 3022 1394 3022 966 
Q 3022 478 2636 193 
Q 2250 -91 1575 -91 
Q 1294 -91 989 -36 
Q 684 19 347 128 
L 347 722 
Q 666 556 975 473 
Q 1284 391 1588 391 
Q 1994 391 2212 530 
Q 2431 669 2431 922 
Q 2431 1156 2273 1281 
Q 2116 1406 1581 1522 
L 1381 1569 
Q 847 1681 609 1914 
Q 372 2147 372 2553 
Q 372 3047 722 3315 
Q 1072 3584 1716 3584 
Q 2034 3584 2315 3537 
Q 2597 3491 2834 3397 
z
" transform="scale(0.015625)"/>
     </defs>
     <use xlink:href="#DejaVuSans-53"/>
     <use xlink:href="#DejaVuSans-74" transform="translate(63.476562 0)"/>
     <use xlink:href="#DejaVuSans-72" transform="translate(102.685547 0)"/>
     <use xlink:href="#DejaVuSans-6f" transform="translate(141.548828 0)"/>
     <use xlink:href="#DejaVuSans-6e" transform="translate(202.730469 0)"/>
     <use xlink:href="#DejaVuSans-67" transform="translate(266.109375 0)"/>
     <use xlink:href="#DejaVuSans-6c" transform="translate(329.585938 0)"/>
     <use xlink:href="#DejaVuSans-79" transform="translate(357.369141 0)"/>
     <use xlink:href="#DejaVuSans-45" transform="translate(416.548828 0)"/>
     <use xlink:href="#DejaVuSans-6e" transform="translate(479.732422 0)"/>
     <use xlink:href="#DejaVuSans-74" transform="translate(543.111328 0)"/>
     <use xlink:href="#DejaVuSans-61" transform="translate(582.320312 0)"/>
     <use xlink:href="#DejaVuSans-6e" transform="translate(643.599609 0)"/>
     <use xlink:href="#DejaVuSans-67" transform="translate(706.978516 0)"/>
     <use xlink:href="#DejaVuSans-6c" transform="translate(770.455078 0)"/>
     <use xlink:href="#DejaVuSans-69" transform="translate(798.238281 0)"/>
     <use xlink:href="#DejaVuSans-6e" transform="translate(826.021484 0)"/>
     <use xlink:href="#DejaVuSans-67" transform="translate(889.400391 0)"/>
     <use xlink:href="#DejaVuSans-4c" transform="translate(952.876953 0)"/>
     <use xlink:href="#DejaVuSans-61" transform="translate(1008.589844 0)"/>
     <use xlink:href="#DejaVuSans-79" transform="translate(1069.869141 0)"/>
     <use xlink:href="#DejaVuSans-65" transform="translate(1129.048828 0)"/>
     <use xlink:href="#DejaVuSans-72" transform="translate(1190.572266 0)"/>
     <use xlink:href="#DejaVuSans-73" transform="translate(1231.685547 0)"/>
    </g>
   </g>
   <g id="text_41">
    <!-- Hamiltonian-Driven -->
    <g transform="translate(1730.65675 624.9375) rotate(-90) scale(0.16 -0.16)">
     <defs>
      <path id="DejaVuSans-48" d="M 628 4666 
L 1259 4666 
L 1259 2753 
L 3553 2753 
L 3553 4666 
L 4184 4666 
L 4184 0 
L 3553 0 
L 3553 2222 
L 1259 2222 
L 1259 0 
L 628 0 
L 628 4666 
z
" transform="scale(0.015625)"/>
      <path id="DejaVuSans-6d" d="M 3328 2828 
Q 3544 3216 3844 3400 
Q 4144 3584 4550 3584 
Q 5097 3584 5394 3201 
Q 5691 2819 5691 2113 
L 5691 0 
L 5113 0 
L 5113 2094 
Q 5113 2597 4934 2840 
Q 4756 3084 4391 3084 
Q 3944 3084 3684 2787 
Q 3425 2491 3425 1978 
L 3425 0 
L 2847 0 
L 2847 2094 
Q 2847 2600 2669 2842 
Q 2491 3084 2119 3084 
Q 1678 3084 1418 2786 
Q 1159 2488 1159 1978 
L 1159 0 
L 581 0 
L 581 3500 
L 1159 3500 
L 1159 2956 
Q 1356 3278 1631 3431 
Q 1906 3584 2284 3584 
Q 2666 3584 2933 3390 
Q 3200 3197 3328 2828 
z
" transform="scale(0.015625)"/>
      <path id="DejaVuSans-2d" d="M 313 2009 
L 1997 2009 
L 1997 1497 
L 313 1497 
L 313 2009 
z
" transform="scale(0.015625)"/>
      <path id="DejaVuSans-44" d="M 1259 4147 
L 1259 519 
L 2022 519 
Q 2988 519 3436 956 
Q 3884 1394 3884 2338 
Q 3884 3275 3436 3711 
Q 2988 4147 2022 4147 
L 1259 4147 
z
M 628 4666 
L 1925 4666 
Q 3281 4666 3915 4102 
Q 4550 3538 4550 2338 
Q 4550 1131 3912 565 
Q 3275 0 1925 0 
L 628 0 
L 628 4666 
z
" transform="scale(0.015625)"/>
      <path id="DejaVuSans-76" d="M 191 3500 
L 800 3500 
L 1894 563 
L 2988 3500 
L 3597 3500 
L 2284 0 
L 1503 0 
L 191 3500 
z
" transform="scale(0.015625)"/>
     </defs>
     <use xlink:href="#DejaVuSans-48"/>
     <use xlink:href="#DejaVuSans-61" transform="translate(75.195312 0)"/>
     <use xlink:href="#DejaVuSans-6d" transform="translate(136.474609 0)"/>
     <use xlink:href="#DejaVuSans-69" transform="translate(233.886719 0)"/>
     <use xlink:href="#DejaVuSans-6c" transform="translate(261.669922 0)"/>
     <use xlink:href="#DejaVuSans-74" transform="translate(289.453125 0)"/>
     <use xlink:href="#DejaVuSans-6f" transform="translate(328.662109 0)"/>
     <use xlink:href="#DejaVuSans-6e" transform="translate(389.84375 0)"/>
     <use xlink:href="#DejaVuSans-69" transform="translate(453.222656 0)"/>
     <use xlink:href="#DejaVuSans-61" transform="translate(481.005859 0)"/>
     <use xlink:href="#DejaVuSans-6e" transform="translate(542.285156 0)"/>
     <use xlink:href="#DejaVuSans-2d" transform="translate(605.664062 0)"/>
     <use xlink:href="#DejaVuSans-44" transform="translate(641.748047 0)"/>
     <use xlink:href="#DejaVuSans-72" transform="translate(718.75 0)"/>
     <use xlink:href="#DejaVuSans-69" transform="translate(759.863281 0)"/>
     <use xlink:href="#DejaVuSans-76" transform="translate(787.646484 0)"/>
     <use xlink:href="#DejaVuSans-65" transform="translate(846.826172 0)"/>
     <use xlink:href="#DejaVuSans-6e" transform="translate(908.349609 0)"/>
    </g>
    <!-- Evolution -->
    <g transform="translate(1748.57325 584.50125) rotate(-90) scale(0.16 -0.16)">
     <defs>
      <path id="DejaVuSans-75" d="M 544 1381 
L 544 3500 
L 1119 3500 
L 1119 1403 
Q 1119 906 1312 657 
Q 1506 409 1894 409 
Q 2359 409 2629 706 
Q 2900 1003 2900 1516 
L 2900 3500 
L 3475 3500 
L 3475 0 
L 2900 0 
L 2900 538 
Q 2691 219 2414 64 
Q 2138 -91 1772 -91 
Q 1169 -91 856 284 
Q 544 659 544 1381 
z
M 1991 3584 
L 1991 3584 
z
" transform="scale(0.015625)"/>
     </defs>
     <use xlink:href="#DejaVuSans-45"/>
     <use xlink:href="#DejaVuSans-76" transform="translate(63.183594 0)"/>
     <use xlink:href="#DejaVuSans-6f" transform="translate(122.363281 0)"/>
     <use xlink:href="#DejaVuSans-6c" transform="translate(183.544922 0)"/>
     <use xlink:href="#DejaVuSans-75" transform="translate(211.328125 0)"/>
     <use xlink:href="#DejaVuSans-74" transform="translate(274.707031 0)"/>
     <use xlink:href="#DejaVuSans-69" transform="translate(313.916016 0)"/>
     <use xlink:href="#DejaVuSans-6f" transform="translate(341.699219 0)"/>
     <use xlink:href="#DejaVuSans-6e" transform="translate(402.880859 0)"/>
    </g>
   </g>
  </g>
 </g>
 <defs>
  <clipPath id="p48325d455b">
   <rect x="7.2" y="7.2" width="1872" height="864"/>
  </clipPath>
 </defs>
</svg>
