<svg xmlns="http://www.w3.org/2000/svg" xmlns:rdkit="http://www.rdkit.org/xml" xmlns:xlink="http://www.w3.org/1999/xlink" version="1.1" baseProfile="full" xml:space="preserve" width="900px" height="300px" viewBox="0 0 900 300">
<!-- END OF HEADER -->
<rect style="opacity:1.0;fill:#FFFFFF;stroke:none" width="300.0" height="300.0" x="0.0" y="0.0"> </rect>
<path class="bond-0 atom-0 atom-1" d="M 37.4,93.6 L 47.8,104.4" style="fill:none;fill-rule:evenodd;stroke:#FF0000;stroke-width:2.0px;stroke-linecap:butt;stroke-linejoin:miter;stroke-opacity:1"/>
<path class="bond-0 atom-0 atom-1" d="M 47.8,104.4 L 58.2,115.2" style="fill:none;fill-rule:evenodd;stroke:#000000;stroke-width:2.0px;stroke-linecap:butt;stroke-linejoin:miter;stroke-opacity:1"/>
<path class="bond-1 atom-1 atom-2" d="M 58.2,115.2 L 96.2,105.7" style="fill:none;fill-rule:evenodd;stroke:#000000;stroke-width:2.0px;stroke-linecap:butt;stroke-linejoin:miter;stroke-opacity:1"/>
<path class="bond-2 atom-2 atom-3" d="M 96.2,105.7 L 123.4,133.9" style="fill:none;fill-rule:evenodd;stroke:#000000;stroke-width:2.0px;stroke-linecap:butt;stroke-linejoin:miter;stroke-opacity:1"/>
<path class="bond-3 atom-3 atom-4" d="M 121.0,131.4 L 116.4,147.6" style="fill:none;fill-rule:evenodd;stroke:#000000;stroke-width:2.0px;stroke-linecap:butt;stroke-linejoin:miter;stroke-opacity:1"/>
<path class="bond-3 atom-3 atom-4" d="M 116.4,147.6 L 111.8,163.8" style="fill:none;fill-rule:evenodd;stroke:#FF0000;stroke-width:2.0px;stroke-linecap:butt;stroke-linejoin:miter;stroke-opacity:1"/>
<path class="bond-3 atom-3 atom-4" d="M 126.7,133.0 L 122.0,149.2" style="fill:none;fill-rule:evenodd;stroke:#000000;stroke-width:2.0px;stroke-linecap:butt;stroke-linejoin:miter;stroke-opacity:1"/>
<path class="bond-3 atom-3 atom-4" d="M 122.0,149.2 L 117.4,165.4" style="fill:none;fill-rule:evenodd;stroke:#FF0000;stroke-width:2.0px;stroke-linecap:butt;stroke-linejoin:miter;stroke-opacity:1"/>
<path class="bond-4 atom-3 atom-5" d="M 123.4,133.9 L 161.4,124.4" style="fill:none;fill-rule:evenodd;stroke:#000000;stroke-width:2.0px;stroke-linecap:butt;stroke-linejoin:miter;stroke-opacity:1"/>
<path class="bond-5 atom-5 atom-6" d="M 161.4,124.4 L 172.1,86.8" style="fill:none;fill-rule:evenodd;stroke:#000000;stroke-width:2.0px;stroke-linecap:butt;stroke-linejoin:miter;stroke-opacity:1"/>
<path class="bond-5 atom-5 atom-6" d="M 167.9,122.7 L 176.9,91.6" style="fill:none;fill-rule:evenodd;stroke:#000000;stroke-width:2.0px;stroke-linecap:butt;stroke-linejoin:miter;stroke-opacity:1"/>
<path class="bond-6 atom-6 atom-7" d="M 172.1,86.8 L 210.1,77.3" style="fill:none;fill-rule:evenodd;stroke:#000000;stroke-width:2.0px;stroke-linecap:butt;stroke-linejoin:miter;stroke-opacity:1"/>
<path class="bond-7 atom-7 atom-8" d="M 210.1,77.3 L 237.3,105.4" style="fill:none;fill-rule:evenodd;stroke:#000000;stroke-width:2.0px;stroke-linecap:butt;stroke-linejoin:miter;stroke-opacity:1"/>
<path class="bond-7 atom-7 atom-8" d="M 208.3,83.8 L 230.7,107.1" style="fill:none;fill-rule:evenodd;stroke:#000000;stroke-width:2.0px;stroke-linecap:butt;stroke-linejoin:miter;stroke-opacity:1"/>
<path class="bond-8 atom-8 atom-9" d="M 237.3,105.4 L 253.8,101.3" style="fill:none;fill-rule:evenodd;stroke:#000000;stroke-width:2.0px;stroke-linecap:butt;stroke-linejoin:miter;stroke-opacity:1"/>
<path class="bond-8 atom-8 atom-9" d="M 253.8,101.3 L 270.2,97.2" style="fill:none;fill-rule:evenodd;stroke:#7F4C19;stroke-width:2.0px;stroke-linecap:butt;stroke-linejoin:miter;stroke-opacity:1"/>
<path class="bond-9 atom-8 atom-10" d="M 237.3,105.4 L 226.5,143.1" style="fill:none;fill-rule:evenodd;stroke:#000000;stroke-width:2.0px;stroke-linecap:butt;stroke-linejoin:miter;stroke-opacity:1"/>
<path class="bond-10 atom-10 atom-11" d="M 226.5,143.1 L 188.6,152.5" style="fill:none;fill-rule:evenodd;stroke:#000000;stroke-width:2.0px;stroke-linecap:butt;stroke-linejoin:miter;stroke-opacity:1"/>
<path class="bond-10 atom-10 atom-11" d="M 221.8,138.2 L 190.4,146.0" style="fill:none;fill-rule:evenodd;stroke:#000000;stroke-width:2.0px;stroke-linecap:butt;stroke-linejoin:miter;stroke-opacity:1"/>
<path class="bond-11 atom-11 atom-12" d="M 188.6,152.5 L 184.2,167.9" style="fill:none;fill-rule:evenodd;stroke:#000000;stroke-width:2.0px;stroke-linecap:butt;stroke-linejoin:miter;stroke-opacity:1"/>
<path class="bond-11 atom-11 atom-12" d="M 184.2,167.9 L 179.7,183.3" style="fill:none;fill-rule:evenodd;stroke:#A01EEF;stroke-width:2.0px;stroke-linecap:butt;stroke-linejoin:miter;stroke-opacity:1"/>
<path class="bond-12 atom-11 atom-5" d="M 188.6,152.5 L 161.4,124.4" style="fill:none;fill-rule:evenodd;stroke:#000000;stroke-width:2.0px;stroke-linecap:butt;stroke-linejoin:miter;stroke-opacity:1"/>
<path d="M 57.7,114.6 L 58.2,115.2 L 60.1,114.7" style="fill:none;stroke:#000000;stroke-width:2.0px;stroke-linecap:butt;stroke-linejoin:miter;stroke-miterlimit:10;stroke-opacity:1;"/>
<path d="M 94.3,106.2 L 96.2,105.7 L 97.6,107.1" style="fill:none;stroke:#000000;stroke-width:2.0px;stroke-linecap:butt;stroke-linejoin:miter;stroke-miterlimit:10;stroke-opacity:1;"/>
<path d="M 122.0,132.4 L 123.4,133.9 L 125.3,133.4" style="fill:none;stroke:#000000;stroke-width:2.0px;stroke-linecap:butt;stroke-linejoin:miter;stroke-miterlimit:10;stroke-opacity:1;"/>
<path d="M 171.6,88.6 L 172.1,86.8 L 174.0,86.3" style="fill:none;stroke:#000000;stroke-width:2.0px;stroke-linecap:butt;stroke-linejoin:miter;stroke-miterlimit:10;stroke-opacity:1;"/>
<path d="M 208.2,77.8 L 210.1,77.3 L 211.5,78.7" style="fill:none;stroke:#000000;stroke-width:2.0px;stroke-linecap:butt;stroke-linejoin:miter;stroke-miterlimit:10;stroke-opacity:1;"/>
<path d="M 227.1,141.2 L 226.5,143.1 L 224.6,143.5" style="fill:none;stroke:#000000;stroke-width:2.0px;stroke-linecap:butt;stroke-linejoin:miter;stroke-miterlimit:10;stroke-opacity:1;"/>
<path class="atom-0" d="M 15.0 81.6 L 16.5 81.6 L 16.5 86.3 L 22.2 86.3 L 22.2 81.6 L 23.7 81.6 L 23.7 92.6 L 22.2 92.6 L 22.2 87.5 L 16.5 87.5 L 16.5 92.6 L 15.0 92.6 L 15.0 81.6 " fill="#FF0000"/>
<path class="atom-0" d="M 25.9 87.1 Q 25.9 84.4, 27.3 82.9 Q 28.6 81.4, 31.0 81.4 Q 33.5 81.4, 34.8 82.9 Q 36.1 84.4, 36.1 87.1 Q 36.1 89.8, 34.8 91.3 Q 33.5 92.8, 31.0 92.8 Q 28.6 92.8, 27.3 91.3 Q 25.9 89.8, 25.9 87.1 M 31.0 91.6 Q 32.7 91.6, 33.6 90.4 Q 34.6 89.3, 34.6 87.1 Q 34.6 84.9, 33.6 83.8 Q 32.7 82.7, 31.0 82.7 Q 29.3 82.7, 28.4 83.8 Q 27.5 84.9, 27.5 87.1 Q 27.5 89.3, 28.4 90.4 Q 29.3 91.6, 31.0 91.6 " fill="#FF0000"/>
<path class="atom-4" d="M 107.5 171.5 Q 107.5 168.9, 108.8 167.4 Q 110.2 165.9, 112.6 165.9 Q 115.1 165.9, 116.4 167.4 Q 117.7 168.9, 117.7 171.5 Q 117.7 174.2, 116.4 175.7 Q 115.0 177.3, 112.6 177.3 Q 110.2 177.3, 108.8 175.7 Q 107.5 174.2, 107.5 171.5 M 112.6 176.0 Q 114.3 176.0, 115.2 174.9 Q 116.1 173.7, 116.1 171.5 Q 116.1 169.3, 115.2 168.2 Q 114.3 167.1, 112.6 167.1 Q 110.9 167.1, 110.0 168.2 Q 109.1 169.3, 109.1 171.5 Q 109.1 173.8, 110.0 174.9 Q 110.9 176.0, 112.6 176.0 " fill="#FF0000"/>
<path class="atom-9" d="M 276.9 95.7 Q 278.0 96.0, 278.5 96.6 Q 279.1 97.3, 279.1 98.2 Q 279.1 99.8, 278.1 100.6 Q 277.1 101.5, 275.2 101.5 L 271.5 101.5 L 271.5 90.4 L 274.8 90.4 Q 276.7 90.4, 277.6 91.2 Q 278.6 91.9, 278.6 93.4 Q 278.6 95.0, 276.9 95.7 M 273.0 91.7 L 273.0 95.1 L 274.8 95.1 Q 275.9 95.1, 276.5 94.7 Q 277.0 94.2, 277.0 93.4 Q 277.0 91.7, 274.8 91.7 L 273.0 91.7 M 275.2 100.2 Q 276.3 100.2, 276.9 99.7 Q 277.5 99.2, 277.5 98.2 Q 277.5 97.3, 276.8 96.9 Q 276.2 96.4, 275.0 96.4 L 273.0 96.4 L 273.0 100.2 L 275.2 100.2 " fill="#7F4C19"/>
<path class="atom-9" d="M 281.6 93.4 L 281.7 94.6 Q 282.6 93.3, 284.0 93.3 Q 284.4 93.3, 285.0 93.5 L 284.8 94.8 Q 284.1 94.6, 283.7 94.6 Q 283.1 94.6, 282.6 94.9 Q 282.2 95.1, 281.9 95.8 L 281.9 101.5 L 280.4 101.5 L 280.4 93.4 L 281.6 93.4 " fill="#7F4C19"/>
<path class="atom-12" d="M 177.0 184.6 L 178.5 184.6 L 178.5 195.7 L 177.0 195.7 L 177.0 184.6 " fill="#A01EEF"/>
<path class="legend" d="M 102.5 261.2 Q 102.5 260.0, 103.1 259.3 Q 103.8 258.6, 104.9 258.6 Q 106.1 258.6, 106.7 259.3 Q 107.3 260.0, 107.3 261.2 Q 107.3 262.5, 106.7 263.2 Q 106.1 264.0, 104.9 264.0 Q 103.8 264.0, 103.1 263.2 Q 102.5 262.5, 102.5 261.2 M 104.9 263.4 Q 105.7 263.4, 106.2 262.8 Q 106.6 262.3, 106.6 261.2 Q 106.6 260.2, 106.2 259.7 Q 105.7 259.2, 104.9 259.2 Q 104.1 259.2, 103.7 259.7 Q 103.3 260.2, 103.3 261.2 Q 103.3 262.3, 103.7 262.8 Q 104.1 263.4, 104.9 263.4 " fill="#000000"/>
<path class="legend" d="M 108.0 261.2 Q 108.0 259.9, 108.7 259.3 Q 109.3 258.6, 110.4 258.6 Q 111.5 258.6, 112.1 259.3 L 111.6 259.7 Q 111.2 259.2, 110.4 259.2 Q 109.6 259.2, 109.2 259.7 Q 108.8 260.2, 108.8 261.2 Q 108.8 262.3, 109.2 262.8 Q 109.7 263.4, 110.5 263.4 Q 111.1 263.4, 111.8 263.0 L 112.0 263.6 Q 111.7 263.7, 111.3 263.8 Q 110.9 263.9, 110.4 263.9 Q 109.3 263.9, 108.7 263.2 Q 108.0 262.6, 108.0 261.2 " fill="#000000"/>
<path class="legend" d="M 112.7 261.2 Q 112.7 259.9, 113.3 259.3 Q 114.0 258.6, 115.1 258.6 Q 116.2 258.6, 116.8 259.3 L 116.3 259.7 Q 115.9 259.2, 115.1 259.2 Q 114.3 259.2, 113.9 259.7 Q 113.5 260.2, 113.5 261.2 Q 113.5 262.3, 113.9 262.8 Q 114.4 263.4, 115.2 263.4 Q 115.8 263.4, 116.5 263.0 L 116.7 263.6 Q 116.4 263.7, 116.0 263.8 Q 115.6 263.9, 115.1 263.9 Q 114.0 263.9, 113.3 263.2 Q 112.7 262.6, 112.7 261.2 " fill="#000000"/>
<path class="legend" d="M 117.4 261.2 Q 117.4 259.9, 118.0 259.3 Q 118.6 258.6, 119.8 258.6 Q 120.9 258.6, 121.5 259.3 L 121.0 259.7 Q 120.5 259.2, 119.8 259.2 Q 119.0 259.2, 118.6 259.7 Q 118.2 260.2, 118.2 261.2 Q 118.2 262.3, 118.6 262.8 Q 119.0 263.4, 119.9 263.4 Q 120.5 263.4, 121.1 263.0 L 121.3 263.6 Q 121.1 263.7, 120.7 263.8 Q 120.2 263.9, 119.8 263.9 Q 118.6 263.9, 118.0 263.2 Q 117.4 262.6, 117.4 261.2 " fill="#000000"/>
<path class="legend" d="M 122.1 261.8 Q 122.1 260.7, 122.4 259.8 Q 122.7 259.0, 123.3 258.0 L 123.7 258.3 Q 123.2 259.2, 123.0 260.0 Q 122.8 260.7, 122.8 261.8 Q 122.8 262.8, 123.0 263.6 Q 123.2 264.3, 123.7 265.3 L 123.3 265.5 Q 122.7 264.6, 122.4 263.7 Q 122.1 262.8, 122.1 261.8 " fill="#000000"/>
<path class="legend" d="M 124.2 260.7 L 127.6 260.7 L 127.6 261.2 L 124.2 261.2 L 124.2 260.7 M 124.2 262.2 L 127.6 262.2 L 127.6 262.8 L 124.2 262.8 L 124.2 262.2 " fill="#000000"/>
<path class="legend" d="M 128.6 261.2 Q 128.6 260.0, 129.3 259.3 Q 129.9 258.6, 131.1 258.6 Q 132.2 258.6, 132.8 259.3 Q 133.5 260.0, 133.5 261.2 Q 133.5 262.5, 132.8 263.2 Q 132.2 264.0, 131.1 264.0 Q 129.9 264.0, 129.3 263.2 Q 128.6 262.5, 128.6 261.2 M 131.1 263.4 Q 131.9 263.4, 132.3 262.8 Q 132.7 262.3, 132.7 261.2 Q 132.7 260.2, 132.3 259.7 Q 131.9 259.2, 131.1 259.2 Q 130.3 259.2, 129.8 259.7 Q 129.4 260.2, 129.4 261.2 Q 129.4 262.3, 129.8 262.8 Q 130.3 263.4, 131.1 263.4 " fill="#000000"/>
<path class="legend" d="M 135.8 261.8 Q 135.8 262.8, 135.5 263.7 Q 135.2 264.6, 134.6 265.5 L 134.2 265.3 Q 134.6 264.3, 134.9 263.6 Q 135.1 262.8, 135.1 261.8 Q 135.1 260.7, 134.9 260.0 Q 134.6 259.2, 134.2 258.3 L 134.6 258.0 Q 135.2 259.0, 135.5 259.8 Q 135.8 260.7, 135.8 261.8 " fill="#000000"/>
<path class="legend" d="M 136.5 261.2 Q 136.5 259.9, 137.1 259.3 Q 137.7 258.6, 138.9 258.6 Q 140.0 258.6, 140.6 259.3 L 140.1 259.7 Q 139.6 259.2, 138.9 259.2 Q 138.1 259.2, 137.7 259.7 Q 137.3 260.2, 137.3 261.2 Q 137.3 262.3, 137.7 262.8 Q 138.1 263.4, 139.0 263.4 Q 139.6 263.4, 140.2 263.0 L 140.4 263.6 Q 140.2 263.7, 139.7 263.8 Q 139.3 263.9, 138.9 263.9 Q 137.7 263.9, 137.1 263.2 Q 136.5 262.6, 136.5 261.2 " fill="#000000"/>
<path class="legend" d="M 141.5 263.3 L 142.6 263.3 L 142.6 259.4 L 141.4 259.8 L 141.2 259.3 L 142.8 258.6 L 143.3 258.7 L 143.3 263.3 L 144.4 263.3 L 144.4 263.9 L 141.5 263.9 L 141.5 263.3 " fill="#000000"/>
<path class="legend" d="M 145.0 260.7 L 148.4 260.7 L 148.4 261.2 L 145.0 261.2 L 145.0 260.7 M 145.0 262.2 L 148.4 262.2 L 148.4 262.8 L 145.0 262.8 L 145.0 262.2 " fill="#000000"/>
<path class="legend" d="M 149.4 261.2 Q 149.4 259.9, 150.0 259.3 Q 150.6 258.6, 151.8 258.6 Q 152.9 258.6, 153.5 259.3 L 153.0 259.7 Q 152.5 259.2, 151.8 259.2 Q 151.0 259.2, 150.6 259.7 Q 150.2 260.2, 150.2 261.2 Q 150.2 262.3, 150.6 262.8 Q 151.0 263.4, 151.9 263.4 Q 152.4 263.4, 153.1 263.0 L 153.3 263.6 Q 153.1 263.7, 152.6 263.8 Q 152.2 263.9, 151.8 263.9 Q 150.6 263.9, 150.0 263.2 Q 149.4 262.6, 149.4 261.2 " fill="#000000"/>
<path class="legend" d="M 154.1 261.2 Q 154.1 259.9, 154.7 259.3 Q 155.3 258.6, 156.5 258.6 Q 157.6 258.6, 158.1 259.3 L 157.6 259.7 Q 157.2 259.2, 156.5 259.2 Q 155.7 259.2, 155.2 259.7 Q 154.8 260.2, 154.8 261.2 Q 154.8 262.3, 155.3 262.8 Q 155.7 263.4, 156.5 263.4 Q 157.1 263.4, 157.8 263.0 L 158.0 263.6 Q 157.7 263.7, 157.3 263.8 Q 156.9 263.9, 156.4 263.9 Q 155.3 263.9, 154.7 263.2 Q 154.1 262.6, 154.1 261.2 " fill="#000000"/>
<path class="legend" d="M 158.8 260.7 L 162.2 260.7 L 162.2 261.2 L 158.8 261.2 L 158.8 260.7 M 158.8 262.2 L 162.2 262.2 L 162.2 262.8 L 158.8 262.8 L 158.8 262.2 " fill="#000000"/>
<path class="legend" d="M 163.2 261.2 Q 163.2 259.9, 163.8 259.3 Q 164.4 258.6, 165.6 258.6 Q 166.6 258.6, 167.2 259.3 L 166.7 259.7 Q 166.3 259.2, 165.6 259.2 Q 164.8 259.2, 164.3 259.7 Q 163.9 260.2, 163.9 261.2 Q 163.9 262.3, 164.3 262.8 Q 164.8 263.4, 165.6 263.4 Q 166.2 263.4, 166.9 263.0 L 167.1 263.6 Q 166.8 263.7, 166.4 263.8 Q 166.0 263.9, 165.5 263.9 Q 164.4 263.9, 163.8 263.2 Q 163.2 262.6, 163.2 261.2 " fill="#000000"/>
<path class="legend" d="M 167.8 261.8 Q 167.8 260.7, 168.1 259.8 Q 168.5 259.0, 169.1 258.0 L 169.5 258.3 Q 169.0 259.2, 168.7 260.0 Q 168.5 260.7, 168.5 261.8 Q 168.5 262.8, 168.7 263.6 Q 169.0 264.3, 169.5 265.3 L 169.1 265.5 Q 168.5 264.6, 168.1 263.7 Q 167.8 262.8, 167.8 261.8 " fill="#000000"/>
<path class="legend" d="M 172.5 261.1 Q 173.0 261.3, 173.3 261.6 Q 173.6 261.9, 173.6 262.3 Q 173.6 263.1, 173.1 263.5 Q 172.6 263.9, 171.8 263.9 L 170.0 263.9 L 170.0 258.6 L 171.5 258.6 Q 172.4 258.6, 172.9 259.0 Q 173.3 259.4, 173.3 260.0 Q 173.3 260.8, 172.5 261.1 M 170.7 259.2 L 170.7 260.9 L 171.5 260.9 Q 172.1 260.9, 172.3 260.7 Q 172.6 260.4, 172.6 260.0 Q 172.6 259.2, 171.5 259.2 L 170.7 259.2 M 171.8 263.3 Q 172.3 263.3, 172.5 263.0 Q 172.8 262.8, 172.8 262.3 Q 172.8 261.9, 172.5 261.7 Q 172.2 261.5, 171.6 261.5 L 170.7 261.5 L 170.7 263.3 L 171.8 263.3 " fill="#000000"/>
<path class="legend" d="M 174.8 260.1 L 174.9 260.6 Q 175.3 260.0, 175.9 260.0 Q 176.1 260.0, 176.4 260.1 L 176.3 260.7 Q 176.0 260.6, 175.8 260.6 Q 175.5 260.6, 175.3 260.7 Q 175.1 260.9, 174.9 261.2 L 174.9 263.9 L 174.2 263.9 L 174.2 260.1 L 174.8 260.1 " fill="#000000"/>
<path class="legend" d="M 178.5 261.8 Q 178.5 262.8, 178.2 263.7 Q 177.9 264.6, 177.3 265.5 L 176.9 265.3 Q 177.3 264.3, 177.6 263.6 Q 177.8 262.8, 177.8 261.8 Q 177.8 260.7, 177.6 260.0 Q 177.3 259.2, 176.9 258.3 L 177.3 258.0 Q 177.9 259.0, 178.2 259.8 Q 178.5 260.7, 178.5 261.8 " fill="#000000"/>
<path class="legend" d="M 179.2 261.2 Q 179.2 259.9, 179.8 259.3 Q 180.4 258.6, 181.6 258.6 Q 182.7 258.6, 183.2 259.3 L 182.8 259.7 Q 182.3 259.2, 181.6 259.2 Q 180.8 259.2, 180.4 259.7 Q 180.0 260.2, 180.0 261.2 Q 180.0 262.3, 180.4 262.8 Q 180.8 263.4, 181.7 263.4 Q 182.2 263.4, 182.9 263.0 L 183.1 263.6 Q 182.9 263.7, 182.4 263.8 Q 182.0 263.9, 181.6 263.9 Q 180.4 263.9, 179.8 263.2 Q 179.2 262.6, 179.2 261.2 " fill="#000000"/>
<path class="legend" d="M 183.9 260.7 L 187.3 260.7 L 187.3 261.2 L 183.9 261.2 L 183.9 260.7 M 183.9 262.2 L 187.3 262.2 L 187.3 262.8 L 183.9 262.8 L 183.9 262.2 " fill="#000000"/>
<path class="legend" d="M 188.3 261.2 Q 188.3 259.9, 188.9 259.3 Q 189.5 258.6, 190.7 258.6 Q 191.8 258.6, 192.3 259.3 L 191.8 259.7 Q 191.4 259.2, 190.7 259.2 Q 189.9 259.2, 189.5 259.7 Q 189.0 260.2, 189.0 261.2 Q 189.0 262.3, 189.5 262.8 Q 189.9 263.4, 190.8 263.4 Q 191.3 263.4, 192.0 263.0 L 192.2 263.6 Q 191.9 263.7, 191.5 263.8 Q 191.1 263.9, 190.6 263.9 Q 189.5 263.9, 188.9 263.2 Q 188.3 262.6, 188.3 261.2 " fill="#000000"/>
<path class="legend" d="M 193.3 263.3 L 194.4 263.3 L 194.4 259.4 L 193.1 259.8 L 193.0 259.3 L 194.6 258.6 L 195.1 258.7 L 195.1 263.3 L 196.1 263.3 L 196.1 263.9 L 193.3 263.9 L 193.3 263.3 " fill="#000000"/>
<path class="legend" d="M 196.8 258.6 L 197.5 258.6 L 197.5 263.9 L 196.8 263.9 L 196.8 258.6 " fill="#000000"/>
<path class="legend" d="M 124.0 265.6 L 124.7 265.6 L 124.7 270.2 L 127.2 270.2 L 127.2 270.8 L 124.0 270.8 L 124.0 265.6 " fill="#000000"/>
<path class="legend" d="M 127.6 268.9 Q 127.6 268.0, 128.1 267.5 Q 128.5 267.0, 129.4 267.0 Q 130.3 267.0, 130.7 267.5 Q 131.2 268.0, 131.2 268.9 Q 131.2 269.9, 130.7 270.4 Q 130.3 270.9, 129.4 270.9 Q 128.5 270.9, 128.1 270.4 Q 127.6 269.9, 127.6 268.9 M 128.3 268.9 Q 128.3 269.6, 128.6 270.0 Q 128.9 270.4, 129.4 270.4 Q 129.9 270.4, 130.2 270.0 Q 130.5 269.6, 130.5 268.9 Q 130.5 268.2, 130.2 267.9 Q 129.9 267.5, 129.4 267.5 Q 128.9 267.5, 128.6 267.9 Q 128.3 268.2, 128.3 268.9 " fill="#000000"/>
<path class="legend" d="M 135.2 267.0 L 135.2 271.1 Q 135.2 272.7, 133.5 272.7 Q 132.7 272.7, 131.9 272.3 L 132.2 271.8 Q 132.6 272.0, 132.8 272.1 Q 133.1 272.2, 133.5 272.2 Q 134.1 272.2, 134.3 271.9 Q 134.5 271.7, 134.5 271.1 L 134.5 270.4 Q 134.1 270.9, 133.5 270.9 Q 132.7 270.9, 132.2 270.4 Q 131.8 269.9, 131.8 269.0 Q 131.8 268.0, 132.3 267.5 Q 132.8 267.0, 133.7 267.0 Q 134.2 267.0, 134.7 267.1 L 134.7 267.0 L 135.2 267.0 M 133.5 270.4 Q 133.9 270.4, 134.2 270.1 Q 134.4 269.9, 134.5 269.6 L 134.5 267.6 Q 134.2 267.5, 133.7 267.5 Q 133.2 267.5, 132.8 267.9 Q 132.5 268.3, 132.5 269.0 Q 132.5 269.6, 132.7 270.0 Q 133.0 270.4, 133.5 270.4 " fill="#000000"/>
<path class="legend" d="M 137.6 265.6 Q 138.5 265.6, 139.0 266.0 Q 139.4 266.4, 139.4 267.1 Q 139.4 267.9, 139.0 268.3 Q 138.5 268.7, 137.6 268.7 L 136.8 268.7 L 136.8 270.8 L 136.1 270.8 L 136.1 265.6 L 137.6 265.6 M 137.6 268.1 Q 138.2 268.1, 138.4 267.8 Q 138.7 267.6, 138.7 267.1 Q 138.7 266.7, 138.4 266.4 Q 138.2 266.2, 137.6 266.2 L 136.8 266.2 L 136.8 268.1 L 137.6 268.1 " fill="#000000"/>
<path class="legend" d="M 140.0 270.0 L 140.8 270.0 L 140.8 270.7 L 140.0 270.7 L 140.0 270.0 M 140.0 267.4 L 140.8 267.4 L 140.8 268.2 L 140.0 268.2 L 140.0 267.4 " fill="#000000"/>
<path class="legend" d="" fill="#000000"/>
<path class="legend" d="M 144.3 266.6 Q 144.5 266.1, 144.9 265.8 Q 145.4 265.5, 146.0 265.5 Q 146.8 265.5, 147.3 266.0 Q 147.7 266.4, 147.7 267.2 Q 147.7 267.9, 147.1 268.7 Q 146.5 269.4, 145.4 270.2 L 147.8 270.2 L 147.8 270.8 L 144.2 270.8 L 144.2 270.3 Q 145.2 269.6, 145.8 269.1 Q 146.4 268.6, 146.7 268.1 Q 147.0 267.7, 147.0 267.2 Q 147.0 266.7, 146.7 266.4 Q 146.5 266.1, 146.0 266.1 Q 145.6 266.1, 145.3 266.3 Q 145.0 266.5, 144.8 266.8 L 144.3 266.6 " fill="#000000"/>
<path class="legend" d="M 148.5 270.1 L 149.2 270.1 L 149.2 270.8 L 148.5 270.8 L 148.5 270.1 " fill="#000000"/>
<path class="legend" d="M 151.8 267.6 Q 152.3 267.6, 152.7 267.8 Q 153.0 267.9, 153.3 268.3 Q 153.5 268.7, 153.5 269.2 Q 153.5 269.7, 153.2 270.1 Q 152.9 270.5, 152.5 270.7 Q 152.1 270.9, 151.6 270.9 Q 151.1 270.9, 150.7 270.7 Q 150.2 270.5, 149.9 270.2 L 150.4 269.7 Q 150.6 270.0, 150.9 270.2 Q 151.3 270.3, 151.6 270.3 Q 152.1 270.3, 152.4 270.0 Q 152.7 269.7, 152.7 269.2 Q 152.7 268.6, 152.4 268.4 Q 152.1 268.1, 151.6 268.1 Q 151.1 268.1, 150.6 268.3 L 150.2 268.1 L 150.4 265.6 L 153.1 265.6 L 153.1 266.2 L 151.0 266.2 L 150.9 267.7 Q 151.4 267.6, 151.8 267.6 " fill="#000000"/>
<path class="legend" d="" fill="#000000"/>
<path class="legend" d="M 159.6 267.0 L 160.3 267.0 L 159.0 270.8 L 158.1 270.8 L 156.8 267.0 L 157.5 267.0 L 158.6 270.2 L 159.6 267.0 " fill="#000000"/>
<path class="legend" d="M 160.8 270.1 Q 161.2 270.2, 161.4 270.3 Q 161.7 270.3, 161.9 270.3 Q 162.3 270.3, 162.4 270.2 Q 162.6 270.0, 162.6 269.8 Q 162.6 269.6, 162.5 269.5 Q 162.4 269.4, 162.3 269.3 Q 162.2 269.3, 161.9 269.2 Q 161.8 269.2, 161.5 269.0 Q 161.1 268.9, 160.9 268.7 Q 160.8 268.4, 160.8 268.0 Q 160.8 267.6, 161.1 267.3 Q 161.5 267.0, 162.2 267.0 Q 162.4 267.0, 162.7 267.0 Q 163.0 267.1, 163.2 267.2 L 163.1 267.8 Q 162.8 267.7, 162.6 267.6 Q 162.4 267.5, 162.2 267.5 Q 161.8 267.5, 161.6 267.7 Q 161.4 267.8, 161.4 268.0 Q 161.4 268.2, 161.6 268.3 Q 161.7 268.4, 162.0 268.6 Q 162.1 268.6, 162.2 268.6 L 162.4 268.7 Q 162.7 268.8, 162.9 268.9 Q 163.1 269.0, 163.2 269.2 Q 163.3 269.4, 163.3 269.8 Q 163.3 270.3, 162.9 270.6 Q 162.5 270.9, 161.9 270.9 Q 161.6 270.9, 161.2 270.8 Q 160.9 270.8, 160.6 270.6 L 160.8 270.1 " fill="#000000"/>
<path class="legend" d="" fill="#000000"/>
<path class="legend" d="M 166.7 266.6 Q 166.9 266.1, 167.3 265.8 Q 167.8 265.5, 168.4 265.5 Q 169.2 265.5, 169.7 266.0 Q 170.1 266.4, 170.1 267.2 Q 170.1 267.9, 169.5 268.7 Q 169.0 269.4, 167.8 270.2 L 170.2 270.2 L 170.2 270.8 L 166.6 270.8 L 166.6 270.3 Q 167.6 269.6, 168.2 269.1 Q 168.8 268.6, 169.1 268.1 Q 169.4 267.7, 169.4 267.2 Q 169.4 266.7, 169.1 266.4 Q 168.9 266.1, 168.4 266.1 Q 168.0 266.1, 167.7 266.3 Q 167.4 266.5, 167.2 266.8 L 166.7 266.6 " fill="#000000"/>
<path class="legend" d="M 170.9 270.1 L 171.6 270.1 L 171.6 270.8 L 170.9 270.8 L 170.9 270.1 " fill="#000000"/>
<path class="legend" d="M 174.4 267.6 Q 174.8 267.6, 175.2 267.8 Q 175.6 268.0, 175.8 268.3 Q 176.0 268.7, 176.0 269.2 Q 176.0 269.7, 175.7 270.1 Q 175.5 270.5, 175.1 270.7 Q 174.7 270.9, 174.2 270.9 Q 173.3 270.9, 172.8 270.3 Q 172.3 269.6, 172.3 268.4 Q 172.3 267.0, 172.9 266.3 Q 173.5 265.5, 174.6 265.5 Q 174.9 265.5, 175.2 265.6 Q 175.5 265.7, 175.8 265.8 L 175.5 266.3 Q 175.1 266.1, 174.6 266.1 Q 173.9 266.1, 173.5 266.6 Q 173.1 267.1, 173.1 268.1 Q 173.3 267.8, 173.7 267.7 Q 174.0 267.6, 174.4 267.6 M 174.2 270.3 Q 174.5 270.3, 174.7 270.1 Q 175.0 270.0, 175.1 269.7 Q 175.2 269.5, 175.2 269.2 Q 175.2 268.7, 175.0 268.4 Q 174.7 268.2, 174.2 268.2 Q 173.9 268.2, 173.6 268.3 Q 173.3 268.4, 173.1 268.6 Q 173.1 269.5, 173.4 269.9 Q 173.6 270.3, 174.2 270.3 " fill="#000000"/>
<path class="legend" d="M 126.0 279.0 Q 126.3 279.0, 126.6 278.9 L 126.8 279.5 Q 126.4 279.6, 126.0 279.6 Q 125.3 279.6, 124.9 279.2 Q 124.5 278.8, 124.4 278.1 Q 123.4 277.9, 122.9 277.2 Q 122.4 276.5, 122.4 275.4 Q 122.4 274.1, 123.0 273.4 Q 123.7 272.7, 124.8 272.7 Q 126.0 272.7, 126.6 273.4 Q 127.2 274.1, 127.2 275.4 Q 127.2 276.6, 126.6 277.3 Q 126.1 278.0, 125.0 278.1 Q 125.1 278.5, 125.4 278.7 Q 125.6 279.0, 126.0 279.0 M 123.2 275.4 Q 123.2 276.4, 123.6 277.0 Q 124.0 277.5, 124.8 277.5 Q 125.6 277.5, 126.1 277.0 Q 126.5 276.4, 126.5 275.4 Q 126.5 274.3, 126.1 273.8 Q 125.6 273.3, 124.8 273.3 Q 124.0 273.3, 123.6 273.8 Q 123.2 274.3, 123.2 275.4 " fill="#000000"/>
<path class="legend" d="M 127.9 272.8 L 131.0 272.8 L 131.0 273.4 L 128.6 273.4 L 128.6 275.0 L 130.7 275.0 L 130.7 275.6 L 128.6 275.6 L 128.6 277.4 L 131.1 277.4 L 131.1 278.0 L 127.9 278.0 L 127.9 272.8 " fill="#000000"/>
<path class="legend" d="M 133.4 272.8 Q 134.5 272.8, 135.2 273.5 Q 135.8 274.1, 135.8 275.4 Q 135.8 276.6, 135.1 277.3 Q 134.5 278.0, 133.4 278.0 L 131.7 278.0 L 131.7 272.8 L 133.4 272.8 M 133.4 277.4 Q 134.2 277.4, 134.6 276.9 Q 135.0 276.4, 135.0 275.4 Q 135.0 274.4, 134.6 273.9 Q 134.2 273.4, 133.4 273.4 L 132.4 273.4 L 132.4 277.4 L 133.4 277.4 " fill="#000000"/>
<path class="legend" d="M 136.4 277.2 L 137.1 277.2 L 137.1 277.9 L 136.4 277.9 L 136.4 277.2 M 136.4 274.6 L 137.1 274.6 L 137.1 275.3 L 136.4 275.3 L 136.4 274.6 " fill="#000000"/>
<path class="legend" d="" fill="#000000"/>
<path class="legend" d="M 142.5 278.1 Q 141.6 278.1, 141.1 277.4 Q 140.6 276.7, 140.6 275.4 Q 140.6 274.1, 141.1 273.4 Q 141.6 272.7, 142.5 272.7 Q 143.5 272.7, 144.0 273.4 Q 144.5 274.1, 144.5 275.4 Q 144.5 276.7, 144.0 277.4 Q 143.5 278.1, 142.5 278.1 M 142.5 277.5 Q 143.1 277.5, 143.4 277.0 Q 143.7 276.4, 143.7 275.4 Q 143.7 274.4, 143.4 273.8 Q 143.1 273.3, 142.5 273.3 Q 142.0 273.3, 141.7 273.8 Q 141.4 274.4, 141.4 275.4 Q 141.4 276.4, 141.7 277.0 Q 142.0 277.5, 142.5 277.5 " fill="#000000"/>
<path class="legend" d="M 145.2 277.3 L 145.9 277.3 L 145.9 278.0 L 145.2 278.0 L 145.2 277.3 " fill="#000000"/>
<path class="legend" d="M 149.3 275.2 Q 149.8 275.4, 150.1 275.8 Q 150.4 276.1, 150.4 276.6 Q 150.4 277.0, 150.1 277.4 Q 149.9 277.7, 149.5 277.9 Q 149.1 278.1, 148.6 278.1 Q 147.7 278.1, 147.2 277.7 Q 146.7 277.3, 146.7 276.6 Q 146.7 276.2, 146.9 275.8 Q 147.1 275.5, 147.6 275.3 Q 147.2 275.1, 147.0 274.8 Q 146.9 274.5, 146.9 274.1 Q 146.9 273.4, 147.3 273.1 Q 147.8 272.7, 148.5 272.7 Q 149.3 272.7, 149.7 273.1 Q 150.2 273.4, 150.2 274.1 Q 150.2 274.4, 150.0 274.7 Q 149.8 275.0, 149.3 275.2 M 148.5 273.3 Q 148.1 273.3, 147.8 273.5 Q 147.6 273.7, 147.6 274.1 Q 147.6 274.3, 147.8 274.5 Q 147.9 274.7, 148.2 274.8 Q 148.4 274.9, 148.8 275.1 Q 149.2 274.8, 149.3 274.6 Q 149.4 274.4, 149.4 274.1 Q 149.4 273.7, 149.2 273.5 Q 149.0 273.3, 148.5 273.3 M 148.6 277.5 Q 149.0 277.5, 149.3 277.3 Q 149.6 277.0, 149.6 276.6 Q 149.6 276.3, 149.5 276.1 Q 149.3 275.9, 149.1 275.8 Q 148.9 275.7, 148.4 275.6 L 148.1 275.5 Q 147.7 275.7, 147.6 276.0 Q 147.4 276.2, 147.4 276.6 Q 147.4 277.0, 147.7 277.3 Q 148.0 277.5, 148.6 277.5 " fill="#000000"/>
<path class="legend" d="" fill="#000000"/>
<path class="legend" d="M 156.7 274.2 L 157.4 274.2 L 156.0 278.0 L 155.2 278.0 L 153.8 274.2 L 154.5 274.2 L 155.6 277.4 L 156.7 274.2 " fill="#000000"/>
<path class="legend" d="M 157.9 277.2 Q 158.2 277.4, 158.5 277.4 Q 158.7 277.5, 159.0 277.5 Q 159.3 277.5, 159.5 277.4 Q 159.7 277.2, 159.7 277.0 Q 159.7 276.8, 159.6 276.7 Q 159.5 276.6, 159.4 276.5 Q 159.3 276.5, 158.9 276.4 Q 158.9 276.3, 158.5 276.2 Q 158.2 276.1, 158.0 275.8 Q 157.8 275.6, 157.8 275.2 Q 157.8 274.8, 158.2 274.5 Q 158.5 274.1, 159.2 274.1 Q 159.5 274.1, 159.8 274.2 Q 160.0 274.3, 160.3 274.4 L 160.1 274.9 Q 159.9 274.8, 159.7 274.8 Q 159.5 274.7, 159.2 274.7 Q 158.9 274.7, 158.7 274.9 Q 158.5 275.0, 158.5 275.2 Q 158.5 275.4, 158.7 275.5 Q 158.8 275.6, 159.1 275.7 Q 159.2 275.8, 159.3 275.8 L 159.4 275.9 Q 159.8 276.0, 159.9 276.1 Q 160.1 276.2, 160.3 276.4 Q 160.4 276.6, 160.4 276.9 Q 160.4 277.5, 160.0 277.8 Q 159.6 278.1, 159.0 278.1 Q 158.6 278.1, 158.3 278.0 Q 158.0 277.9, 157.7 277.8 L 157.9 277.2 " fill="#000000"/>
<path class="legend" d="" fill="#000000"/>
<path class="legend" d="M 165.7 278.1 Q 164.7 278.1, 164.2 277.4 Q 163.8 276.7, 163.8 275.4 Q 163.8 274.1, 164.2 273.4 Q 164.7 272.7, 165.7 272.7 Q 166.7 272.7, 167.1 273.4 Q 167.6 274.1, 167.6 275.4 Q 167.6 276.7, 167.1 277.4 Q 166.6 278.1, 165.7 278.1 M 165.7 277.5 Q 166.3 277.5, 166.6 277.0 Q 166.9 276.4, 166.9 275.4 Q 166.9 274.4, 166.6 273.8 Q 166.3 273.3, 165.7 273.3 Q 165.1 273.3, 164.8 273.8 Q 164.5 274.4, 164.5 275.4 Q 164.5 276.4, 164.8 277.0 Q 165.1 277.5, 165.7 277.5 " fill="#000000"/>
<path class="legend" d="M 168.3 277.3 L 169.1 277.3 L 169.1 278.0 L 168.3 278.0 L 168.3 277.3 " fill="#000000"/>
<path class="legend" d="M 171.9 274.7 Q 172.3 274.7, 172.7 274.9 Q 173.0 275.1, 173.2 275.5 Q 173.4 275.9, 173.4 276.3 Q 173.4 276.8, 173.2 277.2 Q 173.0 277.6, 172.6 277.9 Q 172.2 278.1, 171.7 278.1 Q 170.7 278.1, 170.3 277.5 Q 169.8 276.8, 169.8 275.5 Q 169.8 274.2, 170.4 273.4 Q 171.0 272.7, 172.1 272.7 Q 172.4 272.7, 172.7 272.8 Q 173.0 272.9, 173.2 273.0 L 172.9 273.5 Q 172.6 273.3, 172.1 273.3 Q 171.4 273.3, 171.0 273.8 Q 170.6 274.3, 170.6 275.2 Q 170.8 275.0, 171.2 274.9 Q 171.5 274.7, 171.9 274.7 M 171.7 277.5 Q 172.0 277.5, 172.2 277.3 Q 172.4 277.2, 172.6 276.9 Q 172.7 276.7, 172.7 276.3 Q 172.7 275.9, 172.4 275.6 Q 172.2 275.3, 171.7 275.3 Q 171.4 275.3, 171.1 275.5 Q 170.8 275.6, 170.6 275.8 Q 170.6 276.7, 170.9 277.1 Q 171.1 277.5, 171.7 277.5 " fill="#000000"/>
<path class="legend" d="M 176.9 273.4 L 174.1 273.4 L 174.1 272.8 L 177.6 272.8 L 177.6 273.3 L 175.5 278.0 L 174.8 278.0 L 176.9 273.4 " fill="#000000"/>
<path class="legend" d="M 124.3 284.9 L 123.6 284.9 L 123.0 280.6 L 121.6 284.9 L 120.9 284.9 L 119.5 280.6 L 118.9 284.9 L 118.2 284.9 L 118.9 279.7 L 119.8 279.7 L 121.3 283.9 L 122.7 279.7 L 123.6 279.7 L 124.3 284.9 " fill="#000000"/>
<path class="legend" d="M 131.6 279.7 L 132.3 279.7 L 130.9 284.9 L 129.8 284.9 L 128.7 280.5 L 127.5 284.9 L 126.4 284.9 L 125.0 279.7 L 125.7 279.7 L 127.0 284.3 L 128.2 279.7 L 129.1 279.7 L 130.3 284.3 L 131.6 279.7 " fill="#000000"/>
<path class="legend" d="M 132.8 284.1 L 133.5 284.1 L 133.5 284.8 L 132.8 284.8 L 132.8 284.1 M 132.8 281.5 L 133.5 281.5 L 133.5 282.2 L 132.8 282.2 L 132.8 281.5 " fill="#000000"/>
<path class="legend" d="" fill="#000000"/>
<path class="legend" d="M 139.7 282.2 Q 140.2 282.3, 140.4 282.6 Q 140.7 283.0, 140.7 283.5 Q 140.7 283.9, 140.5 284.3 Q 140.2 284.6, 139.8 284.8 Q 139.4 285.0, 138.9 285.0 Q 138.3 285.0, 137.9 284.8 Q 137.5 284.6, 137.1 284.2 L 137.6 283.8 Q 137.9 284.1, 138.2 284.3 Q 138.4 284.4, 138.9 284.4 Q 139.4 284.4, 139.6 284.2 Q 139.9 283.9, 139.9 283.5 Q 139.9 282.9, 139.6 282.7 Q 139.3 282.5, 138.7 282.5 L 138.3 282.5 L 138.3 281.9 L 138.6 281.9 Q 139.2 281.9, 139.5 281.7 Q 139.8 281.4, 139.8 281.0 Q 139.8 280.6, 139.6 280.4 Q 139.3 280.2, 138.9 280.2 Q 138.4 280.2, 138.2 280.4 Q 137.9 280.5, 137.7 280.9 L 137.2 280.6 Q 137.4 280.2, 137.8 279.9 Q 138.3 279.6, 138.9 279.6 Q 139.7 279.6, 140.1 280.0 Q 140.6 280.3, 140.6 281.0 Q 140.6 281.4, 140.3 281.7 Q 140.1 282.0, 139.7 282.2 " fill="#000000"/>
<path class="legend" d="M 143.3 281.6 Q 143.8 281.6, 144.2 281.8 Q 144.5 282.0, 144.7 282.4 Q 145.0 282.8, 145.0 283.3 Q 145.0 283.8, 144.7 284.2 Q 144.4 284.6, 144.0 284.8 Q 143.6 285.0, 143.1 285.0 Q 142.6 285.0, 142.2 284.8 Q 141.7 284.6, 141.4 284.3 L 141.9 283.8 Q 142.1 284.1, 142.4 284.2 Q 142.8 284.4, 143.1 284.4 Q 143.6 284.4, 143.9 284.1 Q 144.2 283.8, 144.2 283.3 Q 144.2 282.7, 143.9 282.5 Q 143.6 282.2, 143.1 282.2 Q 142.6 282.2, 142.1 282.4 L 141.7 282.2 L 141.9 279.7 L 144.6 279.7 L 144.6 280.3 L 142.5 280.3 L 142.4 281.8 Q 142.9 281.6, 143.3 281.6 " fill="#000000"/>
<path class="legend" d="M 147.5 285.0 Q 146.6 285.0, 146.1 284.3 Q 145.6 283.6, 145.6 282.3 Q 145.6 281.0, 146.1 280.3 Q 146.6 279.6, 147.5 279.6 Q 148.5 279.6, 149.0 280.3 Q 149.5 281.0, 149.5 282.3 Q 149.5 283.6, 149.0 284.3 Q 148.5 285.0, 147.5 285.0 M 147.5 284.4 Q 148.1 284.4, 148.4 283.9 Q 148.7 283.3, 148.7 282.3 Q 148.7 281.3, 148.4 280.7 Q 148.1 280.2, 147.5 280.2 Q 147.0 280.2, 146.7 280.7 Q 146.4 281.3, 146.4 282.3 Q 146.4 283.3, 146.7 283.9 Q 147.0 284.4, 147.5 284.4 " fill="#000000"/>
<path class="legend" d="M 150.2 284.2 L 151.0 284.2 L 151.0 284.9 L 150.2 284.9 L 150.2 284.2 " fill="#000000"/>
<path class="legend" d="M 153.7 285.0 Q 152.7 285.0, 152.2 284.3 Q 151.8 283.6, 151.8 282.3 Q 151.8 281.0, 152.2 280.3 Q 152.7 279.6, 153.7 279.6 Q 154.6 279.6, 155.1 280.3 Q 155.6 281.0, 155.6 282.3 Q 155.6 283.6, 155.1 284.3 Q 154.6 285.0, 153.7 285.0 M 153.7 284.4 Q 154.2 284.4, 154.6 283.9 Q 154.9 283.3, 154.9 282.3 Q 154.9 281.3, 154.6 280.7 Q 154.2 280.2, 153.7 280.2 Q 153.1 280.2, 152.8 280.7 Q 152.5 281.3, 152.5 282.3 Q 152.5 283.3, 152.8 283.9 Q 153.1 284.4, 153.7 284.4 " fill="#000000"/>
<path class="legend" d="" fill="#000000"/>
<path class="legend" d="M 162.0 281.1 L 162.7 281.1 L 161.4 284.9 L 160.5 284.9 L 159.1 281.1 L 159.9 281.1 L 161.0 284.3 L 162.0 281.1 " fill="#000000"/>
<path class="legend" d="M 163.3 284.1 Q 163.6 284.3, 163.9 284.3 Q 164.1 284.4, 164.4 284.4 Q 164.7 284.4, 164.9 284.3 Q 165.1 284.1, 165.1 283.9 Q 165.1 283.7, 165.0 283.6 Q 164.9 283.5, 164.8 283.4 Q 164.6 283.4, 164.3 283.3 Q 164.3 283.2, 163.9 283.1 Q 163.6 283.0, 163.4 282.8 Q 163.2 282.5, 163.2 282.1 Q 163.2 281.7, 163.6 281.4 Q 163.9 281.0, 164.6 281.0 Q 164.9 281.0, 165.2 281.1 Q 165.4 281.2, 165.7 281.3 L 165.5 281.8 Q 165.3 281.7, 165.0 281.7 Q 164.8 281.6, 164.6 281.6 Q 164.3 281.6, 164.1 281.8 Q 163.9 281.9, 163.9 282.1 Q 163.9 282.3, 164.0 282.4 Q 164.2 282.5, 164.5 282.6 Q 164.6 282.7, 164.6 282.7 L 164.8 282.8 Q 165.1 282.9, 165.3 283.0 Q 165.5 283.1, 165.6 283.3 Q 165.8 283.5, 165.8 283.8 Q 165.8 284.4, 165.4 284.7 Q 165.0 285.0, 164.4 285.0 Q 164.0 285.0, 163.7 284.9 Q 163.4 284.8, 163.1 284.7 L 163.3 284.1 " fill="#000000"/>
<path class="legend" d="" fill="#000000"/>
<path class="legend" d="M 171.8 282.2 Q 172.3 282.3, 172.5 282.6 Q 172.8 283.0, 172.8 283.5 Q 172.8 283.9, 172.5 284.3 Q 172.3 284.6, 171.9 284.8 Q 171.5 285.0, 171.0 285.0 Q 170.4 285.0, 170.0 284.8 Q 169.6 284.6, 169.2 284.2 L 169.7 283.8 Q 170.0 284.1, 170.3 284.3 Q 170.5 284.4, 171.0 284.4 Q 171.4 284.4, 171.7 284.2 Q 172.0 283.9, 172.0 283.5 Q 172.0 282.9, 171.7 282.7 Q 171.4 282.5, 170.8 282.5 L 170.4 282.5 L 170.4 281.9 L 170.7 281.9 Q 171.3 281.9, 171.6 281.7 Q 171.9 281.4, 171.9 281.0 Q 171.9 280.6, 171.7 280.4 Q 171.4 280.2, 171.0 280.2 Q 170.5 280.2, 170.3 280.4 Q 170.0 280.5, 169.8 280.9 L 169.3 280.6 Q 169.5 280.2, 169.9 279.9 Q 170.4 279.6, 171.0 279.6 Q 171.8 279.6, 172.2 280.0 Q 172.7 280.3, 172.7 281.0 Q 172.7 281.4, 172.4 281.7 Q 172.2 282.0, 171.8 282.2 " fill="#000000"/>
<path class="legend" d="M 175.4 281.6 Q 175.9 281.6, 176.2 281.8 Q 176.6 282.0, 176.8 282.4 Q 177.1 282.8, 177.1 283.3 Q 177.1 283.8, 176.8 284.2 Q 176.5 284.6, 176.1 284.8 Q 175.7 285.0, 175.2 285.0 Q 174.7 285.0, 174.3 284.8 Q 173.8 284.6, 173.5 284.3 L 173.9 283.8 Q 174.2 284.1, 174.5 284.2 Q 174.9 284.4, 175.2 284.4 Q 175.7 284.4, 176.0 284.1 Q 176.3 283.8, 176.3 283.3 Q 176.3 282.7, 176.0 282.5 Q 175.7 282.2, 175.2 282.2 Q 174.7 282.2, 174.2 282.4 L 173.8 282.2 L 174.0 279.7 L 176.7 279.7 L 176.7 280.3 L 174.6 280.3 L 174.5 281.8 Q 174.9 281.6, 175.4 281.6 " fill="#000000"/>
<path class="legend" d="M 181.1 283.1 L 181.8 283.1 L 181.8 283.7 L 181.1 283.7 L 181.1 284.9 L 180.4 284.9 L 180.4 283.7 L 177.7 283.7 L 177.7 283.2 L 180.0 279.7 L 181.1 279.7 L 181.1 283.1 M 178.6 283.1 L 180.4 283.1 L 180.4 280.1 L 178.6 283.1 " fill="#000000"/>
<path class="bond-0 atom-0 atom-1" d="M 533.4,216.8 L 527.1,178.1" style="fill:none;fill-rule:evenodd;stroke:#000000;stroke-width:2.0px;stroke-linecap:butt;stroke-linejoin:miter;stroke-opacity:1"/>
<path class="bond-1 atom-1 atom-2" d="M 527.1,178.1 L 490.5,164.3" style="fill:none;fill-rule:evenodd;stroke:#000000;stroke-width:2.0px;stroke-linecap:butt;stroke-linejoin:miter;stroke-opacity:1"/>
<path class="bond-2 atom-2 atom-3" d="M 490.5,164.3 L 463.7,192.8" style="fill:none;fill-rule:evenodd;stroke:#000000;stroke-width:2.0px;stroke-linecap:butt;stroke-linejoin:miter;stroke-opacity:1"/>
<path class="bond-2 atom-2 atom-3" d="M 484.5,162.1 L 461.1,187.1" style="fill:none;fill-rule:evenodd;stroke:#000000;stroke-width:2.0px;stroke-linecap:butt;stroke-linejoin:miter;stroke-opacity:1"/>
<path class="bond-3 atom-3 atom-4" d="M 463.7,192.8 L 424.6,194.1" style="fill:none;fill-rule:evenodd;stroke:#000000;stroke-width:2.0px;stroke-linecap:butt;stroke-linejoin:miter;stroke-opacity:1"/>
<path class="bond-4 atom-4 atom-5" d="M 424.6,194.1 L 396.0,167.3" style="fill:none;fill-rule:evenodd;stroke:#000000;stroke-width:2.0px;stroke-linecap:butt;stroke-linejoin:miter;stroke-opacity:1"/>
<path class="bond-4 atom-4 atom-5" d="M 426.8,188.1 L 401.8,164.7" style="fill:none;fill-rule:evenodd;stroke:#000000;stroke-width:2.0px;stroke-linecap:butt;stroke-linejoin:miter;stroke-opacity:1"/>
<path class="bond-5 atom-5 atom-6" d="M 396.0,167.3 L 379.2,174.9" style="fill:none;fill-rule:evenodd;stroke:#000000;stroke-width:2.0px;stroke-linecap:butt;stroke-linejoin:miter;stroke-opacity:1"/>
<path class="bond-5 atom-5 atom-6" d="M 379.2,174.9 L 362.4,182.5" style="fill:none;fill-rule:evenodd;stroke:#A01EEF;stroke-width:2.0px;stroke-linecap:butt;stroke-linejoin:miter;stroke-opacity:1"/>
<path class="bond-6 atom-5 atom-7" d="M 396.0,167.3 L 394.8,128.2" style="fill:none;fill-rule:evenodd;stroke:#000000;stroke-width:2.0px;stroke-linecap:butt;stroke-linejoin:miter;stroke-opacity:1"/>
<path class="bond-7 atom-7 atom-8" d="M 394.8,128.2 L 421.6,99.6" style="fill:none;fill-rule:evenodd;stroke:#000000;stroke-width:2.0px;stroke-linecap:butt;stroke-linejoin:miter;stroke-opacity:1"/>
<path class="bond-7 atom-7 atom-8" d="M 400.7,130.4 L 425.9,103.7" style="fill:none;fill-rule:evenodd;stroke:#000000;stroke-width:2.0px;stroke-linecap:butt;stroke-linejoin:miter;stroke-opacity:1"/>
<path class="bond-8 atom-8 atom-9" d="M 421.6,99.6 L 460.7,98.4" style="fill:none;fill-rule:evenodd;stroke:#000000;stroke-width:2.0px;stroke-linecap:butt;stroke-linejoin:miter;stroke-opacity:1"/>
<path class="bond-9 atom-9 atom-10" d="M 460.7,98.4 L 466.3,83.5" style="fill:none;fill-rule:evenodd;stroke:#000000;stroke-width:2.0px;stroke-linecap:butt;stroke-linejoin:miter;stroke-opacity:1"/>
<path class="bond-9 atom-9 atom-10" d="M 466.3,83.5 L 471.9,68.6" style="fill:none;fill-rule:evenodd;stroke:#7F4C19;stroke-width:2.0px;stroke-linecap:butt;stroke-linejoin:miter;stroke-opacity:1"/>
<path class="bond-10 atom-9 atom-11" d="M 460.7,98.4 L 489.2,125.2" style="fill:none;fill-rule:evenodd;stroke:#000000;stroke-width:2.0px;stroke-linecap:butt;stroke-linejoin:miter;stroke-opacity:1"/>
<path class="bond-10 atom-9 atom-11" d="M 458.4,104.3 L 483.4,127.8" style="fill:none;fill-rule:evenodd;stroke:#000000;stroke-width:2.0px;stroke-linecap:butt;stroke-linejoin:miter;stroke-opacity:1"/>
<path class="bond-11 atom-11 atom-12" d="M 489.2,125.2 L 503.9,118.6" style="fill:none;fill-rule:evenodd;stroke:#000000;stroke-width:2.0px;stroke-linecap:butt;stroke-linejoin:miter;stroke-opacity:1"/>
<path class="bond-11 atom-11 atom-12" d="M 503.9,118.6 L 518.5,112.0" style="fill:none;fill-rule:evenodd;stroke:#FF0000;stroke-width:2.0px;stroke-linecap:butt;stroke-linejoin:miter;stroke-opacity:1"/>
<path class="bond-12 atom-11 atom-2" d="M 489.2,125.2 L 490.5,164.3" style="fill:none;fill-rule:evenodd;stroke:#000000;stroke-width:2.0px;stroke-linecap:butt;stroke-linejoin:miter;stroke-opacity:1"/>
<path d="M 527.4,180.1 L 527.1,178.1 L 525.3,177.4" style="fill:none;stroke:#000000;stroke-width:2.0px;stroke-linecap:butt;stroke-linejoin:miter;stroke-miterlimit:10;stroke-opacity:1;"/>
<path d="M 465.0,191.4 L 463.7,192.8 L 461.7,192.9" style="fill:none;stroke:#000000;stroke-width:2.0px;stroke-linecap:butt;stroke-linejoin:miter;stroke-miterlimit:10;stroke-opacity:1;"/>
<path d="M 426.5,194.0 L 424.6,194.1 L 423.1,192.7" style="fill:none;stroke:#000000;stroke-width:2.0px;stroke-linecap:butt;stroke-linejoin:miter;stroke-miterlimit:10;stroke-opacity:1;"/>
<path d="M 394.9,130.1 L 394.8,128.2 L 396.1,126.8" style="fill:none;stroke:#000000;stroke-width:2.0px;stroke-linecap:butt;stroke-linejoin:miter;stroke-miterlimit:10;stroke-opacity:1;"/>
<path d="M 420.2,101.1 L 421.6,99.6 L 423.5,99.6" style="fill:none;stroke:#000000;stroke-width:2.0px;stroke-linecap:butt;stroke-linejoin:miter;stroke-miterlimit:10;stroke-opacity:1;"/>
<path class="atom-6" d="M 359.6 177.8 L 361.1 177.8 L 361.1 189.0 L 359.6 189.0 L 359.6 177.8 " fill="#A01EEF"/>
<path class="atom-10" d="M 476.1 61.5 Q 477.2 61.8, 477.7 62.5 Q 478.3 63.1, 478.3 64.1 Q 478.3 65.6, 477.3 66.5 Q 476.3 67.3, 474.5 67.3 L 470.8 67.3 L 470.8 56.2 L 474.0 56.2 Q 475.9 56.2, 476.9 57.0 Q 477.8 57.8, 477.8 59.2 Q 477.8 60.9, 476.1 61.5 M 472.2 57.5 L 472.2 61.0 L 474.0 61.0 Q 475.1 61.0, 475.7 60.5 Q 476.3 60.1, 476.3 59.2 Q 476.3 57.5, 474.0 57.5 L 472.2 57.5 M 474.5 66.1 Q 475.6 66.1, 476.1 65.6 Q 476.7 65.0, 476.7 64.1 Q 476.7 63.2, 476.1 62.7 Q 475.4 62.2, 474.2 62.2 L 472.2 62.2 L 472.2 66.1 L 474.5 66.1 " fill="#7F4C19"/>
<path class="atom-10" d="M 480.8 59.3 L 481.0 60.4 Q 481.8 59.1, 483.2 59.1 Q 483.6 59.1, 484.2 59.3 L 484.0 60.6 Q 483.3 60.5, 482.9 60.5 Q 482.3 60.5, 481.8 60.7 Q 481.4 61.0, 481.1 61.6 L 481.1 67.3 L 479.6 67.3 L 479.6 59.3 L 480.8 59.3 " fill="#7F4C19"/>
<path class="atom-12" d="M 519.8 109.1 Q 519.8 106.4, 521.1 105.0 Q 522.4 103.5, 524.9 103.5 Q 527.4 103.5, 528.7 105.0 Q 530.0 106.4, 530.0 109.1 Q 530.0 111.8, 528.7 113.3 Q 527.3 114.8, 524.9 114.8 Q 522.5 114.8, 521.1 113.3 Q 519.8 111.8, 519.8 109.1 M 524.9 113.6 Q 526.6 113.6, 527.5 112.5 Q 528.4 111.3, 528.4 109.1 Q 528.4 106.9, 527.5 105.8 Q 526.6 104.7, 524.9 104.7 Q 523.2 104.7, 522.3 105.8 Q 521.4 106.9, 521.4 109.1 Q 521.4 111.3, 522.3 112.5 Q 523.2 113.6, 524.9 113.6 " fill="#FF0000"/>
<path class="atom-12" d="M 531.7 103.6 L 533.2 103.6 L 533.2 108.3 L 538.9 108.3 L 538.9 103.6 L 540.4 103.6 L 540.4 114.7 L 538.9 114.7 L 538.9 109.6 L 533.2 109.6 L 533.2 114.7 L 531.7 114.7 L 531.7 103.6 " fill="#FF0000"/>
<path class="legend" d="M 402.8 261.2 Q 402.8 259.9, 403.5 259.3 Q 404.1 258.6, 405.2 258.6 Q 406.3 258.6, 406.9 259.3 L 406.4 259.7 Q 406.0 259.2, 405.2 259.2 Q 404.4 259.2, 404.0 259.7 Q 403.6 260.2, 403.6 261.2 Q 403.6 262.3, 404.0 262.8 Q 404.5 263.4, 405.3 263.4 Q 405.9 263.4, 406.6 263.0 L 406.8 263.6 Q 406.5 263.7, 406.1 263.8 Q 405.7 263.9, 405.2 263.9 Q 404.1 263.9, 403.5 263.2 Q 402.8 262.6, 402.8 261.2 " fill="#000000"/>
<path class="legend" d="M 407.5 261.2 Q 407.5 259.9, 408.1 259.3 Q 408.7 258.6, 409.9 258.6 Q 411.0 258.6, 411.6 259.3 L 411.1 259.7 Q 410.7 259.2, 409.9 259.2 Q 409.1 259.2, 408.7 259.7 Q 408.3 260.2, 408.3 261.2 Q 408.3 262.3, 408.7 262.8 Q 409.1 263.4, 410.0 263.4 Q 410.6 263.4, 411.2 263.0 L 411.5 263.6 Q 411.2 263.7, 410.8 263.8 Q 410.3 263.9, 409.9 263.9 Q 408.7 263.9, 408.1 263.2 Q 407.5 262.6, 407.5 261.2 " fill="#000000"/>
<path class="legend" d="M 412.2 261.2 Q 412.2 259.9, 412.8 259.3 Q 413.4 258.6, 414.6 258.6 Q 415.7 258.6, 416.2 259.3 L 415.8 259.7 Q 415.3 259.2, 414.6 259.2 Q 413.8 259.2, 413.4 259.7 Q 413.0 260.2, 413.0 261.2 Q 413.0 262.3, 413.4 262.8 Q 413.8 263.4, 414.7 263.4 Q 415.2 263.4, 415.9 263.0 L 416.1 263.6 Q 415.9 263.7, 415.4 263.8 Q 415.0 263.9, 414.6 263.9 Q 413.4 263.9, 412.8 263.2 Q 412.2 262.6, 412.2 261.2 " fill="#000000"/>
<path class="legend" d="M 417.2 263.3 L 418.3 263.3 L 418.3 259.4 L 417.0 259.8 L 416.9 259.3 L 418.5 258.6 L 419.0 258.7 L 419.0 263.3 L 420.0 263.3 L 420.0 263.9 L 417.2 263.9 L 417.2 263.3 " fill="#000000"/>
<path class="legend" d="M 420.7 260.7 L 424.1 260.7 L 424.1 261.2 L 420.7 261.2 L 420.7 260.7 M 420.7 262.2 L 424.1 262.2 L 424.1 262.8 L 420.7 262.8 L 420.7 262.2 " fill="#000000"/>
<path class="legend" d="M 425.1 261.2 Q 425.1 259.9, 425.7 259.3 Q 426.3 258.6, 427.5 258.6 Q 428.6 258.6, 429.1 259.3 L 428.6 259.7 Q 428.2 259.2, 427.5 259.2 Q 426.7 259.2, 426.3 259.7 Q 425.8 260.2, 425.8 261.2 Q 425.8 262.3, 426.3 262.8 Q 426.7 263.4, 427.6 263.4 Q 428.1 263.4, 428.8 263.0 L 429.0 263.6 Q 428.7 263.7, 428.3 263.8 Q 427.9 263.9, 427.4 263.9 Q 426.3 263.9, 425.7 263.2 Q 425.1 262.6, 425.1 261.2 " fill="#000000"/>
<path class="legend" d="M 429.8 261.2 Q 429.8 259.9, 430.4 259.3 Q 431.0 258.6, 432.1 258.6 Q 433.2 258.6, 433.8 259.3 L 433.3 259.7 Q 432.9 259.2, 432.1 259.2 Q 431.4 259.2, 430.9 259.7 Q 430.5 260.2, 430.5 261.2 Q 430.5 262.3, 430.9 262.8 Q 431.4 263.4, 432.2 263.4 Q 432.8 263.4, 433.5 263.0 L 433.7 263.6 Q 433.4 263.7, 433.0 263.8 Q 432.6 263.9, 432.1 263.9 Q 431.0 263.9, 430.4 263.2 Q 429.8 262.6, 429.8 261.2 " fill="#000000"/>
<path class="legend" d="M 434.4 260.7 L 437.8 260.7 L 437.8 261.2 L 434.4 261.2 L 434.4 260.7 M 434.4 262.2 L 437.8 262.2 L 437.8 262.8 L 434.4 262.8 L 434.4 262.2 " fill="#000000"/>
<path class="legend" d="M 438.8 261.2 Q 438.8 259.9, 439.4 259.3 Q 440.1 258.6, 441.2 258.6 Q 442.3 258.6, 442.9 259.3 L 442.4 259.7 Q 442.0 259.2, 441.2 259.2 Q 440.4 259.2, 440.0 259.7 Q 439.6 260.2, 439.6 261.2 Q 439.6 262.3, 440.0 262.8 Q 440.5 263.4, 441.3 263.4 Q 441.9 263.4, 442.6 263.0 L 442.8 263.6 Q 442.5 263.7, 442.1 263.8 Q 441.7 263.9, 441.2 263.9 Q 440.1 263.9, 439.4 263.2 Q 438.8 262.6, 438.8 261.2 " fill="#000000"/>
<path class="legend" d="M 443.5 261.8 Q 443.5 260.7, 443.8 259.8 Q 444.1 259.0, 444.7 258.0 L 445.1 258.3 Q 444.7 259.2, 444.4 260.0 Q 444.2 260.7, 444.2 261.8 Q 444.2 262.8, 444.4 263.6 Q 444.7 264.3, 445.1 265.3 L 444.7 265.5 Q 444.1 264.6, 443.8 263.7 Q 443.5 262.8, 443.5 261.8 " fill="#000000"/>
<path class="legend" d="M 445.7 258.6 L 446.4 258.6 L 446.4 263.9 L 445.7 263.9 L 445.7 258.6 " fill="#000000"/>
<path class="legend" d="M 449.0 261.8 Q 449.0 262.8, 448.7 263.7 Q 448.4 264.6, 447.8 265.5 L 447.3 265.3 Q 447.8 264.3, 448.1 263.6 Q 448.3 262.8, 448.3 261.8 Q 448.3 260.7, 448.1 260.0 Q 447.8 259.2, 447.3 258.3 L 447.8 258.0 Q 448.4 259.0, 448.7 259.8 Q 449.0 260.7, 449.0 261.8 " fill="#000000"/>
<path class="legend" d="M 449.7 261.2 Q 449.7 259.9, 450.3 259.3 Q 450.9 258.6, 452.1 258.6 Q 453.1 258.6, 453.7 259.3 L 453.2 259.7 Q 452.8 259.2, 452.1 259.2 Q 451.3 259.2, 450.8 259.7 Q 450.4 260.2, 450.4 261.2 Q 450.4 262.3, 450.9 262.8 Q 451.3 263.4, 452.1 263.4 Q 452.7 263.4, 453.4 263.0 L 453.6 263.6 Q 453.3 263.7, 452.9 263.8 Q 452.5 263.9, 452.0 263.9 Q 450.9 263.9, 450.3 263.2 Q 449.7 262.6, 449.7 261.2 " fill="#000000"/>
<path class="legend" d="M 454.3 260.7 L 457.7 260.7 L 457.7 261.2 L 454.3 261.2 L 454.3 260.7 M 454.3 262.2 L 457.7 262.2 L 457.7 262.8 L 454.3 262.8 L 454.3 262.2 " fill="#000000"/>
<path class="legend" d="M 458.8 261.2 Q 458.8 259.9, 459.4 259.3 Q 460.0 258.6, 461.1 258.6 Q 462.2 258.6, 462.8 259.3 L 462.3 259.7 Q 461.9 259.2, 461.1 259.2 Q 460.3 259.2, 459.9 259.7 Q 459.5 260.2, 459.5 261.2 Q 459.5 262.3, 459.9 262.8 Q 460.4 263.4, 461.2 263.4 Q 461.8 263.4, 462.5 263.0 L 462.7 263.6 Q 462.4 263.7, 462.0 263.8 Q 461.6 263.9, 461.1 263.9 Q 460.0 263.9, 459.4 263.2 Q 458.8 262.6, 458.8 261.2 " fill="#000000"/>
<path class="legend" d="M 463.4 261.2 Q 463.4 259.9, 464.0 259.3 Q 464.7 258.6, 465.8 258.6 Q 466.9 258.6, 467.5 259.3 L 467.0 259.7 Q 466.6 259.2, 465.8 259.2 Q 465.0 259.2, 464.6 259.7 Q 464.2 260.2, 464.2 261.2 Q 464.2 262.3, 464.6 262.8 Q 465.1 263.4, 465.9 263.4 Q 466.5 263.4, 467.2 263.0 L 467.4 263.6 Q 467.1 263.7, 466.7 263.8 Q 466.3 263.9, 465.8 263.9 Q 464.7 263.9, 464.0 263.2 Q 463.4 262.6, 463.4 261.2 " fill="#000000"/>
<path class="legend" d="M 468.1 261.8 Q 468.1 260.7, 468.4 259.8 Q 468.7 259.0, 469.3 258.0 L 469.7 258.3 Q 469.3 259.2, 469.0 260.0 Q 468.8 260.7, 468.8 261.8 Q 468.8 262.8, 469.0 263.6 Q 469.3 264.3, 469.7 265.3 L 469.3 265.5 Q 468.7 264.6, 468.4 263.7 Q 468.1 262.8, 468.1 261.8 " fill="#000000"/>
<path class="legend" d="M 472.8 261.1 Q 473.3 261.3, 473.6 261.6 Q 473.8 261.9, 473.8 262.3 Q 473.8 263.1, 473.4 263.5 Q 472.9 263.9, 472.0 263.9 L 470.2 263.9 L 470.2 258.6 L 471.8 258.6 Q 472.7 258.6, 473.2 259.0 Q 473.6 259.4, 473.6 260.0 Q 473.6 260.8, 472.8 261.1 M 471.0 259.2 L 471.0 260.9 L 471.8 260.9 Q 472.3 260.9, 472.6 260.7 Q 472.9 260.4, 472.9 260.0 Q 472.9 259.2, 471.8 259.2 L 471.0 259.2 M 472.0 263.3 Q 472.5 263.3, 472.8 263.0 Q 473.1 262.8, 473.1 262.3 Q 473.1 261.9, 472.8 261.7 Q 472.5 261.5, 471.9 261.5 L 471.0 261.5 L 471.0 263.3 L 472.0 263.3 " fill="#000000"/>
<path class="legend" d="M 475.1 260.1 L 475.1 260.6 Q 475.5 260.0, 476.2 260.0 Q 476.4 260.0, 476.7 260.1 L 476.6 260.7 Q 476.2 260.6, 476.1 260.6 Q 475.8 260.6, 475.5 260.7 Q 475.3 260.9, 475.2 261.2 L 475.2 263.9 L 474.5 263.9 L 474.5 260.1 L 475.1 260.1 " fill="#000000"/>
<path class="legend" d="M 478.7 261.8 Q 478.7 262.8, 478.4 263.7 Q 478.1 264.6, 477.5 265.5 L 477.1 265.3 Q 477.6 264.3, 477.8 263.6 Q 478.1 262.8, 478.1 261.8 Q 478.1 260.7, 477.8 260.0 Q 477.6 259.2, 477.1 258.3 L 477.5 258.0 Q 478.1 259.0, 478.4 259.8 Q 478.7 260.7, 478.7 261.8 " fill="#000000"/>
<path class="legend" d="M 479.4 260.7 L 482.8 260.7 L 482.8 261.2 L 479.4 261.2 L 479.4 260.7 M 479.4 262.2 L 482.8 262.2 L 482.8 262.8 L 479.4 262.8 L 479.4 262.2 " fill="#000000"/>
<path class="legend" d="M 483.8 261.2 Q 483.8 259.9, 484.5 259.3 Q 485.1 258.6, 486.2 258.6 Q 487.3 258.6, 487.9 259.3 L 487.4 259.7 Q 487.0 259.2, 486.2 259.2 Q 485.4 259.2, 485.0 259.7 Q 484.6 260.2, 484.6 261.2 Q 484.6 262.3, 485.0 262.8 Q 485.5 263.4, 486.3 263.4 Q 486.9 263.4, 487.6 263.0 L 487.8 263.6 Q 487.5 263.7, 487.1 263.8 Q 486.7 263.9, 486.2 263.9 Q 485.1 263.9, 484.5 263.2 Q 483.8 262.6, 483.8 261.2 " fill="#000000"/>
<path class="legend" d="M 488.8 263.3 L 490.0 263.3 L 490.0 259.4 L 488.7 259.8 L 488.5 259.3 L 490.1 258.6 L 490.7 258.7 L 490.7 263.3 L 491.7 263.3 L 491.7 263.9 L 488.8 263.9 L 488.8 263.3 " fill="#000000"/>
<path class="legend" d="M 492.3 261.2 Q 492.3 260.0, 493.0 259.3 Q 493.6 258.6, 494.7 258.6 Q 495.9 258.6, 496.5 259.3 Q 497.2 260.0, 497.2 261.2 Q 497.2 262.5, 496.5 263.2 Q 495.9 264.0, 494.7 264.0 Q 493.6 264.0, 493.0 263.2 Q 492.3 262.5, 492.3 261.2 M 494.7 263.4 Q 495.5 263.4, 496.0 262.8 Q 496.4 262.3, 496.4 261.2 Q 496.4 260.2, 496.0 259.7 Q 495.5 259.2, 494.7 259.2 Q 493.9 259.2, 493.5 259.7 Q 493.1 260.2, 493.1 261.2 Q 493.1 262.3, 493.5 262.8 Q 493.9 263.4, 494.7 263.4 " fill="#000000"/>
<path class="legend" d="M 423.6 265.6 L 424.3 265.6 L 424.3 270.2 L 426.7 270.2 L 426.7 270.8 L 423.6 270.8 L 423.6 265.6 " fill="#000000"/>
<path class="legend" d="M 427.1 268.9 Q 427.1 268.0, 427.6 267.5 Q 428.1 267.0, 428.9 267.0 Q 429.8 267.0, 430.3 267.5 Q 430.8 268.0, 430.8 268.9 Q 430.8 269.9, 430.3 270.4 Q 429.8 270.9, 428.9 270.9 Q 428.1 270.9, 427.6 270.4 Q 427.1 269.9, 427.1 268.9 M 427.8 268.9 Q 427.8 269.6, 428.1 270.0 Q 428.4 270.4, 428.9 270.4 Q 429.5 270.4, 429.8 270.0 Q 430.0 269.6, 430.0 268.9 Q 430.0 268.2, 429.8 267.9 Q 429.5 267.5, 428.9 267.5 Q 428.4 267.5, 428.1 267.9 Q 427.8 268.2, 427.8 268.9 " fill="#000000"/>
<path class="legend" d="M 434.8 267.0 L 434.8 271.1 Q 434.8 272.7, 433.1 272.7 Q 432.2 272.7, 431.5 272.3 L 431.7 271.8 Q 432.1 272.0, 432.4 272.1 Q 432.7 272.2, 433.1 272.2 Q 433.6 272.2, 433.9 271.9 Q 434.1 271.7, 434.1 271.1 L 434.1 270.4 Q 433.7 270.9, 433.0 270.9 Q 432.2 270.9, 431.8 270.4 Q 431.3 269.9, 431.3 269.0 Q 431.3 268.0, 431.9 267.5 Q 432.4 267.0, 433.3 267.0 Q 433.8 267.0, 434.2 267.1 L 434.2 267.0 L 434.8 267.0 M 433.1 270.4 Q 433.4 270.4, 433.7 270.1 Q 434.0 269.9, 434.1 269.6 L 434.1 267.6 Q 433.7 267.5, 433.3 267.5 Q 432.7 267.5, 432.4 267.9 Q 432.0 268.3, 432.0 269.0 Q 432.0 269.6, 432.3 270.0 Q 432.6 270.4, 433.1 270.4 " fill="#000000"/>
<path class="legend" d="M 437.2 265.6 Q 438.1 265.6, 438.6 266.0 Q 439.0 266.4, 439.0 267.1 Q 439.0 267.9, 438.5 268.3 Q 438.1 268.7, 437.2 268.7 L 436.4 268.7 L 436.4 270.8 L 435.6 270.8 L 435.6 265.6 L 437.2 265.6 M 437.2 268.1 Q 437.7 268.1, 438.0 267.8 Q 438.3 267.6, 438.3 267.1 Q 438.3 266.7, 438.0 266.4 Q 437.7 266.2, 437.2 266.2 L 436.4 266.2 L 436.4 268.1 L 437.2 268.1 " fill="#000000"/>
<path class="legend" d="M 439.6 270.0 L 440.3 270.0 L 440.3 270.7 L 439.6 270.7 L 439.6 270.0 M 439.6 267.4 L 440.3 267.4 L 440.3 268.2 L 439.6 268.2 L 439.6 267.4 " fill="#000000"/>
<path class="legend" d="" fill="#000000"/>
<path class="legend" d="M 443.8 266.6 Q 444.0 266.1, 444.5 265.8 Q 445.0 265.5, 445.6 265.5 Q 446.4 265.5, 446.8 266.0 Q 447.3 266.4, 447.3 267.2 Q 447.3 267.9, 446.7 268.7 Q 446.1 269.4, 444.9 270.2 L 447.4 270.2 L 447.4 270.8 L 443.8 270.8 L 443.8 270.3 Q 444.8 269.6, 445.4 269.1 Q 446.0 268.6, 446.3 268.1 Q 446.5 267.7, 446.5 267.2 Q 446.5 266.7, 446.3 266.4 Q 446.0 266.1, 445.6 266.1 Q 445.2 266.1, 444.9 266.3 Q 444.6 266.5, 444.4 266.8 L 443.8 266.6 " fill="#000000"/>
<path class="legend" d="M 448.0 270.1 L 448.8 270.1 L 448.8 270.8 L 448.0 270.8 L 448.0 270.1 " fill="#000000"/>
<path class="legend" d="M 451.4 267.6 Q 451.9 267.6, 452.2 267.8 Q 452.6 267.9, 452.8 268.3 Q 453.1 268.7, 453.1 269.2 Q 453.1 269.7, 452.8 270.1 Q 452.5 270.5, 452.1 270.7 Q 451.7 270.9, 451.2 270.9 Q 450.7 270.9, 450.3 270.7 Q 449.8 270.5, 449.5 270.2 L 449.9 269.7 Q 450.2 270.0, 450.5 270.2 Q 450.9 270.3, 451.2 270.3 Q 451.7 270.3, 452.0 270.0 Q 452.3 269.7, 452.3 269.2 Q 452.3 268.6, 452.0 268.4 Q 451.7 268.1, 451.2 268.1 Q 450.7 268.1, 450.2 268.3 L 449.8 268.1 L 450.0 265.6 L 452.7 265.6 L 452.7 266.2 L 450.6 266.2 L 450.5 267.7 Q 451.0 267.6, 451.4 267.6 " fill="#000000"/>
<path class="legend" d="" fill="#000000"/>
<path class="legend" d="M 459.3 267.0 L 459.9 267.0 L 458.6 270.8 L 457.7 270.8 L 456.4 267.0 L 457.1 267.0 L 458.2 270.2 L 459.3 267.0 " fill="#000000"/>
<path class="legend" d="M 460.4 270.1 Q 460.8 270.2, 461.0 270.3 Q 461.3 270.3, 461.5 270.3 Q 461.9 270.3, 462.0 270.2 Q 462.2 270.0, 462.2 269.8 Q 462.2 269.6, 462.1 269.5 Q 462.0 269.4, 461.9 269.3 Q 461.8 269.3, 461.5 269.2 Q 461.4 269.2, 461.1 269.0 Q 460.7 268.9, 460.5 268.7 Q 460.4 268.4, 460.4 268.0 Q 460.4 267.6, 460.7 267.3 Q 461.1 267.0, 461.8 267.0 Q 462.1 267.0, 462.3 267.0 Q 462.6 267.1, 462.8 267.2 L 462.7 267.8 Q 462.4 267.7, 462.2 267.6 Q 462.0 267.5, 461.8 267.5 Q 461.4 267.5, 461.2 267.7 Q 461.1 267.8, 461.1 268.0 Q 461.1 268.2, 461.2 268.3 Q 461.3 268.4, 461.7 268.6 Q 461.7 268.6, 461.8 268.6 L 462.0 268.7 Q 462.3 268.8, 462.5 268.9 Q 462.7 269.0, 462.8 269.2 Q 462.9 269.4, 462.9 269.8 Q 462.9 270.3, 462.5 270.6 Q 462.2 270.9, 461.5 270.9 Q 461.2 270.9, 460.9 270.8 Q 460.5 270.8, 460.2 270.6 L 460.4 270.1 " fill="#000000"/>
<path class="legend" d="" fill="#000000"/>
<path class="legend" d="M 469.7 269.0 L 470.3 269.0 L 470.3 269.6 L 469.7 269.6 L 469.7 270.8 L 469.0 270.8 L 469.0 269.6 L 466.3 269.6 L 466.3 269.2 L 468.6 265.6 L 469.7 265.6 L 469.7 269.0 M 467.1 269.0 L 469.0 269.0 L 469.0 266.1 L 467.1 269.0 " fill="#000000"/>
<path class="legend" d="M 470.9 270.1 L 471.7 270.1 L 471.7 270.8 L 470.9 270.8 L 470.9 270.1 " fill="#000000"/>
<path class="legend" d="M 475.8 269.0 L 476.4 269.0 L 476.4 269.6 L 475.8 269.6 L 475.8 270.8 L 475.1 270.8 L 475.1 269.6 L 472.4 269.6 L 472.4 269.2 L 474.7 265.6 L 475.8 265.6 L 475.8 269.0 M 473.2 269.0 L 475.1 269.0 L 475.1 266.1 L 473.2 269.0 " fill="#000000"/>
<path class="legend" d="M 425.9 279.0 Q 426.2 279.0, 426.5 278.9 L 426.7 279.5 Q 426.3 279.6, 425.9 279.6 Q 425.3 279.6, 424.8 279.2 Q 424.4 278.8, 424.3 278.1 Q 423.3 277.9, 422.8 277.2 Q 422.3 276.5, 422.3 275.4 Q 422.3 274.1, 422.9 273.4 Q 423.6 272.7, 424.7 272.7 Q 425.9 272.7, 426.5 273.4 Q 427.2 274.1, 427.2 275.4 Q 427.2 276.6, 426.6 277.3 Q 426.0 278.0, 424.9 278.1 Q 425.0 278.5, 425.3 278.7 Q 425.5 279.0, 425.9 279.0 M 423.1 275.4 Q 423.1 276.4, 423.5 277.0 Q 423.9 277.5, 424.7 277.5 Q 425.5 277.5, 426.0 277.0 Q 426.4 276.4, 426.4 275.4 Q 426.4 274.3, 426.0 273.8 Q 425.5 273.3, 424.7 273.3 Q 423.9 273.3, 423.5 273.8 Q 423.1 274.3, 423.1 275.4 " fill="#000000"/>
<path class="legend" d="M 427.8 272.8 L 430.9 272.8 L 430.9 273.4 L 428.5 273.4 L 428.5 275.0 L 430.6 275.0 L 430.6 275.6 L 428.5 275.6 L 428.5 277.4 L 431.0 277.4 L 431.0 278.0 L 427.8 278.0 L 427.8 272.8 " fill="#000000"/>
<path class="legend" d="M 433.3 272.8 Q 434.4 272.8, 435.1 273.5 Q 435.7 274.1, 435.7 275.4 Q 435.7 276.6, 435.1 277.3 Q 434.4 278.0, 433.3 278.0 L 431.6 278.0 L 431.6 272.8 L 433.3 272.8 M 433.3 277.4 Q 434.1 277.4, 434.5 276.9 Q 435.0 276.4, 435.0 275.4 Q 435.0 274.4, 434.5 273.9 Q 434.1 273.4, 433.3 273.4 L 432.3 273.4 L 432.3 277.4 L 433.3 277.4 " fill="#000000"/>
<path class="legend" d="M 436.3 277.2 L 437.0 277.2 L 437.0 277.9 L 436.3 277.9 L 436.3 277.2 M 436.3 274.6 L 437.0 274.6 L 437.0 275.3 L 436.3 275.3 L 436.3 274.6 " fill="#000000"/>
<path class="legend" d="" fill="#000000"/>
<path class="legend" d="M 442.5 278.1 Q 441.5 278.1, 441.0 277.4 Q 440.5 276.7, 440.5 275.4 Q 440.5 274.1, 441.0 273.4 Q 441.5 272.7, 442.5 272.7 Q 443.4 272.7, 443.9 273.4 Q 444.4 274.1, 444.4 275.4 Q 444.4 276.7, 443.9 277.4 Q 443.4 278.1, 442.5 278.1 M 442.5 277.5 Q 443.0 277.5, 443.3 277.0 Q 443.6 276.4, 443.6 275.4 Q 443.6 274.4, 443.3 273.8 Q 443.0 273.3, 442.5 273.3 Q 441.9 273.3, 441.6 273.8 Q 441.3 274.4, 441.3 275.4 Q 441.3 276.4, 441.6 277.0 Q 441.9 277.5, 442.5 277.5 " fill="#000000"/>
<path class="legend" d="M 445.1 277.3 L 445.9 277.3 L 445.9 278.0 L 445.1 278.0 L 445.1 277.3 " fill="#000000"/>
<path class="legend" d="M 449.3 275.2 Q 449.7 275.4, 450.0 275.8 Q 450.3 276.1, 450.3 276.6 Q 450.3 277.0, 450.1 277.4 Q 449.8 277.7, 449.4 277.9 Q 449.0 278.1, 448.5 278.1 Q 447.6 278.1, 447.1 277.7 Q 446.6 277.3, 446.6 276.6 Q 446.6 276.2, 446.8 275.8 Q 447.0 275.5, 447.5 275.3 Q 447.2 275.1, 447.0 274.8 Q 446.8 274.5, 446.8 274.1 Q 446.8 273.4, 447.2 273.1 Q 447.7 272.7, 448.4 272.7 Q 449.2 272.7, 449.7 273.1 Q 450.1 273.4, 450.1 274.1 Q 450.1 274.4, 449.9 274.7 Q 449.7 275.0, 449.3 275.2 M 448.4 273.3 Q 448.0 273.3, 447.8 273.5 Q 447.5 273.7, 447.5 274.1 Q 447.5 274.3, 447.7 274.5 Q 447.8 274.7, 448.1 274.8 Q 448.3 274.9, 448.8 275.1 Q 449.1 274.8, 449.2 274.6 Q 449.4 274.4, 449.4 274.1 Q 449.4 273.7, 449.1 273.5 Q 448.9 273.3, 448.4 273.3 M 448.5 277.5 Q 449.0 277.5, 449.3 277.3 Q 449.6 277.0, 449.6 276.6 Q 449.6 276.3, 449.4 276.1 Q 449.2 275.9, 449.0 275.8 Q 448.8 275.7, 448.4 275.6 L 448.0 275.5 Q 447.7 275.7, 447.5 276.0 Q 447.3 276.2, 447.3 276.6 Q 447.3 277.0, 447.6 277.3 Q 448.0 277.5, 448.5 277.5 " fill="#000000"/>
<path class="legend" d="" fill="#000000"/>
<path class="legend" d="M 456.6 274.2 L 457.3 274.2 L 456.0 278.0 L 455.1 278.0 L 453.7 274.2 L 454.5 274.2 L 455.6 277.4 L 456.6 274.2 " fill="#000000"/>
<path class="legend" d="M 457.8 277.2 Q 458.2 277.4, 458.4 277.4 Q 458.7 277.5, 458.9 277.5 Q 459.2 277.5, 459.4 277.4 Q 459.6 277.2, 459.6 277.0 Q 459.6 276.8, 459.5 276.7 Q 459.4 276.6, 459.3 276.5 Q 459.2 276.5, 458.8 276.4 Q 458.8 276.3, 458.5 276.2 Q 458.1 276.1, 457.9 275.8 Q 457.8 275.6, 457.8 275.2 Q 457.8 274.8, 458.1 274.5 Q 458.5 274.1, 459.2 274.1 Q 459.4 274.1, 459.7 274.2 Q 460.0 274.3, 460.2 274.4 L 460.1 274.9 Q 459.8 274.8, 459.6 274.8 Q 459.4 274.7, 459.2 274.7 Q 458.8 274.7, 458.6 274.9 Q 458.4 275.0, 458.4 275.2 Q 458.4 275.4, 458.6 275.5 Q 458.7 275.6, 459.0 275.7 Q 459.1 275.8, 459.2 275.8 L 459.4 275.9 Q 459.7 276.0, 459.9 276.1 Q 460.1 276.2, 460.2 276.4 Q 460.3 276.6, 460.3 276.9 Q 460.3 277.5, 459.9 277.8 Q 459.5 278.1, 458.9 278.1 Q 458.6 278.1, 458.2 278.0 Q 457.9 277.9, 457.6 277.8 L 457.8 277.2 " fill="#000000"/>
<path class="legend" d="" fill="#000000"/>
<path class="legend" d="M 465.6 278.1 Q 464.6 278.1, 464.2 277.4 Q 463.7 276.7, 463.7 275.4 Q 463.7 274.1, 464.2 273.4 Q 464.6 272.7, 465.6 272.7 Q 466.6 272.7, 467.1 273.4 Q 467.5 274.1, 467.5 275.4 Q 467.5 276.7, 467.0 277.4 Q 466.6 278.1, 465.6 278.1 M 465.6 277.5 Q 466.2 277.5, 466.5 277.0 Q 466.8 276.4, 466.8 275.4 Q 466.8 274.4, 466.5 273.8 Q 466.2 273.3, 465.6 273.3 Q 465.0 273.3, 464.7 273.8 Q 464.4 274.4, 464.4 275.4 Q 464.4 276.4, 464.7 277.0 Q 465.0 277.5, 465.6 277.5 " fill="#000000"/>
<path class="legend" d="M 468.3 277.3 L 469.0 277.3 L 469.0 278.0 L 468.3 278.0 L 468.3 277.3 " fill="#000000"/>
<path class="legend" d="M 471.8 274.7 Q 472.2 274.7, 472.6 274.9 Q 473.0 275.1, 473.2 275.5 Q 473.4 275.9, 473.4 276.3 Q 473.4 276.8, 473.1 277.2 Q 472.9 277.6, 472.5 277.9 Q 472.1 278.1, 471.6 278.1 Q 470.7 278.1, 470.2 277.5 Q 469.7 276.8, 469.7 275.5 Q 469.7 274.2, 470.3 273.4 Q 470.9 272.7, 472.0 272.7 Q 472.3 272.7, 472.6 272.8 Q 472.9 272.9, 473.2 273.0 L 472.9 273.5 Q 472.5 273.3, 472.0 273.3 Q 471.3 273.3, 470.9 273.8 Q 470.5 274.3, 470.5 275.2 Q 470.7 275.0, 471.1 274.9 Q 471.4 274.7, 471.8 274.7 M 471.6 277.5 Q 471.9 277.5, 472.1 277.3 Q 472.4 277.2, 472.5 276.9 Q 472.6 276.7, 472.6 276.3 Q 472.6 275.9, 472.4 275.6 Q 472.1 275.3, 471.7 275.3 Q 471.3 275.3, 471.0 275.5 Q 470.7 275.6, 470.5 275.8 Q 470.5 276.7, 470.8 277.1 Q 471.1 277.5, 471.6 277.5 " fill="#000000"/>
<path class="legend" d="M 475.8 272.7 Q 476.7 272.7, 477.2 273.3 Q 477.7 274.0, 477.7 275.2 Q 477.7 276.6, 477.1 277.4 Q 476.5 278.1, 475.4 278.1 Q 475.1 278.1, 474.8 278.0 Q 474.5 277.9, 474.2 277.8 L 474.5 277.3 Q 474.9 277.5, 475.4 277.5 Q 476.1 277.5, 476.5 277.0 Q 476.9 276.5, 476.9 275.5 Q 476.7 275.8, 476.3 275.9 Q 476.0 276.0, 475.6 276.0 Q 475.2 276.0, 474.8 275.8 Q 474.4 275.6, 474.2 275.3 Q 474.0 274.9, 474.0 274.5 Q 474.0 273.9, 474.3 273.6 Q 474.5 273.2, 474.9 272.9 Q 475.3 272.7, 475.8 272.7 M 474.8 274.5 Q 474.8 274.9, 475.0 275.2 Q 475.3 275.5, 475.8 275.5 Q 476.1 275.5, 476.4 275.3 Q 476.7 275.2, 476.9 275.0 Q 476.9 274.1, 476.6 273.7 Q 476.3 273.3, 475.8 273.3 Q 475.5 273.3, 475.3 273.5 Q 475.0 273.6, 474.9 273.9 Q 474.8 274.1, 474.8 274.5 " fill="#000000"/>
<path class="legend" d="M 424.5 284.9 L 423.9 284.9 L 423.3 280.6 L 421.9 284.9 L 421.2 284.9 L 419.7 280.6 L 419.2 284.9 L 418.5 284.9 L 419.2 279.7 L 420.1 279.7 L 421.5 283.9 L 423.0 279.7 L 423.9 279.7 L 424.5 284.9 " fill="#000000"/>
<path class="legend" d="M 431.8 279.7 L 432.6 279.7 L 431.2 284.9 L 430.1 284.9 L 428.9 280.5 L 427.8 284.9 L 426.7 284.9 L 425.3 279.7 L 426.0 279.7 L 427.3 284.3 L 428.5 279.7 L 429.4 279.7 L 430.6 284.3 L 431.8 279.7 " fill="#000000"/>
<path class="legend" d="M 433.1 284.1 L 433.8 284.1 L 433.8 284.8 L 433.1 284.8 L 433.1 284.1 M 433.1 281.5 L 433.8 281.5 L 433.8 282.2 L 433.1 282.2 L 433.1 281.5 " fill="#000000"/>
<path class="legend" d="" fill="#000000"/>
<path class="legend" d="M 439.9 282.2 Q 440.4 282.3, 440.7 282.6 Q 440.9 283.0, 440.9 283.5 Q 440.9 283.9, 440.7 284.3 Q 440.5 284.6, 440.1 284.8 Q 439.7 285.0, 439.1 285.0 Q 438.6 285.0, 438.2 284.8 Q 437.7 284.6, 437.4 284.2 L 437.8 283.8 Q 438.2 284.1, 438.4 284.3 Q 438.7 284.4, 439.1 284.4 Q 439.6 284.4, 439.9 284.2 Q 440.2 283.9, 440.2 283.5 Q 440.2 282.9, 439.9 282.7 Q 439.6 282.5, 439.0 282.5 L 438.6 282.5 L 438.6 281.9 L 438.9 281.9 Q 439.5 281.9, 439.8 281.7 Q 440.1 281.4, 440.1 281.0 Q 440.1 280.6, 439.8 280.4 Q 439.6 280.2, 439.2 280.2 Q 438.7 280.2, 438.4 280.4 Q 438.2 280.5, 438.0 280.9 L 437.5 280.6 Q 437.6 280.2, 438.1 279.9 Q 438.5 279.6, 439.2 279.6 Q 439.9 279.6, 440.4 280.0 Q 440.8 280.3, 440.8 281.0 Q 440.8 281.4, 440.6 281.7 Q 440.4 282.0, 439.9 282.2 " fill="#000000"/>
<path class="legend" d="M 443.6 281.6 Q 444.0 281.6, 444.4 281.8 Q 444.8 282.0, 445.0 282.4 Q 445.2 282.8, 445.2 283.3 Q 445.2 283.8, 445.0 284.2 Q 444.7 284.6, 444.3 284.8 Q 443.8 285.0, 443.3 285.0 Q 442.9 285.0, 442.4 284.8 Q 442.0 284.6, 441.7 284.3 L 442.1 283.8 Q 442.4 284.1, 442.7 284.2 Q 443.0 284.4, 443.4 284.4 Q 443.8 284.4, 444.2 284.1 Q 444.5 283.8, 444.5 283.3 Q 444.5 282.7, 444.2 282.5 Q 443.8 282.2, 443.3 282.2 Q 442.9 282.2, 442.4 282.4 L 441.9 282.2 L 442.2 279.7 L 444.9 279.7 L 444.8 280.3 L 442.8 280.3 L 442.6 281.8 Q 443.1 281.6, 443.6 281.6 " fill="#000000"/>
<path class="legend" d="M 447.8 285.0 Q 446.8 285.0, 446.3 284.3 Q 445.9 283.6, 445.9 282.3 Q 445.9 281.0, 446.3 280.3 Q 446.8 279.6, 447.8 279.6 Q 448.8 279.6, 449.2 280.3 Q 449.7 281.0, 449.7 282.3 Q 449.7 283.6, 449.2 284.3 Q 448.8 285.0, 447.8 285.0 M 447.8 284.4 Q 448.4 284.4, 448.7 283.9 Q 449.0 283.3, 449.0 282.3 Q 449.0 281.3, 448.7 280.7 Q 448.4 280.2, 447.8 280.2 Q 447.2 280.2, 446.9 280.7 Q 446.6 281.3, 446.6 282.3 Q 446.6 283.3, 446.9 283.9 Q 447.2 284.4, 447.8 284.4 " fill="#000000"/>
<path class="legend" d="M 450.5 284.2 L 451.2 284.2 L 451.2 284.9 L 450.5 284.9 L 450.5 284.2 " fill="#000000"/>
<path class="legend" d="M 453.9 285.0 Q 453.0 285.0, 452.5 284.3 Q 452.0 283.6, 452.0 282.3 Q 452.0 281.0, 452.5 280.3 Q 453.0 279.6, 453.9 279.6 Q 454.9 279.6, 455.4 280.3 Q 455.8 281.0, 455.8 282.3 Q 455.8 283.6, 455.4 284.3 Q 454.9 285.0, 453.9 285.0 M 453.9 284.4 Q 454.5 284.4, 454.8 283.9 Q 455.1 283.3, 455.1 282.3 Q 455.1 281.3, 454.8 280.7 Q 454.5 280.2, 453.9 280.2 Q 453.4 280.2, 453.1 280.7 Q 452.7 281.3, 452.7 282.3 Q 452.7 283.3, 453.1 283.9 Q 453.4 284.4, 453.9 284.4 " fill="#000000"/>
<path class="legend" d="" fill="#000000"/>
<path class="legend" d="M 462.3 281.1 L 463.0 281.1 L 461.6 284.9 L 460.7 284.9 L 459.4 281.1 L 460.1 281.1 L 461.2 284.3 L 462.3 281.1 " fill="#000000"/>
<path class="legend" d="M 463.5 284.1 Q 463.9 284.3, 464.1 284.3 Q 464.4 284.4, 464.6 284.4 Q 464.9 284.4, 465.1 284.3 Q 465.3 284.1, 465.3 283.9 Q 465.3 283.7, 465.2 283.6 Q 465.1 283.5, 465.0 283.4 Q 464.9 283.4, 464.5 283.3 Q 464.5 283.2, 464.2 283.1 Q 463.8 283.0, 463.6 282.8 Q 463.4 282.5, 463.4 282.1 Q 463.4 281.7, 463.8 281.4 Q 464.2 281.0, 464.9 281.0 Q 465.1 281.0, 465.4 281.1 Q 465.7 281.2, 465.9 281.3 L 465.7 281.8 Q 465.5 281.7, 465.3 281.7 Q 465.1 281.6, 464.9 281.6 Q 464.5 281.6, 464.3 281.8 Q 464.1 281.9, 464.1 282.1 Q 464.1 282.3, 464.3 282.4 Q 464.4 282.5, 464.7 282.6 Q 464.8 282.7, 464.9 282.7 L 465.1 282.8 Q 465.4 282.9, 465.6 283.0 Q 465.8 283.1, 465.9 283.3 Q 466.0 283.5, 466.0 283.8 Q 466.0 284.4, 465.6 284.7 Q 465.2 285.0, 464.6 285.0 Q 464.3 285.0, 463.9 284.9 Q 463.6 284.8, 463.3 284.7 L 463.5 284.1 " fill="#000000"/>
<path class="legend" d="" fill="#000000"/>
<path class="legend" d="M 472.0 282.2 Q 472.5 282.3, 472.8 282.6 Q 473.0 283.0, 473.0 283.5 Q 473.0 283.9, 472.8 284.3 Q 472.6 284.6, 472.2 284.8 Q 471.7 285.0, 471.2 285.0 Q 470.6 285.0, 470.2 284.8 Q 469.8 284.6, 469.5 284.2 L 469.9 283.8 Q 470.2 284.1, 470.5 284.3 Q 470.8 284.4, 471.2 284.4 Q 471.7 284.4, 472.0 284.2 Q 472.3 283.9, 472.3 283.5 Q 472.3 282.9, 472.0 282.7 Q 471.7 282.5, 471.0 282.5 L 470.6 282.5 L 470.6 281.9 L 471.0 281.9 Q 471.5 281.9, 471.8 281.7 Q 472.2 281.4, 472.2 281.0 Q 472.2 280.6, 471.9 280.4 Q 471.6 280.2, 471.2 280.2 Q 470.8 280.2, 470.5 280.4 Q 470.2 280.5, 470.0 280.9 L 469.5 280.6 Q 469.7 280.2, 470.1 279.9 Q 470.6 279.6, 471.2 279.6 Q 472.0 279.6, 472.4 280.0 Q 472.9 280.3, 472.9 281.0 Q 472.9 281.4, 472.7 281.7 Q 472.4 282.0, 472.0 282.2 " fill="#000000"/>
<path class="legend" d="M 475.6 281.6 Q 476.1 281.6, 476.5 281.8 Q 476.9 282.0, 477.1 282.4 Q 477.3 282.8, 477.3 283.3 Q 477.3 283.8, 477.0 284.2 Q 476.8 284.6, 476.3 284.8 Q 475.9 285.0, 475.4 285.0 Q 474.9 285.0, 474.5 284.8 Q 474.0 284.6, 473.7 284.3 L 474.2 283.8 Q 474.4 284.1, 474.8 284.2 Q 475.1 284.4, 475.4 284.4 Q 475.9 284.4, 476.2 284.1 Q 476.5 283.8, 476.5 283.3 Q 476.5 282.7, 476.2 282.5 Q 475.9 282.2, 475.4 282.2 Q 474.9 282.2, 474.4 282.4 L 474.0 282.2 L 474.3 279.7 L 477.0 279.7 L 476.9 280.3 L 474.9 280.3 L 474.7 281.8 Q 475.2 281.6, 475.6 281.6 " fill="#000000"/>
<path class="legend" d="M 478.0 280.7 Q 478.1 280.2, 478.6 279.9 Q 479.1 279.6, 479.7 279.6 Q 480.5 279.6, 480.9 280.0 Q 481.4 280.5, 481.4 281.2 Q 481.4 282.0, 480.8 282.7 Q 480.2 283.5, 479.1 284.3 L 481.5 284.3 L 481.5 284.9 L 477.9 284.9 L 477.9 284.4 Q 478.9 283.7, 479.5 283.2 Q 480.1 282.7, 480.4 282.2 Q 480.6 281.8, 480.6 281.3 Q 480.6 280.8, 480.4 280.5 Q 480.1 280.2, 479.7 280.2 Q 479.3 280.2, 479.0 280.4 Q 478.7 280.5, 478.5 280.9 L 478.0 280.7 " fill="#000000"/>
<path class="bond-0 atom-0 atom-1" d="M 671.7,138.8 L 683.3,148.8" style="fill:none;fill-rule:evenodd;stroke:#FF0000;stroke-width:2.0px;stroke-linecap:butt;stroke-linejoin:miter;stroke-opacity:1"/>
<path class="bond-0 atom-0 atom-1" d="M 683.3,148.8 L 695.0,158.8" style="fill:none;fill-rule:evenodd;stroke:#000000;stroke-width:2.0px;stroke-linecap:butt;stroke-linejoin:miter;stroke-opacity:1"/>
<path class="bond-1 atom-1 atom-2" d="M 695.0,158.8 L 731.9,145.7" style="fill:none;fill-rule:evenodd;stroke:#000000;stroke-width:2.0px;stroke-linecap:butt;stroke-linejoin:miter;stroke-opacity:1"/>
<path class="bond-1 atom-1 atom-2" d="M 696.3,152.1 L 726.8,141.3" style="fill:none;fill-rule:evenodd;stroke:#000000;stroke-width:2.0px;stroke-linecap:butt;stroke-linejoin:miter;stroke-opacity:1"/>
<path class="bond-2 atom-2 atom-3" d="M 731.9,145.7 L 734.9,129.9" style="fill:none;fill-rule:evenodd;stroke:#000000;stroke-width:2.0px;stroke-linecap:butt;stroke-linejoin:miter;stroke-opacity:1"/>
<path class="bond-2 atom-2 atom-3" d="M 734.9,129.9 L 737.8,114.1" style="fill:none;fill-rule:evenodd;stroke:#7F4C19;stroke-width:2.0px;stroke-linecap:butt;stroke-linejoin:miter;stroke-opacity:1"/>
<path class="bond-3 atom-2 atom-4" d="M 731.9,145.7 L 761.7,171.2" style="fill:none;fill-rule:evenodd;stroke:#000000;stroke-width:2.0px;stroke-linecap:butt;stroke-linejoin:miter;stroke-opacity:1"/>
<path class="bond-4 atom-4 atom-5" d="M 761.7,171.2 L 798.6,158.1" style="fill:none;fill-rule:evenodd;stroke:#000000;stroke-width:2.0px;stroke-linecap:butt;stroke-linejoin:miter;stroke-opacity:1"/>
<path class="bond-4 atom-4 atom-5" d="M 762.9,164.5 L 794.3,153.4" style="fill:none;fill-rule:evenodd;stroke:#000000;stroke-width:2.0px;stroke-linecap:butt;stroke-linejoin:miter;stroke-opacity:1"/>
<path class="bond-5 atom-5 atom-6" d="M 798.6,158.1 L 815.4,122.8" style="fill:none;fill-rule:evenodd;stroke:#000000;stroke-width:2.0px;stroke-linecap:butt;stroke-linejoin:miter;stroke-opacity:1"/>
<path class="bond-6 atom-6 atom-7" d="M 815.4,122.8 L 810.1,107.7" style="fill:none;fill-rule:evenodd;stroke:#000000;stroke-width:2.0px;stroke-linecap:butt;stroke-linejoin:miter;stroke-opacity:1"/>
<path class="bond-6 atom-6 atom-7" d="M 810.1,107.7 L 804.8,92.7" style="fill:none;fill-rule:evenodd;stroke:#7F4C19;stroke-width:2.0px;stroke-linecap:butt;stroke-linejoin:miter;stroke-opacity:1"/>
<path class="bond-7 atom-6 atom-8" d="M 815.4,122.8 L 850.8,139.6" style="fill:none;fill-rule:evenodd;stroke:#000000;stroke-width:2.0px;stroke-linecap:butt;stroke-linejoin:miter;stroke-opacity:1"/>
<path class="bond-7 atom-6 atom-8" d="M 818.2,130.6 L 842.9,142.4" style="fill:none;fill-rule:evenodd;stroke:#000000;stroke-width:2.0px;stroke-linecap:butt;stroke-linejoin:miter;stroke-opacity:1"/>
<path class="bond-8 atom-8 atom-9" d="M 850.8,139.6 L 844.0,153.9" style="fill:none;fill-rule:evenodd;stroke:#000000;stroke-width:2.0px;stroke-linecap:butt;stroke-linejoin:miter;stroke-opacity:1"/>
<path class="bond-8 atom-8 atom-9" d="M 844.0,153.9 L 837.2,168.1" style="fill:none;fill-rule:evenodd;stroke:#0000FF;stroke-width:2.0px;stroke-linecap:butt;stroke-linejoin:miter;stroke-opacity:1"/>
<path class="bond-9 atom-9 atom-5" d="M 828.4,172.3 L 813.5,165.2" style="fill:none;fill-rule:evenodd;stroke:#0000FF;stroke-width:2.0px;stroke-linecap:butt;stroke-linejoin:miter;stroke-opacity:1"/>
<path class="bond-9 atom-9 atom-5" d="M 813.5,165.2 L 798.6,158.1" style="fill:none;fill-rule:evenodd;stroke:#000000;stroke-width:2.0px;stroke-linecap:butt;stroke-linejoin:miter;stroke-opacity:1"/>
<path d="M 694.5,158.3 L 695.0,158.8 L 696.9,158.2" style="fill:none;stroke:#000000;stroke-width:2.0px;stroke-linecap:butt;stroke-linejoin:miter;stroke-miterlimit:10;stroke-opacity:1;"/>
<path d="M 760.2,169.9 L 761.7,171.2 L 763.5,170.5" style="fill:none;stroke:#000000;stroke-width:2.0px;stroke-linecap:butt;stroke-linejoin:miter;stroke-miterlimit:10;stroke-opacity:1;"/>
<path d="M 849.0,138.8 L 850.8,139.6 L 850.4,140.3" style="fill:none;stroke:#000000;stroke-width:2.0px;stroke-linecap:butt;stroke-linejoin:miter;stroke-miterlimit:10;stroke-opacity:1;"/>
<path class="atom-0" d="M 649.2 127.9 L 650.7 127.9 L 650.7 132.6 L 656.4 132.6 L 656.4 127.9 L 657.9 127.9 L 657.9 139.0 L 656.4 139.0 L 656.4 133.9 L 650.7 133.9 L 650.7 139.0 L 649.2 139.0 L 649.2 127.9 " fill="#FF0000"/>
<path class="atom-0" d="M 660.2 133.4 Q 660.2 130.8, 661.5 129.3 Q 662.8 127.8, 665.3 127.8 Q 667.7 127.8, 669.0 129.3 Q 670.4 130.8, 670.4 133.4 Q 670.4 136.1, 669.0 137.6 Q 667.7 139.2, 665.3 139.2 Q 662.8 139.2, 661.5 137.6 Q 660.2 136.1, 660.2 133.4 M 665.3 137.9 Q 667.0 137.9, 667.9 136.8 Q 668.8 135.6, 668.8 133.4 Q 668.8 131.2, 667.9 130.2 Q 667.0 129.0, 665.3 129.0 Q 663.6 129.0, 662.7 130.1 Q 661.8 131.2, 661.8 133.4 Q 661.8 135.7, 662.7 136.8 Q 663.6 137.9, 665.3 137.9 " fill="#FF0000"/>
<path class="atom-3" d="M 740.7 107.0 Q 741.7 107.3, 742.3 107.9 Q 742.8 108.6, 742.8 109.5 Q 742.8 111.1, 741.8 111.9 Q 740.9 112.8, 739.0 112.8 L 735.3 112.8 L 735.3 101.7 L 738.6 101.7 Q 740.5 101.7, 741.4 102.5 Q 742.4 103.2, 742.4 104.7 Q 742.4 106.3, 740.7 107.0 M 736.8 103.0 L 736.8 106.4 L 738.6 106.4 Q 739.7 106.4, 740.2 106.0 Q 740.8 105.6, 740.8 104.7 Q 740.8 103.0, 738.6 103.0 L 736.8 103.0 M 739.0 111.5 Q 740.1 111.5, 740.7 111.0 Q 741.3 110.5, 741.3 109.5 Q 741.3 108.6, 740.6 108.2 Q 740.0 107.7, 738.8 107.7 L 736.8 107.7 L 736.8 111.5 L 739.0 111.5 " fill="#7F4C19"/>
<path class="atom-3" d="M 745.3 104.8 L 745.5 105.9 Q 746.4 104.6, 747.7 104.6 Q 748.2 104.6, 748.8 104.8 L 748.5 106.1 Q 747.9 105.9, 747.5 105.9 Q 746.8 105.9, 746.4 106.2 Q 746.0 106.4, 745.6 107.1 L 745.6 112.8 L 744.2 112.8 L 744.2 104.8 L 745.3 104.8 " fill="#7F4C19"/>
<path class="atom-7" d="M 804.0 85.6 Q 805.1 85.9, 805.6 86.5 Q 806.1 87.2, 806.1 88.1 Q 806.1 89.7, 805.1 90.6 Q 804.2 91.4, 802.3 91.4 L 798.6 91.4 L 798.6 80.3 L 801.9 80.3 Q 803.8 80.3, 804.7 81.1 Q 805.7 81.9, 805.7 83.3 Q 805.7 84.9, 804.0 85.6 M 800.1 81.6 L 800.1 85.1 L 801.9 85.1 Q 803.0 85.1, 803.5 84.6 Q 804.1 84.2, 804.1 83.3 Q 804.1 81.6, 801.9 81.6 L 800.1 81.6 M 802.3 90.2 Q 803.4 90.2, 804.0 89.6 Q 804.6 89.1, 804.6 88.1 Q 804.6 87.2, 803.9 86.8 Q 803.3 86.3, 802.1 86.3 L 800.1 86.3 L 800.1 90.2 L 802.3 90.2 " fill="#7F4C19"/>
<path class="atom-7" d="M 808.6 83.4 L 808.8 84.5 Q 809.7 83.2, 811.0 83.2 Q 811.5 83.2, 812.1 83.4 L 811.8 84.7 Q 811.2 84.5, 810.8 84.5 Q 810.1 84.5, 809.7 84.8 Q 809.3 85.1, 808.9 85.7 L 808.9 91.4 L 807.5 91.4 L 807.5 83.4 L 808.6 83.4 " fill="#7F4C19"/>
<path class="atom-9" d="M 831.5 169.4 L 835.1 175.3 Q 835.5 175.8, 836.0 176.9 Q 836.6 177.9, 836.6 178.0 L 836.6 169.4 L 838.1 169.4 L 838.1 180.5 L 836.6 180.5 L 832.7 174.1 Q 832.2 173.3, 831.8 172.4 Q 831.3 171.6, 831.1 171.3 L 831.1 180.5 L 829.7 180.5 L 829.7 169.4 L 831.5 169.4 " fill="#0000FF"/>
<path class="atom-9" d="M 829.6 181.6 L 831.1 181.6 L 831.1 186.3 L 836.7 186.3 L 836.7 181.6 L 838.2 181.6 L 838.2 192.7 L 836.7 192.7 L 836.7 187.6 L 831.1 187.6 L 831.1 192.7 L 829.6 192.7 L 829.6 181.6 " fill="#0000FF"/>
<path class="legend" d="M 702.7 261.2 Q 702.7 260.0, 703.4 259.3 Q 704.0 258.6, 705.2 258.6 Q 706.3 258.6, 706.9 259.3 Q 707.6 260.0, 707.6 261.2 Q 707.6 262.5, 706.9 263.2 Q 706.3 264.0, 705.2 264.0 Q 704.0 264.0, 703.4 263.2 Q 702.7 262.5, 702.7 261.2 M 705.2 263.4 Q 706.0 263.4, 706.4 262.8 Q 706.8 262.3, 706.8 261.2 Q 706.8 260.2, 706.4 259.7 Q 706.0 259.2, 705.2 259.2 Q 704.3 259.2, 703.9 259.7 Q 703.5 260.2, 703.5 261.2 Q 703.5 262.3, 703.9 262.8 Q 704.3 263.4, 705.2 263.4 " fill="#000000"/>
<path class="legend" d="M 708.2 261.2 Q 708.2 259.9, 708.9 259.3 Q 709.5 258.6, 710.6 258.6 Q 711.7 258.6, 712.3 259.3 L 711.8 259.7 Q 711.4 259.2, 710.6 259.2 Q 709.8 259.2, 709.4 259.7 Q 709.0 260.2, 709.0 261.2 Q 709.0 262.3, 709.4 262.8 Q 709.9 263.4, 710.7 263.4 Q 711.3 263.4, 712.0 263.0 L 712.2 263.6 Q 711.9 263.7, 711.5 263.8 Q 711.1 263.9, 710.6 263.9 Q 709.5 263.9, 708.9 263.2 Q 708.2 262.6, 708.2 261.2 " fill="#000000"/>
<path class="legend" d="M 712.9 260.7 L 716.3 260.7 L 716.3 261.2 L 712.9 261.2 L 712.9 260.7 M 712.9 262.2 L 716.3 262.2 L 716.3 262.8 L 712.9 262.8 L 712.9 262.2 " fill="#000000"/>
<path class="legend" d="M 717.3 261.2 Q 717.3 259.9, 717.9 259.3 Q 718.5 258.6, 719.7 258.6 Q 720.8 258.6, 721.4 259.3 L 720.9 259.7 Q 720.4 259.2, 719.7 259.2 Q 718.9 259.2, 718.5 259.7 Q 718.1 260.2, 718.1 261.2 Q 718.1 262.3, 718.5 262.8 Q 718.9 263.4, 719.8 263.4 Q 720.3 263.4, 721.0 263.0 L 721.2 263.6 Q 721.0 263.7, 720.5 263.8 Q 720.1 263.9, 719.7 263.9 Q 718.5 263.9, 717.9 263.2 Q 717.3 262.6, 717.3 261.2 " fill="#000000"/>
<path class="legend" d="M 722.0 261.8 Q 722.0 260.7, 722.3 259.8 Q 722.6 259.0, 723.2 258.0 L 723.6 258.3 Q 723.1 259.2, 722.9 260.0 Q 722.6 260.7, 722.6 261.8 Q 722.6 262.8, 722.9 263.6 Q 723.1 264.3, 723.6 265.3 L 723.2 265.5 Q 722.6 264.6, 722.3 263.7 Q 722.0 262.8, 722.0 261.8 " fill="#000000"/>
<path class="legend" d="M 726.6 261.1 Q 727.2 261.3, 727.4 261.6 Q 727.7 261.9, 727.7 262.3 Q 727.7 263.1, 727.2 263.5 Q 726.7 263.9, 725.9 263.9 L 724.1 263.9 L 724.1 258.6 L 725.6 258.6 Q 726.5 258.6, 727.0 259.0 Q 727.4 259.4, 727.4 260.0 Q 727.4 260.8, 726.6 261.1 M 724.8 259.2 L 724.8 260.9 L 725.6 260.9 Q 726.2 260.9, 726.4 260.7 Q 726.7 260.4, 726.7 260.0 Q 726.7 259.2, 725.6 259.2 L 724.8 259.2 M 725.9 263.3 Q 726.4 263.3, 726.6 263.0 Q 726.9 262.8, 726.9 262.3 Q 726.9 261.9, 726.6 261.7 Q 726.3 261.5, 725.7 261.5 L 724.8 261.5 L 724.8 263.3 L 725.9 263.3 " fill="#000000"/>
<path class="legend" d="M 728.9 260.1 L 729.0 260.6 Q 729.4 260.0, 730.0 260.0 Q 730.2 260.0, 730.5 260.1 L 730.4 260.7 Q 730.1 260.6, 729.9 260.6 Q 729.6 260.6, 729.4 260.7 Q 729.2 260.9, 729.0 261.2 L 729.0 263.9 L 728.3 263.9 L 728.3 260.1 L 728.9 260.1 " fill="#000000"/>
<path class="legend" d="M 732.6 261.8 Q 732.6 262.8, 732.3 263.7 Q 731.9 264.6, 731.3 265.5 L 730.9 265.3 Q 731.4 264.3, 731.7 263.6 Q 731.9 262.8, 731.9 261.8 Q 731.9 260.7, 731.7 260.0 Q 731.4 259.2, 730.9 258.3 L 731.3 258.0 Q 731.9 259.0, 732.3 259.8 Q 732.6 260.7, 732.6 261.8 " fill="#000000"/>
<path class="legend" d="M 733.2 261.2 Q 733.2 259.9, 733.9 259.3 Q 734.5 258.6, 735.6 258.6 Q 736.7 258.6, 737.3 259.3 L 736.8 259.7 Q 736.4 259.2, 735.6 259.2 Q 734.8 259.2, 734.4 259.7 Q 734.0 260.2, 734.0 261.2 Q 734.0 262.3, 734.4 262.8 Q 734.9 263.4, 735.7 263.4 Q 736.3 263.4, 737.0 263.0 L 737.2 263.6 Q 736.9 263.7, 736.5 263.8 Q 736.1 263.9, 735.6 263.9 Q 734.5 263.9, 733.9 263.2 Q 733.2 262.6, 733.2 261.2 " fill="#000000"/>
<path class="legend" d="M 737.9 260.7 L 741.3 260.7 L 741.3 261.2 L 737.9 261.2 L 737.9 260.7 M 737.9 262.2 L 741.3 262.2 L 741.3 262.8 L 737.9 262.8 L 737.9 262.2 " fill="#000000"/>
<path class="legend" d="M 742.3 261.2 Q 742.3 259.9, 742.9 259.3 Q 743.5 258.6, 744.7 258.6 Q 745.8 258.6, 746.4 259.3 L 745.9 259.7 Q 745.4 259.2, 744.7 259.2 Q 743.9 259.2, 743.5 259.7 Q 743.1 260.2, 743.1 261.2 Q 743.1 262.3, 743.5 262.8 Q 743.9 263.4, 744.8 263.4 Q 745.4 263.4, 746.0 263.0 L 746.2 263.6 Q 746.0 263.7, 745.5 263.8 Q 745.1 263.9, 744.7 263.9 Q 743.5 263.9, 742.9 263.2 Q 742.3 262.6, 742.3 261.2 " fill="#000000"/>
<path class="legend" d="M 747.3 263.3 L 748.4 263.3 L 748.4 259.4 L 747.1 259.8 L 747.0 259.3 L 748.6 258.6 L 749.1 258.7 L 749.1 263.3 L 750.1 263.3 L 750.1 263.9 L 747.3 263.9 L 747.3 263.3 " fill="#000000"/>
<path class="legend" d="M 750.8 261.2 Q 750.8 259.9, 751.4 259.3 Q 752.0 258.6, 753.1 258.6 Q 754.2 258.6, 754.8 259.3 L 754.3 259.7 Q 753.9 259.2, 753.1 259.2 Q 752.4 259.2, 751.9 259.7 Q 751.5 260.2, 751.5 261.2 Q 751.5 262.3, 751.9 262.8 Q 752.4 263.4, 753.2 263.4 Q 753.8 263.4, 754.5 263.0 L 754.7 263.6 Q 754.4 263.7, 754.0 263.8 Q 753.6 263.9, 753.1 263.9 Q 752.0 263.9, 751.4 263.2 Q 750.8 262.6, 750.8 261.2 " fill="#000000"/>
<path class="legend" d="M 755.4 261.8 Q 755.4 260.7, 755.7 259.8 Q 756.0 259.0, 756.6 258.0 L 757.1 258.3 Q 756.6 259.2, 756.3 260.0 Q 756.1 260.7, 756.1 261.8 Q 756.1 262.8, 756.3 263.6 Q 756.6 264.3, 757.1 265.3 L 756.6 265.5 Q 756.0 264.6, 755.7 263.7 Q 755.4 262.8, 755.4 261.8 " fill="#000000"/>
<path class="legend" d="M 760.1 261.1 Q 760.6 261.3, 760.9 261.6 Q 761.1 261.9, 761.1 262.3 Q 761.1 263.1, 760.7 263.5 Q 760.2 263.9, 759.3 263.9 L 757.6 263.9 L 757.6 258.6 L 759.1 258.6 Q 760.0 258.6, 760.5 259.0 Q 760.9 259.4, 760.9 260.0 Q 760.9 260.8, 760.1 261.1 M 758.3 259.2 L 758.3 260.9 L 759.1 260.9 Q 759.6 260.9, 759.9 260.7 Q 760.2 260.4, 760.2 260.0 Q 760.2 259.2, 759.1 259.2 L 758.3 259.2 M 759.3 263.3 Q 759.8 263.3, 760.1 263.0 Q 760.4 262.8, 760.4 262.3 Q 760.4 261.9, 760.1 261.7 Q 759.8 261.5, 759.2 261.5 L 758.3 261.5 L 758.3 263.3 L 759.3 263.3 " fill="#000000"/>
<path class="legend" d="M 762.3 260.1 L 762.4 260.6 Q 762.8 260.0, 763.5 260.0 Q 763.7 260.0, 764.0 260.1 L 763.9 260.7 Q 763.5 260.6, 763.4 260.6 Q 763.0 260.6, 762.8 260.7 Q 762.6 260.9, 762.5 261.2 L 762.5 263.9 L 761.8 263.9 L 761.8 260.1 L 762.3 260.1 " fill="#000000"/>
<path class="legend" d="M 766.0 261.8 Q 766.0 262.8, 765.7 263.7 Q 765.4 264.6, 764.8 265.5 L 764.4 265.3 Q 764.9 264.3, 765.1 263.6 Q 765.4 262.8, 765.4 261.8 Q 765.4 260.7, 765.1 260.0 Q 764.9 259.2, 764.4 258.3 L 764.8 258.0 Q 765.4 259.0, 765.7 259.8 Q 766.0 260.7, 766.0 261.8 " fill="#000000"/>
<path class="legend" d="M 766.7 260.7 L 770.1 260.7 L 770.1 261.2 L 766.7 261.2 L 766.7 260.7 M 766.7 262.2 L 770.1 262.2 L 770.1 262.8 L 766.7 262.8 L 766.7 262.2 " fill="#000000"/>
<path class="legend" d="M 771.1 261.2 Q 771.1 259.9, 771.7 259.3 Q 772.3 258.6, 773.5 258.6 Q 774.6 258.6, 775.1 259.3 L 774.7 259.7 Q 774.2 259.2, 773.5 259.2 Q 772.7 259.2, 772.3 259.7 Q 771.9 260.2, 771.9 261.2 Q 771.9 262.3, 772.3 262.8 Q 772.7 263.4, 773.6 263.4 Q 774.1 263.4, 774.8 263.0 L 775.0 263.6 Q 774.8 263.7, 774.3 263.8 Q 773.9 263.9, 773.5 263.9 Q 772.3 263.9, 771.7 263.2 Q 771.1 262.6, 771.1 261.2 " fill="#000000"/>
<path class="legend" d="M 775.8 258.1 L 777.3 258.1 L 777.3 258.7 L 776.4 258.7 L 776.4 264.8 L 777.3 264.8 L 777.3 265.3 L 775.8 265.3 L 775.8 258.1 " fill="#000000"/>
<path class="legend" d="M 778.6 258.6 L 780.4 261.4 Q 780.5 261.7, 780.8 262.2 Q 781.1 262.7, 781.1 262.7 L 781.1 258.6 L 781.8 258.6 L 781.8 263.9 L 781.1 263.9 L 779.2 260.8 Q 779.0 260.5, 778.8 260.1 Q 778.6 259.7, 778.5 259.5 L 778.5 263.9 L 777.8 263.9 L 777.8 258.6 L 778.6 258.6 " fill="#000000"/>
<path class="legend" d="M 782.7 258.6 L 783.4 258.6 L 783.4 260.9 L 786.1 260.9 L 786.1 258.6 L 786.8 258.6 L 786.8 263.9 L 786.1 263.9 L 786.1 261.5 L 783.4 261.5 L 783.4 263.9 L 782.7 263.9 L 782.7 258.6 " fill="#000000"/>
<path class="legend" d="M 788.1 263.3 L 789.2 263.3 L 789.2 259.4 L 787.9 259.8 L 787.8 259.3 L 789.4 258.6 L 789.9 258.7 L 789.9 263.3 L 790.9 263.3 L 790.9 263.9 L 788.1 263.9 L 788.1 263.3 " fill="#000000"/>
<path class="legend" d="M 793.1 258.1 L 793.1 265.3 L 791.6 265.3 L 791.6 264.8 L 792.5 264.8 L 792.5 258.7 L 791.6 258.7 L 791.6 258.1 L 793.1 258.1 " fill="#000000"/>
<path class="legend" d="M 794.4 263.3 L 795.5 263.3 L 795.5 259.4 L 794.3 259.8 L 794.1 259.3 L 795.7 258.6 L 796.2 258.7 L 796.2 263.3 L 797.3 263.3 L 797.3 263.9 L 794.4 263.9 L 794.4 263.3 " fill="#000000"/>
<path class="legend" d="M 724.1 265.6 L 724.8 265.6 L 724.8 270.2 L 727.2 270.2 L 727.2 270.8 L 724.1 270.8 L 724.1 265.6 " fill="#000000"/>
<path class="legend" d="M 727.6 268.9 Q 727.6 268.0, 728.1 267.5 Q 728.6 267.0, 729.4 267.0 Q 730.3 267.0, 730.8 267.5 Q 731.3 268.0, 731.3 268.9 Q 731.3 269.9, 730.8 270.4 Q 730.3 270.9, 729.4 270.9 Q 728.6 270.9, 728.1 270.4 Q 727.6 269.9, 727.6 268.9 M 728.3 268.9 Q 728.3 269.6, 728.6 270.0 Q 728.9 270.4, 729.4 270.4 Q 730.0 270.4, 730.3 270.0 Q 730.5 269.6, 730.5 268.9 Q 730.5 268.2, 730.3 267.9 Q 730.0 267.5, 729.4 267.5 Q 728.9 267.5, 728.6 267.9 Q 728.3 268.2, 728.3 268.9 " fill="#000000"/>
<path class="legend" d="M 735.3 267.0 L 735.3 271.1 Q 735.3 272.7, 733.6 272.7 Q 732.7 272.7, 732.0 272.3 L 732.2 271.8 Q 732.6 272.0, 732.9 272.1 Q 733.2 272.2, 733.6 272.2 Q 734.1 272.2, 734.3 271.9 Q 734.6 271.7, 734.6 271.1 L 734.6 270.4 Q 734.2 270.9, 733.5 270.9 Q 732.7 270.9, 732.3 270.4 Q 731.8 269.9, 731.8 269.0 Q 731.8 268.0, 732.3 267.5 Q 732.9 267.0, 733.8 267.0 Q 734.3 267.0, 734.7 267.1 L 734.7 267.0 L 735.3 267.0 M 733.5 270.4 Q 733.9 270.4, 734.2 270.1 Q 734.5 269.9, 734.6 269.6 L 734.6 267.6 Q 734.2 267.5, 733.8 267.5 Q 733.2 267.5, 732.9 267.9 Q 732.5 268.3, 732.5 269.0 Q 732.5 269.6, 732.8 270.0 Q 733.1 270.4, 733.5 270.4 " fill="#000000"/>
<path class="legend" d="M 737.7 265.6 Q 738.6 265.6, 739.0 266.0 Q 739.5 266.4, 739.5 267.1 Q 739.5 267.9, 739.0 268.3 Q 738.6 268.7, 737.7 268.7 L 736.8 268.7 L 736.8 270.8 L 736.1 270.8 L 736.1 265.6 L 737.7 265.6 M 737.7 268.1 Q 738.2 268.1, 738.5 267.8 Q 738.7 267.6, 738.7 267.1 Q 738.7 266.7, 738.5 266.4 Q 738.2 266.2, 737.7 266.2 L 736.8 266.2 L 736.8 268.1 L 737.7 268.1 " fill="#000000"/>
<path class="legend" d="M 740.1 270.0 L 740.8 270.0 L 740.8 270.7 L 740.1 270.7 L 740.1 270.0 M 740.1 267.4 L 740.8 267.4 L 740.8 268.2 L 740.1 268.2 L 740.1 267.4 " fill="#000000"/>
<path class="legend" d="" fill="#000000"/>
<path class="legend" d="M 744.3 266.6 Q 744.5 266.1, 745.0 265.8 Q 745.4 265.5, 746.1 265.5 Q 746.9 265.5, 747.3 266.0 Q 747.7 266.4, 747.7 267.2 Q 747.7 267.9, 747.2 268.7 Q 746.6 269.4, 745.4 270.2 L 747.8 270.2 L 747.8 270.8 L 744.3 270.8 L 744.3 270.3 Q 745.3 269.6, 745.9 269.1 Q 746.4 268.6, 746.7 268.1 Q 747.0 267.7, 747.0 267.2 Q 747.0 266.7, 746.7 266.4 Q 746.5 266.1, 746.1 266.1 Q 745.6 266.1, 745.4 266.3 Q 745.1 266.5, 744.9 266.8 L 744.3 266.6 " fill="#000000"/>
<path class="legend" d="M 748.5 270.1 L 749.2 270.1 L 749.2 270.8 L 748.5 270.8 L 748.5 270.1 " fill="#000000"/>
<path class="legend" d="M 751.9 267.6 Q 752.3 267.6, 752.7 267.8 Q 753.1 267.9, 753.3 268.3 Q 753.5 268.7, 753.5 269.2 Q 753.5 269.7, 753.2 270.1 Q 753.0 270.5, 752.6 270.7 Q 752.1 270.9, 751.6 270.9 Q 751.2 270.9, 750.7 270.7 Q 750.3 270.5, 750.0 270.2 L 750.4 269.7 Q 750.6 270.0, 751.0 270.2 Q 751.3 270.3, 751.7 270.3 Q 752.1 270.3, 752.4 270.0 Q 752.8 269.7, 752.8 269.2 Q 752.8 268.6, 752.4 268.4 Q 752.1 268.1, 751.6 268.1 Q 751.2 268.1, 750.6 268.3 L 750.2 268.1 L 750.5 265.6 L 753.2 265.6 L 753.1 266.2 L 751.1 266.2 L 750.9 267.7 Q 751.4 267.6, 751.9 267.6 " fill="#000000"/>
<path class="legend" d="" fill="#000000"/>
<path class="legend" d="M 759.7 267.0 L 760.4 267.0 L 759.0 270.8 L 758.1 270.8 L 756.8 267.0 L 757.5 267.0 L 758.6 270.2 L 759.7 267.0 " fill="#000000"/>
<path class="legend" d="M 760.9 270.1 Q 761.2 270.2, 761.5 270.3 Q 761.7 270.3, 762.0 270.3 Q 762.3 270.3, 762.5 270.2 Q 762.7 270.0, 762.7 269.8 Q 762.7 269.6, 762.6 269.5 Q 762.5 269.4, 762.3 269.3 Q 762.2 269.3, 761.9 269.2 Q 761.8 269.2, 761.5 269.0 Q 761.2 268.9, 761.0 268.7 Q 760.8 268.4, 760.8 268.0 Q 760.8 267.6, 761.2 267.3 Q 761.5 267.0, 762.2 267.0 Q 762.5 267.0, 762.7 267.0 Q 763.0 267.1, 763.3 267.2 L 763.1 267.8 Q 762.9 267.7, 762.6 267.6 Q 762.4 267.5, 762.2 267.5 Q 761.8 267.5, 761.7 267.7 Q 761.5 267.8, 761.5 268.0 Q 761.5 268.2, 761.6 268.3 Q 761.8 268.4, 762.1 268.6 Q 762.2 268.6, 762.2 268.6 L 762.4 268.7 Q 762.7 268.8, 762.9 268.9 Q 763.1 269.0, 763.2 269.2 Q 763.4 269.4, 763.4 269.8 Q 763.4 270.3, 763.0 270.6 Q 762.6 270.9, 762.0 270.9 Q 761.6 270.9, 761.3 270.8 Q 761.0 270.8, 760.7 270.6 L 760.9 270.1 " fill="#000000"/>
<path class="legend" d="" fill="#000000"/>
<path class="legend" d="M 766.7 266.6 Q 766.9 266.1, 767.4 265.8 Q 767.8 265.5, 768.5 265.5 Q 769.3 265.5, 769.7 266.0 Q 770.1 266.4, 770.1 267.2 Q 770.1 267.9, 769.6 268.7 Q 769.0 269.4, 767.8 270.2 L 770.2 270.2 L 770.2 270.8 L 766.7 270.8 L 766.7 270.3 Q 767.7 269.6, 768.3 269.1 Q 768.8 268.6, 769.1 268.1 Q 769.4 267.7, 769.4 267.2 Q 769.4 266.7, 769.1 266.4 Q 768.9 266.1, 768.5 266.1 Q 768.0 266.1, 767.8 266.3 Q 767.5 266.5, 767.3 266.8 L 766.7 266.6 " fill="#000000"/>
<path class="legend" d="M 770.9 270.1 L 771.6 270.1 L 771.6 270.8 L 770.9 270.8 L 770.9 270.1 " fill="#000000"/>
<path class="legend" d="M 774.3 267.6 Q 774.7 267.6, 775.1 267.8 Q 775.5 267.9, 775.7 268.3 Q 775.9 268.7, 775.9 269.2 Q 775.9 269.7, 775.6 270.1 Q 775.4 270.5, 775.0 270.7 Q 774.5 270.9, 774.0 270.9 Q 773.6 270.9, 773.1 270.7 Q 772.7 270.5, 772.4 270.2 L 772.8 269.7 Q 773.0 270.0, 773.4 270.2 Q 773.7 270.3, 774.1 270.3 Q 774.5 270.3, 774.8 270.0 Q 775.2 269.7, 775.2 269.2 Q 775.2 268.6, 774.8 268.4 Q 774.5 268.1, 774.0 268.1 Q 773.6 268.1, 773.0 268.3 L 772.6 268.1 L 772.9 265.6 L 775.6 265.6 L 775.5 266.2 L 773.5 266.2 L 773.3 267.7 Q 773.8 267.6, 774.3 267.6 " fill="#000000"/>
<path class="legend" d="M 726.2 279.0 Q 726.4 279.0, 726.7 278.9 L 726.9 279.5 Q 726.5 279.6, 726.1 279.6 Q 725.5 279.6, 725.1 279.2 Q 724.6 278.8, 724.6 278.1 Q 723.6 277.9, 723.1 277.2 Q 722.6 276.5, 722.6 275.4 Q 722.6 274.1, 723.2 273.4 Q 723.8 272.7, 725.0 272.7 Q 726.1 272.7, 726.8 273.4 Q 727.4 274.1, 727.4 275.4 Q 727.4 276.6, 726.8 277.3 Q 726.2 278.0, 725.2 278.1 Q 725.2 278.5, 725.5 278.7 Q 725.8 279.0, 726.2 279.0 M 723.3 275.4 Q 723.3 276.4, 723.7 277.0 Q 724.2 277.5, 725.0 277.5 Q 725.8 277.5, 726.2 277.0 Q 726.6 276.4, 726.6 275.4 Q 726.6 274.3, 726.2 273.8 Q 725.8 273.3, 725.0 273.3 Q 724.2 273.3, 723.7 273.8 Q 723.3 274.3, 723.3 275.4 " fill="#000000"/>
<path class="legend" d="M 728.0 272.8 L 731.1 272.8 L 731.1 273.4 L 728.7 273.4 L 728.7 275.0 L 730.9 275.0 L 730.9 275.6 L 728.7 275.6 L 728.7 277.4 L 731.2 277.4 L 731.2 278.0 L 728.0 278.0 L 728.0 272.8 " fill="#000000"/>
<path class="legend" d="M 733.5 272.8 Q 734.7 272.8, 735.3 273.5 Q 735.9 274.1, 735.9 275.4 Q 735.9 276.6, 735.3 277.3 Q 734.7 278.0, 733.5 278.0 L 731.8 278.0 L 731.8 272.8 L 733.5 272.8 M 733.5 277.4 Q 734.3 277.4, 734.8 276.9 Q 735.2 276.4, 735.2 275.4 Q 735.2 274.4, 734.8 273.9 Q 734.3 273.4, 733.5 273.4 L 732.5 273.4 L 732.5 277.4 L 733.5 277.4 " fill="#000000"/>
<path class="legend" d="M 736.5 277.2 L 737.3 277.2 L 737.3 277.9 L 736.5 277.9 L 736.5 277.2 M 736.5 274.6 L 737.3 274.6 L 737.3 275.3 L 736.5 275.3 L 736.5 274.6 " fill="#000000"/>
<path class="legend" d="" fill="#000000"/>
<path class="legend" d="M 742.7 278.1 Q 741.7 278.1, 741.2 277.4 Q 740.8 276.7, 740.8 275.4 Q 740.8 274.1, 741.2 273.4 Q 741.7 272.7, 742.7 272.7 Q 743.7 272.7, 744.1 273.4 Q 744.6 274.1, 744.6 275.4 Q 744.6 276.7, 744.1 277.4 Q 743.7 278.1, 742.7 278.1 M 742.7 277.5 Q 743.3 277.5, 743.6 277.0 Q 743.9 276.4, 743.9 275.4 Q 743.9 274.4, 743.6 273.8 Q 743.3 273.3, 742.7 273.3 Q 742.1 273.3, 741.8 273.8 Q 741.5 274.4, 741.5 275.4 Q 741.5 276.4, 741.8 277.0 Q 742.1 277.5, 742.7 277.5 " fill="#000000"/>
<path class="legend" d="M 745.3 277.3 L 746.1 277.3 L 746.1 278.0 L 745.3 278.0 L 745.3 277.3 " fill="#000000"/>
<path class="legend" d="M 749.5 275.2 Q 750.0 275.4, 750.3 275.8 Q 750.5 276.1, 750.5 276.6 Q 750.5 277.0, 750.3 277.4 Q 750.1 277.7, 749.7 277.9 Q 749.2 278.1, 748.7 278.1 Q 747.8 278.1, 747.3 277.7 Q 746.8 277.3, 746.8 276.6 Q 746.8 276.2, 747.0 275.8 Q 747.3 275.5, 747.7 275.3 Q 747.4 275.1, 747.2 274.8 Q 747.0 274.5, 747.0 274.1 Q 747.0 273.4, 747.5 273.1 Q 747.9 272.7, 748.7 272.7 Q 749.4 272.7, 749.9 273.1 Q 750.3 273.4, 750.3 274.1 Q 750.3 274.4, 750.1 274.7 Q 749.9 275.0, 749.5 275.2 M 748.7 273.3 Q 748.2 273.3, 748.0 273.5 Q 747.7 273.7, 747.7 274.1 Q 747.7 274.3, 747.9 274.5 Q 748.1 274.7, 748.3 274.8 Q 748.5 274.9, 749.0 275.1 Q 749.3 274.8, 749.4 274.6 Q 749.6 274.4, 749.6 274.1 Q 749.6 273.7, 749.3 273.5 Q 749.1 273.3, 748.7 273.3 M 748.7 277.5 Q 749.2 277.5, 749.5 277.3 Q 749.8 277.0, 749.8 276.6 Q 749.8 276.3, 749.6 276.1 Q 749.5 275.9, 749.2 275.8 Q 749.0 275.7, 748.6 275.6 L 748.3 275.5 Q 747.9 275.7, 747.7 276.0 Q 747.6 276.2, 747.6 276.6 Q 747.6 277.0, 747.9 277.3 Q 748.2 277.5, 748.7 277.5 " fill="#000000"/>
<path class="legend" d="" fill="#000000"/>
<path class="legend" d="M 756.9 274.2 L 757.5 274.2 L 756.2 278.0 L 755.3 278.0 L 754.0 274.2 L 754.7 274.2 L 755.8 277.4 L 756.9 274.2 " fill="#000000"/>
<path class="legend" d="M 758.1 277.2 Q 758.4 277.4, 758.6 277.4 Q 758.9 277.5, 759.1 277.5 Q 759.5 277.5, 759.7 277.4 Q 759.9 277.2, 759.9 277.0 Q 759.9 276.8, 759.7 276.7 Q 759.7 276.6, 759.5 276.5 Q 759.4 276.5, 759.1 276.4 Q 759.0 276.3, 758.7 276.2 Q 758.3 276.1, 758.2 275.8 Q 758.0 275.6, 758.0 275.2 Q 758.0 274.8, 758.3 274.5 Q 758.7 274.1, 759.4 274.1 Q 759.7 274.1, 759.9 274.2 Q 760.2 274.3, 760.5 274.4 L 760.3 274.9 Q 760.0 274.8, 759.8 274.8 Q 759.6 274.7, 759.4 274.7 Q 759.0 274.7, 758.8 274.9 Q 758.7 275.0, 758.7 275.2 Q 758.7 275.4, 758.8 275.5 Q 759.0 275.6, 759.3 275.7 Q 759.3 275.8, 759.4 275.8 L 759.6 275.9 Q 759.9 276.0, 760.1 276.1 Q 760.3 276.2, 760.4 276.4 Q 760.5 276.6, 760.5 276.9 Q 760.5 277.5, 760.2 277.8 Q 759.8 278.1, 759.1 278.1 Q 758.8 278.1, 758.5 278.0 Q 758.2 277.9, 757.8 277.8 L 758.1 277.2 " fill="#000000"/>
<path class="legend" d="" fill="#000000"/>
<path class="legend" d="M 765.8 278.1 Q 764.9 278.1, 764.4 277.4 Q 763.9 276.7, 763.9 275.4 Q 763.9 274.1, 764.4 273.4 Q 764.9 272.7, 765.8 272.7 Q 766.8 272.7, 767.3 273.4 Q 767.8 274.1, 767.8 275.4 Q 767.8 276.7, 767.3 277.4 Q 766.8 278.1, 765.8 278.1 M 765.8 277.5 Q 766.4 277.5, 766.7 277.0 Q 767.0 276.4, 767.0 275.4 Q 767.0 274.4, 766.7 273.8 Q 766.4 273.3, 765.8 273.3 Q 765.3 273.3, 765.0 273.8 Q 764.6 274.4, 764.6 275.4 Q 764.6 276.4, 765.0 277.0 Q 765.3 277.5, 765.8 277.5 " fill="#000000"/>
<path class="legend" d="M 768.5 277.3 L 769.2 277.3 L 769.2 278.0 L 768.5 278.0 L 768.5 277.3 " fill="#000000"/>
<path class="legend" d="M 772.7 273.4 L 769.9 273.4 L 769.9 272.8 L 773.4 272.8 L 773.4 273.3 L 771.3 278.0 L 770.6 278.0 L 772.7 273.4 " fill="#000000"/>
<path class="legend" d="M 773.9 273.8 Q 774.1 273.3, 774.6 273.0 Q 775.0 272.7, 775.7 272.7 Q 776.5 272.7, 776.9 273.1 Q 777.3 273.6, 777.3 274.3 Q 777.3 275.1, 776.8 275.8 Q 776.2 276.6, 775.0 277.4 L 777.4 277.4 L 777.4 278.0 L 773.9 278.0 L 773.9 277.5 Q 774.9 276.8, 775.5 276.3 Q 776.0 275.8, 776.3 275.3 Q 776.6 274.9, 776.6 274.4 Q 776.6 273.9, 776.4 273.6 Q 776.1 273.3, 775.7 273.3 Q 775.2 273.3, 775.0 273.5 Q 774.7 273.6, 774.5 274.0 L 773.9 273.8 " fill="#000000"/>
<path class="legend" d="M 724.4 284.9 L 723.8 284.9 L 723.2 280.6 L 721.8 284.9 L 721.1 284.9 L 719.7 280.6 L 719.1 284.9 L 718.4 284.9 L 719.1 279.7 L 720.0 279.7 L 721.4 283.9 L 722.9 279.7 L 723.8 279.7 L 724.4 284.9 " fill="#000000"/>
<path class="legend" d="M 731.8 279.7 L 732.5 279.7 L 731.1 284.9 L 730.0 284.9 L 728.8 280.5 L 727.7 284.9 L 726.6 284.9 L 725.2 279.7 L 725.9 279.7 L 727.2 284.3 L 728.4 279.7 L 729.3 279.7 L 730.5 284.3 L 731.8 279.7 " fill="#000000"/>
<path class="legend" d="M 733.0 284.1 L 733.7 284.1 L 733.7 284.8 L 733.0 284.8 L 733.0 284.1 M 733.0 281.5 L 733.7 281.5 L 733.7 282.2 L 733.0 282.2 L 733.0 281.5 " fill="#000000"/>
<path class="legend" d="" fill="#000000"/>
<path class="legend" d="M 739.8 282.2 Q 740.4 282.3, 740.6 282.6 Q 740.9 283.0, 740.9 283.5 Q 740.9 283.9, 740.6 284.3 Q 740.4 284.6, 740.0 284.8 Q 739.6 285.0, 739.1 285.0 Q 738.5 285.0, 738.1 284.8 Q 737.7 284.6, 737.3 284.2 L 737.7 283.8 Q 738.1 284.1, 738.3 284.3 Q 738.6 284.4, 739.1 284.4 Q 739.5 284.4, 739.8 284.2 Q 740.1 283.9, 740.1 283.5 Q 740.1 282.9, 739.8 282.7 Q 739.5 282.5, 738.9 282.5 L 738.5 282.5 L 738.5 281.9 L 738.8 281.9 Q 739.4 281.9, 739.7 281.7 Q 740.0 281.4, 740.0 281.0 Q 740.0 280.6, 739.7 280.4 Q 739.5 280.2, 739.1 280.2 Q 738.6 280.2, 738.3 280.4 Q 738.1 280.5, 737.9 280.9 L 737.4 280.6 Q 737.5 280.2, 738.0 279.9 Q 738.4 279.6, 739.1 279.6 Q 739.8 279.6, 740.3 280.0 Q 740.7 280.3, 740.7 281.0 Q 740.7 281.4, 740.5 281.7 Q 740.3 282.0, 739.8 282.2 " fill="#000000"/>
<path class="legend" d="M 743.5 281.6 Q 743.9 281.6, 744.3 281.8 Q 744.7 282.0, 744.9 282.4 Q 745.1 282.8, 745.1 283.3 Q 745.1 283.8, 744.9 284.2 Q 744.6 284.6, 744.2 284.8 Q 743.7 285.0, 743.3 285.0 Q 742.8 285.0, 742.3 284.8 Q 741.9 284.6, 741.6 284.3 L 742.0 283.8 Q 742.3 284.1, 742.6 284.2 Q 742.9 284.4, 743.3 284.4 Q 743.7 284.4, 744.1 284.1 Q 744.4 283.8, 744.4 283.3 Q 744.4 282.7, 744.1 282.5 Q 743.7 282.2, 743.2 282.2 Q 742.8 282.2, 742.3 282.4 L 741.9 282.2 L 742.1 279.7 L 744.8 279.7 L 744.7 280.3 L 742.7 280.3 L 742.6 281.8 Q 743.0 281.6, 743.5 281.6 " fill="#000000"/>
<path class="legend" d="M 747.7 285.0 Q 746.7 285.0, 746.3 284.3 Q 745.8 283.6, 745.8 282.3 Q 745.8 281.0, 746.3 280.3 Q 746.7 279.6, 747.7 279.6 Q 748.7 279.6, 749.2 280.3 Q 749.6 281.0, 749.6 282.3 Q 749.6 283.6, 749.1 284.3 Q 748.7 285.0, 747.7 285.0 M 747.7 284.4 Q 748.3 284.4, 748.6 283.9 Q 748.9 283.3, 748.9 282.3 Q 748.9 281.3, 748.6 280.7 Q 748.3 280.2, 747.7 280.2 Q 747.1 280.2, 746.8 280.7 Q 746.5 281.3, 746.5 282.3 Q 746.5 283.3, 746.8 283.9 Q 747.1 284.4, 747.7 284.4 " fill="#000000"/>
<path class="legend" d="M 750.4 284.2 L 751.1 284.2 L 751.1 284.9 L 750.4 284.9 L 750.4 284.2 " fill="#000000"/>
<path class="legend" d="M 753.8 285.0 Q 752.9 285.0, 752.4 284.3 Q 751.9 283.6, 751.9 282.3 Q 751.9 281.0, 752.4 280.3 Q 752.9 279.6, 753.8 279.6 Q 754.8 279.6, 755.3 280.3 Q 755.8 281.0, 755.8 282.3 Q 755.8 283.6, 755.3 284.3 Q 754.8 285.0, 753.8 285.0 M 753.8 284.4 Q 754.4 284.4, 754.7 283.9 Q 755.0 283.3, 755.0 282.3 Q 755.0 281.3, 754.7 280.7 Q 754.4 280.2, 753.8 280.2 Q 753.3 280.2, 753.0 280.7 Q 752.7 281.3, 752.7 282.3 Q 752.7 283.3, 753.0 283.9 Q 753.3 284.4, 753.8 284.4 " fill="#000000"/>
<path class="legend" d="" fill="#000000"/>
<path class="legend" d="M 762.2 281.1 L 762.9 281.1 L 761.5 284.9 L 760.7 284.9 L 759.3 281.1 L 760.0 281.1 L 761.1 284.3 L 762.2 281.1 " fill="#000000"/>
<path class="legend" d="M 763.5 284.1 Q 763.8 284.3, 764.0 284.3 Q 764.3 284.4, 764.5 284.4 Q 764.9 284.4, 765.1 284.3 Q 765.2 284.1, 765.2 283.9 Q 765.2 283.7, 765.1 283.6 Q 765.0 283.5, 764.9 283.4 Q 764.8 283.4, 764.5 283.3 Q 764.4 283.2, 764.1 283.1 Q 763.7 283.0, 763.5 282.8 Q 763.4 282.5, 763.4 282.1 Q 763.4 281.7, 763.7 281.4 Q 764.1 281.0, 764.8 281.0 Q 765.1 281.0, 765.3 281.1 Q 765.6 281.2, 765.9 281.3 L 765.7 281.8 Q 765.4 281.7, 765.2 281.7 Q 765.0 281.6, 764.8 281.6 Q 764.4 281.6, 764.2 281.8 Q 764.1 281.9, 764.1 282.1 Q 764.1 282.3, 764.2 282.4 Q 764.3 282.5, 764.7 282.6 Q 764.7 282.7, 764.8 282.7 L 765.0 282.8 Q 765.3 282.9, 765.5 283.0 Q 765.7 283.1, 765.8 283.3 Q 765.9 283.5, 765.9 283.8 Q 765.9 284.4, 765.5 284.7 Q 765.2 285.0, 764.5 285.0 Q 764.2 285.0, 763.9 284.9 Q 763.6 284.8, 763.2 284.7 L 763.5 284.1 " fill="#000000"/>
<path class="legend" d="" fill="#000000"/>
<path class="legend" d="M 769.4 280.7 Q 769.6 280.2, 770.1 279.9 Q 770.5 279.6, 771.2 279.6 Q 772.0 279.6, 772.4 280.0 Q 772.8 280.5, 772.8 281.2 Q 772.8 282.0, 772.3 282.7 Q 771.7 283.5, 770.5 284.3 L 772.9 284.3 L 772.9 284.9 L 769.4 284.9 L 769.4 284.4 Q 770.4 283.7, 770.9 283.2 Q 771.5 282.7, 771.8 282.2 Q 772.1 281.8, 772.1 281.3 Q 772.1 280.8, 771.8 280.5 Q 771.6 280.2, 771.2 280.2 Q 770.7 280.2, 770.5 280.4 Q 770.2 280.5, 770.0 280.9 L 769.4 280.7 " fill="#000000"/>
<path class="legend" d="M 775.7 281.6 Q 776.2 281.6, 776.5 281.8 Q 776.9 282.0, 777.1 282.4 Q 777.3 282.8, 777.3 283.2 Q 777.3 283.7, 777.1 284.1 Q 776.9 284.5, 776.5 284.8 Q 776.1 285.0, 775.5 285.0 Q 774.6 285.0, 774.1 284.4 Q 773.7 283.7, 773.7 282.5 Q 773.7 281.1, 774.2 280.3 Q 774.8 279.6, 776.0 279.6 Q 776.3 279.6, 776.6 279.7 Q 776.8 279.8, 777.1 279.9 L 776.8 280.4 Q 776.4 280.2, 776.0 280.2 Q 775.2 280.2, 774.8 280.7 Q 774.5 281.2, 774.4 282.1 Q 774.7 281.9, 775.0 281.8 Q 775.4 281.6, 775.7 281.6 M 775.6 284.4 Q 775.8 284.4, 776.1 284.2 Q 776.3 284.1, 776.4 283.8 Q 776.6 283.6, 776.6 283.2 Q 776.6 282.8, 776.3 282.5 Q 776.1 282.2, 775.6 282.2 Q 775.3 282.2, 775.0 282.4 Q 774.6 282.5, 774.4 282.7 Q 774.4 283.6, 774.7 284.0 Q 775.0 284.4, 775.6 284.4 " fill="#000000"/>
<path class="legend" d="M 779.9 281.6 Q 780.4 281.6, 780.8 281.8 Q 781.1 282.0, 781.4 282.4 Q 781.6 282.8, 781.6 283.3 Q 781.6 283.8, 781.3 284.2 Q 781.0 284.6, 780.6 284.8 Q 780.2 285.0, 779.7 285.0 Q 779.2 285.0, 778.8 284.8 Q 778.3 284.6, 778.0 284.3 L 778.5 283.8 Q 778.7 284.1, 779.0 284.2 Q 779.4 284.4, 779.7 284.4 Q 780.2 284.4, 780.5 284.1 Q 780.8 283.8, 780.8 283.3 Q 780.8 282.7, 780.5 282.5 Q 780.2 282.2, 779.7 282.2 Q 779.2 282.2, 778.7 282.4 L 778.3 282.2 L 778.5 279.7 L 781.2 279.7 L 781.2 280.3 L 779.1 280.3 L 779.0 281.8 Q 779.5 281.6, 779.9 281.6 " fill="#000000"/>
</svg>